<?xml version="1.0" encoding="UTF-8"?>
<svg enable-background="new 0 0 500 500" version="1.1" viewBox="0 0 500 500" xml:space="preserve" xmlns="http://www.w3.org/2000/svg">
<style type="text/css">
	.st0{fill:none;stroke:#EAB01F;stroke-width:2;stroke-linecap:round;stroke-linejoin:round;}
	.st1{fill:#2E9CAF;}
	.st2{fill:#EFD395;}
	.st3{fill:#1E1E1E;}
	.st4{fill:none;stroke:#1E1E1E;stroke-width:2;stroke-linecap:round;stroke-linejoin:round;}
</style>

	<path class="st0" d="m360.6 28.1s24.5 13.5 24.2 14c-0.4 0.6-46.7-25.5-47.4-24.4-0.6 1 67.9 38.1 67.4 38.9 0 0-73.3-42.8-74.1-41.4-0.4 0.7 81.1 44 79.9 46.1-0.4 0.7-86.7-50.9-88-48.7-1.2 2.1 95.8 53 94.8 54.7-0.2 0.4-103.3-59.6-104.6-57.3-0.5 0.9 113.9 60.8 111.8 64.5 0 0-119.9-68.2-121-66.4 0 0 133.2 72.3 131.2 75.8-1.4 2.5-138.7-80.3-140.2-77.7-1.4 2.4 146 80.6 144.4 83.4-0.9 1.6-149.1-87.4-151-84.1-0.7 1.2 156.8 88.4 155.9 90-1.4 2.3-160.1-97.5-163.4-91.9 0 0 170.7 92.3 168 97-1.4 2.5-168.8-97-168.9-96.8-1 1.8 170.7 93.8 168.7 97.4 0 0-168.2-102.7-171-97.9-1.8 3.1 172.6 95.6 170.9 98.7-1.8 3-173.9-100.5-174.5-99.6-2.3 4.1 178.2 99.1 176.5 101.9-0.3 0.7-177.1-105.3-179.1-101.9-3.6 6.2 184.9 102.5 183.1 105.7-2.1 3.7-183.9-110.2-186.9-105-3.6 6.2 190.8 101.9 187.3 108.1-3 5.1-188.5-111.9-190.8-108-3.2 5.6 194.4 112.2 194.4 112.2-0.7 1.2-201-114.1-201.3-113.4l203.4 117.4c-1.7 2.9-201.1-123.4-205-116.7-3.2 5.5 209.4 117.6 208 120.1-4 7-208.3-127-212.5-119.8-1.4 2.5 216.9 117.2 213.4 123.2-1.3 2.3-212-132.2-216.3-124.8-0.5 0.9 218.3 120.3 215.8 124.6-1 1.7-213.5-128.8-216.3-123.9-2.4 4.1 221.6 120.7 218.4 126.2 0 0-220.6-129.2-221.8-127.2 0 0 226.7 121.2 222.5 128.5-3.9 6.9-220.5-134.2-224.3-127.8-0.5 0.9 228.7 123.7 225.1 129.9l-227.7-128.4c-1 1.6 233.7 131 232 133.9-2.2 3.9-236-135.2-236.1-135 0 0 237.2 130.3 234.3 135.3-3.3 5.5-238.1-135.9-238.7-135-4.1 7.1 246.3 132.5 242.1 139.8-4.7 8.1-246.1-143-247.9-139.8-1.2 2.1 253.1 136.1 248.8 143.6-2.3 3.9-250.6-146.2-252.2-143.5-2.5 4.3 257.4 142.1 254.6 147-0.8 1.3-251.8-149.3-254.3-145-0.2 0.4 256 147.7 256 147.7-1.8 3.1-260.4-150.1-261.2-148.7 0 0 262 150.4 261.6 151.1-1.5 2.6-261.4-153.2-263.2-150 0 0 264.9 149.6 263.4 152.1-1.8 3-266.1-152.9-266.9-151.4-0.7 1.2 273.7 146.5 268.7 155.1-0.2 0.4-264.7-160.8-268.2-154.8-2.7 4.6 271 155.6 270.6 156.2 0 0-269.5-165.2-274.6-156.2-3 5.1 277.4 149.6 272.8 157.5-5.4 9.4-273.2-158.8-274.3-156.9-1 1.7 278.6 158.4 277.5 160.2-3.3 5.7-279-159.5-279-159.5-1 1.7 280.7 157.8 278.8 161-2.3 4.3-279.2-162.2-279.9-161-5 8.7 280.1 161.5 280 161.6-4.2 7.4-280-166.4-282.9-161.4-2.7 4.6 287.4 155.9 283.1 163.4-0.1 0.2-284.5-165.6-285.6-163.6-1.9 3.3 292.4 157.4 287.5 166-1.1 1.9-287.4-168.5-288.6-166.4-2.8 4.9 291.3 162.5 288.9 166.8-3.9 6.7-288.9-164.6-288.9-164.6-4.9 8.6 291.5 164.5 289.8 167.3-3.8 6.6-288.6-178.7-294.4-168.6-0.4 0.7 297.1 164.2 294 169.7-4.7 8.2-291.3-173-293.8-168.7-0.5 0.9 295.6 163.7 292.6 168.9-1.3 2.2-289.3-173.2-292.4-167.7-5.7 9.8 298 162.4 293.8 169.6-5 8.6-294.4-176.5-297.9-170.4-3.9 6.7 300.6 169.6 298.9 172.6-2.1 3.5-297.3-178.7-301.3-171.6-6.1 10.5 305.7 169.5 302.7 174.7-2.5 4.4-303.5-177.1-305.2-174.1-4.5 7.7 308.6 168.2 304.3 175.7 0 0-303.5-177.2-304.9-174.8-4.8 8.4 311.2 171.3 307.6 177.6-4.4 7.6-306.5-177.5-306.8-177-0.2 0.4 307.9 173.3 306 176.7-2.8 4.8-307.8-176.6-307.8-176.6-6.1 10.5 308.7 173.8 306.8 177.1-5.6 9.7-310.6-179.4-312.1-176.9-0.7 1.3 315.1 180.9 314.6 181.6-5.9 10.2-311.8-182.5-312.9-180.5-4.3 7.4 315.9 174.2 312.3 180.3-0.9 1.5-307.7-190.4-313.4-180.5-3 5.2 315 177 312.9 180.6-5.7 9.8-310.4-185.1-313.5-179.7-5.2 8.9 316.3 176.6 313.7 181.1-4.9 8.5-310.6-187.2-314.2-181 0 0 316.6 176.1 313.7 181.1 0 0-317.3-184.8-319.2-181.5-3.9 6.8 326.8 179.3 322.7 186.3-2.7 4.9-321.7-192.2-325.6-185.6-5.3 9.2 329.4 176.2 323.4 186.7 0 0-325.6-187-326.1-186.1 0 0 332.5 180.3 327.4 189-6.1 10.6-320.9-196.8-327-186.3-6 10.4 333.7 180.2 328.3 189.5-0.2 0.4-332.6-188.6-332.6-188.6-1.8 3 337.3 184.3 332.8 192.2-4.1 7.1-333.5-199.4-337.7-192.1-0.3 0.6 343.6 186.5 338.5 195.4-3.5 6.1-337.2-197.6-338.9-194.7-1.3 2.3 340.2 191.6 338.1 195.2 0 0-339.7-196.1-340.6-194.5-2 3.5 344.6 193.9 342.4 197.7-5.5 9.5-338.9-200.1-341-196.5-3.8 6.7 340.6 196.6 340.6 196.6-6.4 11.2-342.5-195.9-343-195-2.8 4.8 346.8 191.7 343.1 198.1-2.6 4.6-345.4-197.3-345.4-197.3-2.4 4.2 350.5 191.3 345.7 199.6-6.6 11.5-348.8-200.8-348.8-200.8-1.4 2.4 348.8 201.4 348.8 201.4s-348.5-204.4-350.8-200.4c-5.8 10 353.6 195.9 350 202.1-2.2 3.8-348.9-207-352.7-200.4-2.4 4.1 354 204.4 354 204.4-6.1 10.5-347.6-209.7-351.6-202.8-4.9 8.5 356.2 198.3 353 203.8-2.1 3.6-356.5-203.1-356.8-202.7-2.5 4.4 354.8 204.8 354.8 204.8s-353.6-215-359.3-205.1c-1.2 2 366.1 199.5 361 208.4-1.6 2.7-359.9-210.9-362-207.2-4.7 8.2 367.5 201.4 362.8 209.5-0.6 1.1-363.5-210.2-364.9-207.6 0 0 365.2 203.2 361.9 208.9-5.3 9.1-360.7-215.2-364.8-208-6.7 11.5 369.6 208.5 367.4 212.2-2.3 4-363.3-223.2-370-211.5-0.6 1 375.6 205.5 370.7 214-5.2 9-368.7-216.7-370.8-212.9-3.8 6.6 371.3 211.5 370.1 213.7-4 7-374.3-212.8-374.3-212.8s379.4 202.9 372.4 215c-2.4 4.1-373-213.1-373-213.1s378.5 207.3 373.6 215.7c-5.6 9.7-374.3-219.3-376.7-215.1-5.8 10 382.4 208.5 377.1 217.7-6.4 11.1-371.6-225.2-377.5-215-7.1 12.3 381 213.4 378.2 218.3-6.9 12-378.8-218.6-380.3-216.1-0.3 0.2 386.8 210.1 381 220.1-5.3 9.2-377.3-230.3-382.7-221-4 6.9 384.5 214.9 381.4 220.2-3.2 5.6-381.2-219.3-381.2-219.3-4.9 8.4 384.2 212.7 380.2 219.5-6.9 12-384.3-219.2-384.3-219.2-4 6.9 391.2 209.9 384.3 221.9-7.5 13-383.5-221.7-383.9-221.1 0 0 390.3 209.2 383.3 221.3-3.4 6.1-383.7-224.4-386.4-219.7 0 0 395.5 211.5 388.2 224.1-4.3 7.4-386.1-228.9-390-222-6.9 12 393.5 219.4 390.2 225.3 0 0-388.9-230.9-393-223.8 0 0 393.7 218.5 389.9 225.1-4.2 7.3-385.9-229-388.7-224.2-5.5 9.5 392.1 226 391.9 226.3-7.9 13.7-393.7-227.9-395-225.7-0.8 1.3 392 226 391.9 226.3-0.5 0.9-390.1-226.9-391-225.3-3.1 5.3 395.5 221.8 392.7 226.7-3.8 6.7-389.9-235.1-395.5-225.3l396.2 228.7c-4.9 8.4-395.1-235.2-399.6-227.5-0.2 0 397.5 229.5 397.5 229.5-6.8 11.8-390.8-236.9-395.9-228-2.1 3.7 398.7 221.5 395 228-8 13.9-391.6-240.2-398.3-228.6-0.1 0.2 401.7 224.1 398.3 230-2.7 4.7-398.6-229.2-399.6-227.5-7.5 13.1 400.7 231.4 400.7 231.4-3 5.2-395.3-242.7-401.7-231.7-4.8 8.2 407.9 218.8 400.7 231.3-7.8 13.3-395.2-242.3-402.6-229.5-1.9 3.2 406 229.1 403.7 233.1-4 6.9-400.9-239.9-405.5-232-4.3 7.5 402.2 232.2 402.2 232.2-2.7 4.8-397.8-237.7-402.7-229.2-1.6 2.7 412.2 221.4 405 233.8-4 7-398.6-246-405.6-234-3.2 5.5 405.3 228.1 402.7 232.5-4 7-396.7-242.4-402.9-231.7-5.5 9.6 409 222.4 403.1 232.7-3.5 6-403.1-233-403.5-232.3-4.2 7.2 412.9 222.2 405.9 234.3-7.7 13.5-402.1-247.8-410.3-233.6-5.2 8.9 413.8 228.1 409.1 236.2-5.4 9.3-404-240.1-407.6-233.8-0.5 0.8 409.4 227.8 405.7 234.2-1.3 2.1-410.3-234.2-410.3-234.2-4.4 7.5 419.5 226 412.5 238.2-4.1 7.1-403.7-247.8-410.1-236.7-1.9 3.3 411.5 233.9 409.9 236.7-4.4 7.6-408.1-243.8-412.8-235.7l410.5 237c-4.2 7.2-408.6-240-411.2-235.6-8.3 14.4 414.4 234.4 412.3 238.1-1.3 2.2-407-251.2-414.2-238.7-6.5 11.3 413.5 238.5 413.4 238.7-6.4 11.1-408.2-250-415.5-237.4-6.5 11.3 414.4 239.3 414.4 239.3-7.9 13.6-411.1-242.2-414.1-237.2-8.2 14.2 417.9 235.2 415.3 239.8-1 1.9-411.7-249.9-418.5-238.2-2.8 4.8 423.7 225.6 415.5 239.9 0 0-410.6-247.8-416.3-238 0 0 425.6 227.8 417.8 241.2-3.9 6.8-415.3-243-418-238.3-7.7 13.3 421.3 231.8 416.3 240.4-7.7 13.3-411.4-253.8-418.7-241.1-1.1 1.9 422.8 234 418.4 241.6-0.2 0.5-411.4-250-417.9-238.7-6.8 11.8 420.9 234.8 417.4 241-0.8 1.3-421-239.6-421-239.6-1.1 1.9 424.3 236.2 420.5 242.7-5.3 8.9-412.5-254.2-419.9-241.4-3.1 5.4 418.1 241.4 418.1 241.4-4.4 7.6-417-246.8-420.3-241.1-1.8 3.1 428.8 231.6 421.9 243.6-0.5 0.9-420.4-247.5-422.8-243.3-7.3 12.7 419.7 242.3 419.7 242.3-4.9 8.4-417.7-242.3-418.9-240.2-5.2 9 424.4 230.6 418.2 241.4-4.4 7.7-414.5-247.1-417.9-241.2-5.8 10.1 424.2 237.1 420.8 243-8.3 14.5-420.6-245.3-422.7-241.6-3.4 6 427.7 229.7 420.3 242.6-7 12.1-415.8-253.7-423.1-241 0 0 423.4 240.6 421.7 243.5-4.2 7.2-418.6-248.3-421.8-242.7-5.8 10 426.3 236.9 422.3 243.8-6.2 10.7-421.4-249.7-424.3-244.7-7.3 12.7 430.8 231.7 423.4 244.5-7 12.2-418.4-252.9-424.8-241.9s424.7 242.4 423.5 244.5c-1.1 1.9-424.4-244.6-424.4-244.6-4 6.9 430.6 239.3 426.5 246.3-5.2 9-425.2-244.8-425.2-244.8-7.2 12.4 424 244.8 424 244.8-6.8 11.9-419-256.9-425.8-245.1-5 8.6 428.7 242.5 426.5 246.3-2.2 3.6-426.1-243.4-426.1-243.4-4.3 7.5 431.6 233.2 424.7 245.2-4.5 7.6-422.6-252.2-426.7-245.2 0 0 432 237.1 426.7 246.4 0 0.1-426.5-244.2-426.5-244.2s427.7 239.8 424.6 245c-2.4 4.2-420-256.7-427.1-244.5-3.1 5.3 431.2 237.7 426.3 246.1-0.4 1-422.3-252.8-426.5-245.5 0 0 432.5 239.7 428.2 247.2 0 0-419.8-259.5-427.4-246.3-0.6 1.1 433.1 230.4 424.6 245.1-2.4 4.2-418.4-256.7-425.8-244 0 0 425.5 245.3 425.4 245.6-3.6 6.3-424.7-245.3-425.6-243.9l426.1 246c-0.1 0.4-424.2-250.1-426.5-246-6.5 11.2 427.5 246.3 427.3 246.7-7.6 13.1-425.7-252.6-430-245.1 0 0 429.7 242.2 427.1 246.6-4 6.9-428-245.3-428.5-244.5-2.7 4.8 431.5 245.6 429.9 248.2-7.9 13.7-427.8-249.3-429.3-246.8-8.5 14.8 431.7 241.5 428.4 247.3-0.5 0.9-424-255.8-429.3-246.7-2.4 4.1 431.2 239.7 427.2 246.6-1.6 2.8-421.8-256.7-428.5-245-1.5 2.6 434.5 233.5 427 246.5-3.7 6.5-424.4-248.3-427.2-243.4 0 0 428.2 246.8 428 247.1 0 0-427-252-430-246.9-7.5 12.9 434.9 238.9 429.6 248.1-0.8 1.6-423.4-261.5-431.8-247 0 0 431.4 242.7 428.6 247.5 0 0-428.3-248.9-430-246-7.6 13.1 432.3 242.3 429.2 247.7-4.7 8.2-426.5-247.2-428.1-244.5-2.5 4.3 432 240 427.9 247.1-3.2 5.5-431.2-246.2-431.2-246.2-7 12.1 437 239.8 431.6 249.2-7.5 13-431.1-246.8-431.2-246.6-4.5 7.9 429.8 245.4 428.6 247.5-6.2 10.8-428.6-247.6-428.8-247.3-8.5 14.7 428.6 245 427.6 246.9-3.2 5.6-426.3-249.8-427.9-247-2.8 4.9 438.8 233.3 430.2 248.4-6.7 11.6-431-248.8-431.9-247.3-4.4 7.7 431.3 246.6 430.2 248.4-2.4 4.2-423.7-258.9-431.1-246 0 0 430 247.6 429.7 248.1 0 0-428.3-247.5-428.6-246.9-4.4 7.5 430.9 246.8 430 248.3-2.3 4-429.1-250.2-430.8-247.3-2.3 4 427.1 246.6 427.1 246.6-7.5 13-428.2-250.3-430-247.2-8.6 15 432 245.2 430.2 248.4-1.9 3-430.8-246.3-430.8-246.3-1.4 2.5 431.9 249.4 431.9 249.4-1.1 2-429.4-247.3-429.9-246.5-6.3 10.9 428 244.6 426.9 246.5-6.7 11.6-426.4-252-429.4-246.8 0 0 434.6 243.1 431.2 248.9l-431.1-247.5c-5.6 9.6 434 238 428.5 247.4-1.3 2.3-427.9-251-430.2-247-1.2 2.1 435.5 240.4 430.7 248.7-2.7 4.7-428.4-247-428.4-247-8 13.8 429.9 239 425.9 245.9-0.1 0.1-421.3-254.1-427.3-243.8-5.9 10.2 429 244.6 427.7 246.9-1.7 2.9-424-258.8-430.8-247-8 13.8 436.3 233.2 428.2 247.2-3.2 5.6-429.4-245.6-429.4-245.6-6.6 11.4 431.3 249 431.3 249-2.1 3.6-426.3-250.9-429.6-245.2-1.3 2.3 433.1 235.1 426.6 246.3-1.3 2.2-422.8-257.9-429.5-246.2-6.2 10.7 435.7 239 430.2 248.4-2.7 4.6-431-248.2-431-248.2-3.4 5.9 429.8 244.6 428.2 247.2-3.4 5.9-426-249.9-429.1-244.5-2.5 4.3 434.4 240.1 429.8 248.1-7.2 12.3-422.2-256.5-427.9-246.6-5.6 9.6 432.3 238.2 427.3 246.7-1.4 2.5-429.3-248.6-430.1-247.3-1.8 3.2 429.9 247.4 429.5 248-7.8 13.6-426-252.4-429.9-245.6-4.2 7.3 427 246 426.8 246.4-4.3 7.4-421.5-249.6-424.9-243.7-4.6 8.2 424.9 242.8 423.8 244.6l-424.1-243.5c-4.2 7.3 432.9 233.9 426 246-8.2 14.1-423.1-250.5-427.1-243.5-5.9 10.3 423.5 244.5 423.5 244.5-2.2 3.8-425.1-245.3-425.4-244.9-4.2 7.2 426.4 244.2 425.6 245.7 0 0-420.5-253.8-426.4-243.6-4 6.9 434 232.6 426.2 246.1 0 0-421.2-253.4-426.9-243.5-7.6 13.1 431.4 230.5 423.4 244.4 0 0-425.4-243.9-425.6-243.4-5.8 9.8 425.8 245.8 425.8 245.8s-423.9-247.6-426.3-243.4c-5.3 9.2 432.3 231.4 424.4 245-7.4 12.9-418.1-253-424.5-241.8-2.9 5 423.4 240.6 421.7 243.5-3.8 6.9-417.7-250.4-422.4-242.2-6.7 11.7 428.4 234.8 423 244.2-0.2 0.4-420.3-247.1-422.7-243-2.2 3.6 425.7 238 422.3 243.9-5.9 10.2-416.9-257.1-424-244.8 0 0 428.2 231.2 421.3 243.2-3 5.1-416.2-250.3-420.8-242.2-3.8 6.5 422.6 244 422.6 244-8 13.8-417-251.3-422.4-241.9-6.4 11.1 426 229.8 419 241.9-0.2 0.3-417.3-240.4-417.3-240.4-2.6 4.6 420.8 235.6 417.6 241.1 0 0-419.3-241.6-420.1-240.3-6.4 10.8 420.9 243.1 420.9 243.1-6.2 10.7-412.5-252.5-420.1-239.3-0.6 1.1 419.6 234.9 416.4 240.4 0 0-415-241.5-417.3-237.7-1.9 3.3 417.3 240.9 417.3 240.9-0.9 1.6-414.7-247.8-419-240.4-7.9 13.7 418.1 241.4 418.1 241.4-7.5 12.9-414.5-246.2-417.7-240.6 0 0 422.2 225.2 414.2 239.1-4.8 8.4-407.1-249.9-413.9-238-1.8 3.1 420.7 232.7 416.3 240.4-0.9 1.6-419.5-239-419.5-239-7.9 13.7 417.6 240.6 417.4 241-0.8 1.4-409.4-251.6-417.2-238.1-6.6 11.5 416.9 237.3 415.4 239.8-7.4 12.7-409.7-244.8-413.3-238.6-1 1.6 411.6 237.7 411.6 237.7s-406.6-249.7-414.1-236.6c-8 13.9 415.5 231.4 411.8 237.8-7.2 12.4-402.7-249-410.3-235.9-6.8 11.7 410.3 234.9 409.4 236.3-0.2 0.4-410.6-235.8-410.7-235.6-8 13.8 413 235 411.5 237.6-7.3 12.7-412.3-240.9-413.6-238.5-4.1 6.9 420 224.9 412.4 238.1-8.1 14.1-408.4-242.6-412.3-235.9-3 5.2 410.9 237.3 410.9 237.3-2.8 4.9-408.7-235.7-409-235.2-8.1 14 413.5 228.4 409 236.1-0.3 0.5-408.4-238.1-410.7-234.2-1.2 2.1 414.5 227.7 409.5 236.4-3.7 6.4-411.1-233.9-411.1-233.9-6.4 11.2 412.3 231.1 409.3 236.3-7.8 13.6-406.4-235.6-406.9-234.7-5.4 9.3 414.1 220.7 406.2 234.5-7.2 12.3-409-235.7-409-235.7-2.8 4.8 411.4 226.4 406.6 234.8-1.4 2.4-402.2-234.9-404.9-230.3-5.2 9.1 411.6 221.3 404.6 233.5-2.8 4.8-402.9-240-407.3-232.3-3.9 6.7 407.9 225.7 403.7 233.1 0 0-401-235.1-403.7-230.3 0 0 402.9 229.4 401.5 231.8 0 0-398.5-232.2-400.2-229.3-2.1 3.7 399.6 229.9 399.2 230.5-3.5 6.1-396-237.7-401-229-4.7 8.1 402.5 230.1 401.5 231.8-5.4 9.6-399.8-235.8-402.3-231.5-5 8.6 404.5 223 399.9 230.9-1.5 2.6-392.4-241.9-399.8-228.9-6.3 10.9 401.5 221.5 397 229.2-7.2 12.5-394.5-232.5-396.7-228.8-3.7 6.4 405.6 215.9 397.7 229.6-3.6 6.1-396.7-226.4-396.7-226.4s397.3 228.1 396.7 229.1c-5.8 10-391.1-238.1-397.1-227.8-5.9 10.2 393.3 226.8 393.1 227-1.1 2.1-390.3-234.9-394.9-226.9-1.6 2.8 399.9 218.4 394.5 227.8-6.5 11.2-387.2-237.7-394.3-225.5-6.4 11.1 394.9 225.9 394 227.5-2.2 3.8-389.1-234.1-394-225.5-0.4 0.7 392.2 226.1 392 226.3-0.6 1.1-390.4-227.2-391.7-224.9-3.8 6.6 392.8 219.1 389.5 224.9-7.6 13.2-387.8-223.7-388-223.4-5.7 9.9 389.8 219.5 387.4 223.6-4.6 7.8-384.8-226.2-388-220.7-3.9 6.7 389.9 215.1 385.6 222.6-6.6 11.5-382.5-230.2-386.7-223 0 0 394.3 209.8 386.6 223.2-3.2 5.5-378-232.8-385.1-220.5-4.7 8.2 389.7 209.8 383.1 221.2-1.1 1.8-377.7-228.9-382.9-219.8-5.2 9 389.1 213 384.1 221.8-7.3 12.6-380.8-226.5-384.7-219.7 0 0 385.2 211.1 380.4 219.6-4.1 7.1-376.8-226.9-382.2-217.6-6.9 12.1 385.3 217.1 383 221-5.5 9.5-375.1-227.5-381.3-216.8-3.8 6.7 378.7 215.9 377.5 218 0 0-371.8-225.7-377.5-215.8-2.1 3.7 381.4 207.5 375.9 217-0.7 1.2-373.7-227.5-378.9-218.5-5.3 9.2 378.5 218.5 378.5 218.5-2.3 3.9-372.9-227.1-378.3-217.8-4.4 7.7 375.7 216.9 375.7 216.9s-370.4-223.1-375.3-214.6c-4.7 8.1 381.3 208.4 376.3 217.2-2.5 4.4-375.8-215-376.1-214.4-3.5 6.1 378.2 209.1 374.2 216.1-1.9 3.2-371.9-221.7-375.1-216.1-7.1 12.3 380.2 205.7 374.3 216.1-2.5 4.3-372.7-214.6-372.9-214.3-0.5 0.8 374 208.4 370.7 214.1-2.5 4.3-366-221.7-371.3-212.4-0.4 0.7 377.7 202 370.8 214.1 0 0-366.7-217.1-369.5-212.2 0 0 370.6 210 368.9 213 0 0-367.3-209.5-367.5-209.2-2.2 3.8 366 202.1 362 209-2.6 4.6-355.2-218.1-362-206.4-3.2 5.6 361.5 205.6 360.1 207.9-3.9 6.8-355.8-214.3-361.1-205.2 0 0 363 196.8 357.5 206.4-1.1 1.9-358.1-206-358.5-205.3-0.9 1.6 359.9 206.3 359.2 207.4 0 0-356.4-213.9-360.2-207.4-3.9 6.8 359.8 206 359 207.3-2.8 4.8-348.8-215-355.7-202.9-5.4 9.3 356.9 195.3 352.3 203.4-2.1 3.6-350.7-203.4-352.1-200.9-4.1 7.1 357 194.4 351.9 203.2-4 7-349.9-205.7-352.6-201.1-0.7 1.2 356.7 191.1 350.3 202.2-3.6 6.1-347.6-209.7-352.2-201.8-3.7 6.3 349.9 201 349.5 201.8-2.3 4.1-342.9-204.8-347-197.7-5.2 9 347.2 194.6 344.6 199-4.8 8.5-343.1-201.2-344.8-198.3-6.7 11.6 348.3 190.6 343.8 198.5-1.2 2-336.2-208.2-342.4-197.5 0 0 343.2 192.3 340.6 196.7-5.5 9.5-339.8-202.2-342.6-197.3-4 7 347 196.3 345.3 199.3 0 0-345.5-199.2-346.1-198.1-0.8 1.4 342.6 196 341.8 197.4-5.1 8.9-339.2-195.1-339.4-194.9-5.3 9.1 342.8 192.9 340.6 196.7-3.5 6.2-340.4-196.4-340.5-196.1-4.4 7.6 337.2 194.7 337.2 194.7-6.2 10.8-338.1-193-338.3-192.6-0.2 0.3 343.8 185.3 338 195.2-4.9 8.5-336.6-192.6-337.1-191.7-5.5 9.5 334.2 188.8 332.4 191.9-2 3.5-328.3-192.6-330.8-188.2-6.4 11.1 334 182 329.3 190.1-0.9 1.6-330.7-190.5-330.7-190.5-1.7 2.8 331.4 185.3 328.8 189.8-0.6 1-324.2-191.9-327.2-186.6-0.3 0.6 325.1 186.1 324.4 187.3 0 0-323.4-189.4-324.7-187.1-4.8 8.3 328.3 186.3 326.9 188.8-2.2 3.7-325.4-186.1-325.6-185.8-1.4 2.4 322.5 183.7 321.4 185.6-2.8 4.8-316.9-190.9-321.2-183.5-0.5 0.8 321.4 178.9 318.5 183.9l-318.9-181.6s321.2 176.5 317.3 183.2c-1.9 3.4-315-178.9-315-178.9-2.1 3.7 315.3 173.2 311.5 179.8-3.6 6.2-311.6-177.1-311.9-176.7-5.1 8.8 307.1 177.3 307.1 177.3-5.4 9.3-300.7-181-304.8-173.9-0.5 0.8 304.6 175.1 304.3 175.7 0 0-302.6-178.6-305.2-174.2-2.3 4 306.6 166.7 302.1 174.4-5.5 9.5-299.7-171.6-299.8-171.4-0.9 1.5 299.5 170.5 298.4 172.3-1.2 2-299.2-170.4-299.2-170.4s297.3 166.9 295.2 170.4c-2.3 4-292.8-170.5-293.9-168.6-4.4 7.7 298.9 159.6 293.3 169.3-2.5 4.3-293.7-169.4-294.2-168.6-1.2 2.1 293.2 164.2 291 168-2.7 4.7-286.2-172.9-289.6-167.1-2 3.4 289.4 165.7 288.8 166.7-3.8 6.6-287.2-171.6-290.2-166.3-5 8.7 294.6 163.4 291.7 168.4-5.1 8.8-284.8-173.8-290.2-164.4-1.1 1.9 284.9 164.5 284.9 164.5-1.9 3.2-283.4-162.6-284.1-161.3-4.4 7.6 279.8 160.5 279.3 161.3 0 0-276.1-161.6-277.2-159.5-5.6 9.6 279 160.4 278.7 160.9 0 0-275.6-166.4-279.2-160.1-2.1 3.6 280.5 155.9 277.9 160.4-1 1.7-274.1-162.3-276.9-157.4-2.7 4.6 272.5 157.3 272.5 157.3-1.2 2.1-267.7-158.5-270.7-153.3-4.1 7.1 269 146.4 265.2 153.1-4.5 7.7-261.7-159.7-265.7-152.8-3.1 5.3 270.5 144.9 265.6 153.4-5.2 9-257.5-156.3-261.9-148.6-2 3.5 261.3 141.5 257.2 148.5-0.7 1.3-255.1-145.7-255.6-144.8-0.3 0.5 255.9 143.9 254.2 146.8-3.2 5.7-253.5-148.3-254.7-146.3-4.8 8.3 254.2 146.2 254 146.7-4.6 8-251-152.2-254.8-145.6-1.3 2.2 252.6 138 249.2 143.9-2.4 4.2-242.9-147.4-247.4-139.7 0 0 247.3 136 244.3 141.1 0 0-240.5-143.4-243.1-138.9-0.1 0.1 242.8 135.1 240.6 138.9-0.8 1.4-234.6-140-237.7-134.6 0 0.1 233.7 132.5 232.6 134.3 0 0-226.6-134.9-229.5-129.8-1 1.7 229.3 123.5 225.4 130.2-2.9 5-222.7-138.4-227.2-130.6 0 0 231.2 126.6 228.2 131.8 0 0-223.1-133.7-225.7-129.2l223.9 129.3c-1.1 1.9-222.2-129-223.1-127.3-3 5.2 221.7 119.6 218.1 125.9 0 0.1-211.8-129.9-215.7-123-0.8 1.4 217.8 119.8 215.2 124.3-1.5 2.4-215.5-126.4-216.5-124.8-3.8 6.6 218.8 117.7 215 124.1 0 0.1-211.6-119.3-211.6-119.3s209.4 115.3 207 119.5c-1.5 2.6-204-122.3-206.6-117.7-1.2 2.2 206.1 113.2 203.6 117.6-2.6 4.5-197.6-112.9-198.4-111.5-2.6 4.5 194 105.4 191.1 110.4-1.5 2.7-187.5-109.7-189.1-106.9-2.4 4.2 184.5 106.5 184.5 106.5-3 5.2-180.4-104.2-181.5-102.4-3.2 5.6 178.1 102.7 178 102.8-2.1 3.6-175-98-175-98-0.2 0.4 170.2 91.5 167.3 96.6l-163.7-92.1c-2.7 4.6 160.3 90.4 159.3 92-2.3 4.1-150.8-87.7-152.5-84.7-0.5 0.9 146.8 78.6 144.1 83.2-1.3 2.3-144-82.5-144-82.5s144.8 79.8 143.1 82.6c-2.5 4.4-140.9-86.6-143.6-82-0.8 1.4 142.8 80.1 141.8 81.8-1.9 3.2-134.5-78-135.9-75.6-0.7 1.1 130.1 69.4 127.7 73.7 0 0-119.4-71.7-121.8-67.5-0.7 1.2 112.4 63.7 111.9 64.6-1.2 2.1-102.3-58.7-103.2-57.2-1.2 2.1 98.3 53.7 97 56-0.4 0.7-92.7-51.9-92.9-51.6 0 0 83.8 48.1 83.7 48.3-1.6 2.7-77.7-47.8-79.3-45-0.4 0.6 77.9 44.9 77.8 44.9-1.2 2.1-65.1-36.3-65.9-35 0 0 47.4 26.6 47.1 27.2-0.3 0.5-35.8-20.9-36.4-19.9-0.1 0.1 26.1 14.1 25.7 14.8"/>


	
		<polygon class="st1" points="113.3 255.7 143.9 272.6 166.4 299.9 316.7 146.4 316.7 133.5 304.7 121.4 275.7 114.2 262.1 116.6"/>
		<path class="st2" d="m111.7 257.3c0 1.6-13.7 74.8-13.7 74.8l71.3-33.5-27.1-29.2-30.5-12.1z"/>
		<path class="st3" d="m287.3 110c-19.3-2.8-22.4 0.5-36.6 13.1-22.9 20.2-43.5 42.8-66.4 63-25.4 22.5-53.4 43.7-76.4 68.6-0.1 0.1-0.1 0.3-0.3 0.4-0.6 0.6-1.1 1.3-1.4 2.3-6.4 25.5-8.8 53.5-18 78.1-1.7 4.5 3.7 7 7.2 5.5 26.3-11.3 56.8-23.2 79.3-40.9 17.5-13.8 32.9-32.5 48.3-48.4 22.2-23 44-46.3 66.4-69.1 7.4-7.5 34.3-29.8 35-42.5 1.1-16.6-24.4-28.3-37.1-30.1zm-165.1 209c0.7-8.8-10.7-14.2-16.2-11.2 4.3-17.8 4.8-26.8 8.9-44.3 4.6-0.8 7.9 0.9 9.7 5.2 0.3 3.8 3.9 5.9 7.4 4.2 5.2-2.6 12.8 5 11.8 10-0.6 2.9 1.3 6.5 4.7 6.2 7.2-0.5 10.4 4.1 11.2 9.9-14.9 10-20.3 12.7-37.5 20zm19.3-54.8 41.4-37.7 80.1-80.1 27.7-25.7c3.5 1.4 6.8 3.1 9.8 5l-21.7 23.8-49.4 46.8c-3.7 3.5-7.3 7.1-10.8 10.8l-55.3 58.7-11.1 9c-2.1-4.6-6-8.6-10.7-10.6zm32.7-56c20.6-19.1 40.6-38.5 60.9-58 8.4-8.1 26-28.3 35.9-31.4 2.6-0.8 5.3-1 8.1-0.8l-23 21.3-80 80-44.8 40.8c-2.2-2.9-5.5-4.9-9.1-5.9 16.5-16.2 35-30.2 52-46zm128.2-53.5c-29.6 35.7-65.1 68.6-97.7 101.7-11.7 11.9-23.3 25.9-36.5 36.4-1.6-4.8-4.6-8.8-8.8-11.2l10.4-8.5 55.8-59.2c3.4-3.6 6.8-7 10.4-10.4l49.6-47.1 22.4-24.5c9 8.7 3 12.5-5.6 22.8z"/>
	
	
		
			<path class="st4" d="m108.9 344.8c-0.2 0.3 22.7 12.5 22.5 13 0 0-35.8-20.2-36.4-19.2-0.2 0.3 25.2 14.4 25.1 14.5-0.1 0.2-30.8-16.9-30.9-16.7-0.4 0.6 21.8 12.6 21.8 12.6-0.4 0.7-22.7-12.8-22.9-12.4-0.4 0.7 22.7 12.8 22.5 13-0.1 0.2-22.6-13-22.9-12.6-0.2 0.3 22.9 12.7 22.7 13.1s-22.7-13-22.8-13c0 0.1 22.9 12.7 22.7 13.1-0.2 0.3-22.4-12.7-22.8-12.1-0.3 0.5 22.1 12.3 21.9 12.6"/>
			<path class="st4" d="m153.5 352.2c-0.3 0.6 22 12.6 22 12.7s-24.4-14-24.5-13.8 23.1 13 23 13.3c-0.5 0.8-28.1-16.6-28.6-15.8-0.2 0.3 24.5 14 24.5 14.1-0.2 0.3-37.7-21.2-38.2-20.3-0.4 0.7 25.8 14.3 25.6 14.8-0.1 0.1-26.6-15.8-27-15.1-0.1 0.2 35.4 20.3 35.3 20.4-0.2 0.3-36.3-20-36.4-19.8 0 0 36.3 20.9 36.3 21-0.2 0.4-36.2-21-36.5-20.5-0.6 1.1 36.7 20.1 36.2 20.9-0.5 0.9-34.8-18.6-35-18.2-0.1 0.2 29.8 16.7 29.6 17.1-0.4 0.7-33.1-19.9-33.7-19-0.4 0.6 30.8 17.2 30.5 17.6-0.4 0.7-43.4-23.3-43.5-23-0.1 0.1 35.8 20.3 35.6 20.6s-36.2-20.4-36.2-20.4c-0.3 0.5 36.7 20 36.2 20.9-0.6 1.1-36.6-20.4-36.7-20.2-0.6 1 36.8 20.4 36.5 21.1-0.2 0.3-35.7-19.7-36-19.2-0.1 0.2 34 18.4 33.5 19.3-0.4 0.7-35.1-19.9-35.2-19.7-0.1 0.1 29.9 17.2 29.9 17.3-0.4 0.7-39.1-21.4-39.4-20.8-0.5 0.9 34.6 18.9 34.2 19.7-0.4 0.7-34.1-20-34.7-19-0.4 0.8 34.5 19.7 34.4 19.9-0.1 0.1-34.3-19.1-34.5-18.9 0 0 34.2 18.5 33.7 19.4"/>
			<path class="st4" d="m198.1 353c-0.2 0.4 22.7 12.3 22.4 12.9s-23.3-14.2-23.7-13.5c-0.3 0.5 23 12.7 22.7 13.1-0.2 0.4-35.3-18.3-35.4-18.2-0.1 0.2 32.4 18 32.1 18.5 0 0-32.8-18.2-33.2-17.4 0 0.1 33.3 18.4 32.9 19-0.4 0.7-31.6-16.9-31.7-16.6-0.4 0.6 28.5 15.4 28 16.2-0.6 1.1-41-22.1-41.3-21.6-0.4 0.6 22.1 12.6 22 12.7-0.3 0.6-23.2-12.7-23.4-12.4-0.5 0.8 36.4 20.1 36 20.8-0.6 1-36.4-19.6-36.5-19.4-0.5 0.8 36.1 19.8 35.6 20.6-0.3 0.6-35.4-20.5-35.6-20.3-0.1 0.1 35.3 20.1 35.2 20.3-0.2 0.3-30.9-17.6-31.3-17 0 0.1 26.9 14.6 26.5 15.3-0.2 0.4-34.1-19.8-34.6-19-0.1 0.2 27.3 15.1 27 15.6-0.2 0.3-33.8-19.3-34.3-18.4s37.2 21.4 37.2 21.5c-0.1 0.2-38-20.8-38.2-20.4-0.6 1.1 38.4 20.9 37.8 21.9-0.3 0.5-34.9-18.5-35-18.3-0.1 0.1 29.2 16.8 29.2 16.8-0.2 0.3-43-23.8-43.4-23.1-0.2 0.3 25.5 14.6 25.5 14.7-0.2 0.3-26.5-15.7-26.9-15.2-0.4 0.7 24 13.1 23.6 13.7-0.4 0.7-26.3-13.5-26.3-13.5-0.2 0.3 38.4 21.8 38.2 22.1 0 0-38-22.3-38.5-21.5-0.4 0.7 38.6 21.5 38.3 22.1-0.1 0.2-38-21.8-38.4-21.1-0.3 0.5 37.9 21 37.5 21.7"/>
			<path class="st4" d="m219.1 352.8c-0.1 0.1 24.7 13.7 24.4 14.1-0.1 0.2-28.6-16.5-28.8-16.1-0.4 0.7 25.8 14.6 25.7 14.8-0.6 1.1-37.9-21.7-38.5-20.7-0.4 0.6 27.1 15.2 26.9 15.6 0 0.1-29.7-15.4-29.9-15-0.4 0.7 41.8 23.7 41.6 24-0.3 0.5-38.9-21.2-39.3-20.5-0.2 0.3 28.5 15.8 28.2 16.3-0.4 0.6-35-18.9-35.3-18.3-0.5 0.8 32.3 18.1 32.1 18.5 0 0-32.7-17.1-32.8-17-0.4 0.7 32.2 18.3 32.1 18.5-0.4 0.7-31.5-18.5-31.9-17.8-0.4 0.8 31.1 17.8 31 17.9"/>
			<path class="st4" d="m238.5 356.5c-0.1 0.3 19.8 10.7 19.5 11.2-0.5 0.9-33.3-18.4-33.7-17.6-0.2 0.4 24.3 13.8 24.2 14-0.4 0.8-33.2-18.4-33.4-18.1 0 0.1 25 13.6 24.6 14.2-0.3 0.5-26.8-14.4-26.9-14.2-0.5 0.9 36.5 21 36.5 21.1-0.2 0.3-36.4-20.8-36.9-19.9-0.1 0.2 36.8 19.8 36.2 20.9-0.3 0.5-35.6-20.9-36-20.2-0.5 0.9 35.2 20.3 35.2 20.3"/>
			<path class="st4" d="m236.9 350.9c-0.2 0.4 23.8 13.7 23.8 13.7-0.1 0.2-32.1-18.3-32.6-17.5-0.4 0.8 32.5 17.9 32.2 18.6-0.4 0.7-32.9-18.7-33.3-18.1-0.1 0.3 33.6 18.8 33.3 19.2-0.2 0.4-33.4-19.2-33.7-18.6-0.3 0.5 33.7 18.8 33.4 19.3-0.1 0.2-32.9-19.5-33.4-18.6-0.1 0.1 33 18.8 32.9 19"/>
			<path class="st4" d="m245.6 345.7c-0.5 0.9 33.9 19 33.6 19.4-0.6 1-36.7-21-36.8-20.9-0.2 0.4 34.3 19.1 34 19.6s-37.4-20.9-37.4-20.9c-0.4 0.7 42.6 23.1 41.9 24.2-0.6 1.1-43.3-23.4-43.6-22.9-0.6 1 43.5 24.5 43.2 24.9-0.1 0.1-42.2-23.3-42.2-23.2-0.6 1.1 40.1 22.3 39.7 22.9-0.2 0.3-39.7-23.4-40.3-22.4-0.4 0.8 33 18.4 32.7 18.9s-33.5-19.3-33.5-19.2c-0.2 0.4 32.5 18.6 32.4 18.7-0.4 0.8-36.9-20.6-37.2-20-0.2 0.4 34.7 19.4 34.4 19.9s-34.3-20.3-34.7-19.6c-0.6 1 35 19.5 34.7 20-0.4 0.7-34.6-20.3-34.8-19.8 0 0 34.8 19.9 34.7 20.1-0.6 1-34.6-19.5-35-18.7-0.2 0.3 34.2 19.3 34 19.6"/>
			<path class="st4" d="m256.6 346.8s34.2 19 33.9 19.5c-0.2 0.3-45.8-24.8-46-24.4-0.5 0.8 40.9 22.1 40.2 23.2-0.2 0.4-40.4-23.2-40.6-22.9-0.5 0.9 40.8 22.6 40.4 23.3-0.4 0.8-39.9-23-40.5-22-0.3 0.5 39.9 21.9 39.4 22.8"/>
			<path class="st4" d="m270.7 348.7c-0.1 0.2 26.2 14.3 25.9 14.9-0.6 1-36.7-20.8-37.1-20.2-0.1 0.2 29.6 16.1 29.2 16.9-0.1 0.1-31-18.6-31.4-17.9 0 0 29.9 16.1 29.4 17-0.1 0.1-32.7-18.8-33-18.2-0.5 0.8 43.4 24.1 43 24.8-0.6 1.1-43.4-24.6-43.7-24.2-0.5 0.9 43.6 25.1 43.6 25.2-0.7 1.3-43-24.6-43.6-23.5-0.5 0.9 42.9 23.1 42.2 24.3"/>
			<path class="st4" d="m289.6 348.4c-0.2 0.4 22.5 12.8 22.5 13-0.3 0.5-24-14.4-24.3-13.8s23.4 12.9 23.1 13.4c-0.6 1.1-39.1-20.6-39.2-20.4-0.2 0.4 42.4 23.9 42.2 24.3-0.5 0.8-43-23.3-43.3-22.7-0.7 1.2 42.8 24.1 42.6 24.6-0.5 0.9-42.2-25.1-42.5-24.5-0.4 0.6 42.7 24 42.4 24.5-0.7 1.2-47.4-27.4-48.2-26-0.4 0.7 35.6 19.7 35.2 20.3 0 0-36.6-21.9-37.2-20.9-0.1 0.2 37.9 21.8 37.9 21.9-0.5 0.8-38.9-21.9-39.1-21.5-0.7 1.1 39.9 21.8 39.4 22.7-0.2 0.4-38.9-23.6-39.5-22.5-0.3 0.5 39.6 22.4 39.4 22.8-0.3 0.6-39-22.4-39.6-21.3 0 0 39.1 21.3 38.6 22.3-0.1 0.1-38.2-22.8-38.5-22.2-0.1 0.2 38.5 22.1 38.5 22.2"/>
			<path class="st4" d="m292.2 344.5c-0.4 0.7 28.1 15.7 27.9 16.1s-37.6-20.3-37.6-20.2c-0.3 0.4 35.5 19.7 35.2 20.3-0.4 0.8-35.9-19.6-36.2-19-0.4 0.7 36.1 19.8 35.7 20.6-0.1 0.2-35.2-19.8-35.4-19.5-0.1 0.2 34.3 19.5 34.2 19.7"/>
			<path class="st4" d="m304.4 345.1c-0.1 0.1 24.7 13.4 24.3 14 0 0-28.8-16.4-29-16.2-0.4 0.8 25.6 14.3 25.4 14.6-0.3 0.6-37.2-20-37.2-19.9-0.6 1 36.1 20.6 36 20.8-0.5 0.8-37.5-21.2-37.5-21.2-0.3 0.5 38.4 22.1 38.3 22.1-0.3 0.5-38.5-22.9-39-21.9-0.1 0.2 39.2 22.5 39.1 22.6-0.4 0.6-39.7-21.4-39.8-21.3-0.4 0.7 39.6 21.5 39 22.5-0.2 0.3-38.6-22.8-39-22.1-0.1 0.2 38.9 21.5 38.5 22.2"/>
			<path class="st4" d="m312.7 343.5c-0.2 0.3 24.9 14.2 24.8 14.3-0.5 0.8-37.9-20.9-38.2-20.2-0.2 0.4 23.8 13.4 23.6 13.6-0.1 0.2-26.5-14.6-26.7-14.2-0.2 0.3 38.3 21.3 37.9 21.9-0.1 0.2-37.9-21.3-38.5-20.3-0.5 0.8 38.1 20.7 37.5 21.7-0.2 0.3-36.8-22.4-37.4-21.3s37.3 20.9 37 21.4"/>
			<path class="st4" d="m329.4 336.9c-0.4 0.7 27.1 15 26.8 15.5-0.4 0.7-29.8-18-30.4-17.1-0.2 0.4 27.6 15.3 27.3 15.8-0.6 1-32.8-18.4-32.9-18.2-0.3 0.6 26.9 14.9 26.6 15.4-0.2 0.4-29.1-16.3-29.1-16.3-0.3 0.5 24.7 14.2 24.7 14.2s-27.1-14-27.2-13.8c-0.5 0.8 39.2 21.1 38.5 22.2-0.1 0.2-38.4-22.3-38.7-21.9-0.4 0.6 39.1 21.1 38.4 22.2-0.4 0.7-30.2-16.1-30.5-15.7-0.4 0.7 26.1 14.5 25.9 14.9-0.3 0.5-32.8-18.9-33.2-18.3-0.3 0.5 26.6 14.8 26.3 15.2-0.2 0.3-29.2-16.9-29.4-16.6-0.1 0.2 26.4 14.6 26.1 15.1-0.5 0.8-29.7-17.1-30-16.6-0.4 0.7 24.5 14 24.5 14.1-0.3 0.5-25.9-14.2-26.1-13.9s41 22.4 40.5 23.4c-0.4 0.8-40.7-22.7-40.9-22.2 0 0 40.7 22.4 40.2 23.2-0.5 0.9-36.7-20.1-36.8-19.9-0.5 0.9 34.1 18.9 33.8 19.5 0 0-36.2-21.1-36.4-20.6-0.3 0.5 34.1 19.1 33.8 19.5-0.2 0.3-33.8-20.3-34.2-19.6-0.5 0.9 33.7 19.3 33.7 19.4-0.5 0.8-35.7-19.5-35.8-19.2-0.1 0.1 37.3 20.4 36.8 21.2-0.2 0.4-37.1-20-37.2-19.9-0.4 0.7 36.7 20.1 36.2 20.9"/>
			<path class="st4" d="m333.9 332.9c0 0.1 24.4 13.2 24 13.9-0.3 0.4-34.9-18.8-35.1-18.5 0 0 22.5 12.5 22.3 12.9-0.3 0.6-23.6-13.8-23.9-13.3l20.4 11.8s-22.2-11.6-22.5-11.1c-0.6 1.1 43.4 23.5 42.7 24.7-0.7 1.1-42.6-24.3-42.9-23.8-0.4 0.7 42.5 24 42.3 24.4-0.7 1.2-41.9-24.6-42.2-24-0.4 0.6 42.2 23.3 41.7 24.1-0.2 0.4-41.1-25-41.7-24-0.3 0.5 41.8 23.6 41.6 24"/>
			<path class="st4" d="m349.4 334.8c-0.1 0.2 18.5 10.5 18.4 10.6 0 0.1-23.2-13.1-23.4-12.7s19.7 11.1 19.6 11.3c-0.2 0.4-20.4-11.7-20.4-11.6-0.1 0.2 19.8 11.1 19.7 11.4-0.2 0.4-25.7-14.5-26-14 0 0.1 20.4 11.2 20.1 11.6-0.3 0.5-20.5-12.2-20.7-11.9-0.1 0.2 20.3 11.2 20.1 11.6-0.3 0.5-21.7-12.7-21.9-12.3-0.2 0.3 20.1 11.4 20.1 11.6-0.4 0.6-22-12.4-22.1-12.3-0.5 0.8 31 17.8 31 17.9-0.1 0.3-32.3-17.8-32.4-17.6-0.4 0.6 33.3 17.9 32.7 18.9-0.2 0.4-32.7-18.9-33-18.3s32.8 18.9 32.8 18.9c-0.3 0.5-32.5-18.9-32.9-18.2-0.5 0.9 32.8 18.1 32.4 18.7-0.1 0.2-32-18.6-32.3-18.1s32 17.4 31.5 18.2"/>
			<path class="st4" d="m355.1 326.1c-0.2 0.4 17.8 9.8 17.6 10.2-0.1 0.1-25-13.8-25.4-13.1-0.1 0.2 16.6 9.1 16.4 9.5-0.1 0.2-20.2-10.3-20.5-9.9-0.4 0.8 31.7 17.6 31.4 18.1-0.4 0.7-31.3-17.2-31.7-16.4 0 0 30.9 16.7 30.4 17.5-0.3 0.6-35.3-19.3-35.8-18.5 0 0.1 22 12.5 21.9 12.6-0.2 0.4-23.7-12.9-23.9-12.5-0.3 0.5 37 20.3 36.6 21.1-0.5 0.9-36.5-20.5-37-19.7-0.1 0.1 36.3 20.5 36.1 20.9-0.5 0.9-35.8-20.7-36-20.4-0.1 0.2 35.7 19.8 35.4 20.4"/>
			<path class="st4" d="m359.7 322.8s14.4 8.3 14.3 8.3c-0.2 0.4-17.2-9.4-17.2-9.3 0 0 14.5 8.1 14.4 8.3 0 0-21.2-10.8-21.3-10.7 0 0.1 27.3 14.8 26.8 15.5-0.2 0.3-27.7-15.7-28.1-15.2-0.1 0.3 28.7 15.7 28.3 16.3-0.2 0.3-28.3-16.1-28.8-15.3s28.5 15.8 28.2 16.3c-0.2 0.4-27.8-16.6-28.2-16-0.2 0.3 28 15.8 27.9 16.1"/>
			<path class="st4" d="m363.4 319.2c-0.1 0.2 18.8 10.6 18.6 10.8-0.2 0.4-26.8-14-27-13.7-0.3 0.5 24.9 13.9 24.7 14.2-0.4 0.6-25.4-14-25.7-13.5-0.2 0.3 25.6 14.5 25.5 14.7-0.4 0.6-25.3-15-25.5-14.6-0.3 0.4 25.7 14.2 25.5 14.7-0.1 0.2-25.5-14.5-25.6-14.3-0.3 0.6 25.7 14 25.4 14.6-0.1 0.2-24.9-14.3-25.2-13.7-0.1 0.3 24.6 13.3 24.2 14"/>
			<path class="st4" d="m369.8 316.6c-0.2 0.3 14.4 7.9 14.2 8.2-0.1 0.1-18.7-10.3-18.9-10-0.1 0.1 15 8.5 14.9 8.6-0.2 0.4-19.4-10.3-19.4-10.2-0.2 0.3 15.1 8.3 14.9 8.6-0.1 0.2-17.3-8.6-17.3-8.5-0.4 0.7 29.7 16.6 29.5 17 0 0.1-29.6-15.8-29.8-15.5-0.3 0.5 28.7 16.3 28.6 16.5"/>
			<path class="st4" d="m364.4 308.2c-0.3 0.6 19.8 11.4 19.8 11.4-0.4 0.7-28-14.9-28.4-14.1s31.9 18.2 31.8 18.3c-0.2 0.4-31.9-18.4-32.1-17.9 0 0 32 18.4 32 18.5-0.5 0.8-32.2-18-32.2-18-0.1 0.1 32.1 18.2 31.9 18.4-0.5 0.9-31.7-18-31.9-17.6s31.4 17.4 31 17.9"/>
			<path class="st4" d="m374.1 306.9c-0.1 0.1 14 7.9 13.9 8-0.2 0.3-19.9-10.4-20-10.2s14.4 8.3 14.4 8.3c-0.1 0.1-15.6-9.2-15.8-8.8-0.1 0.1 14.5 8.1 14.3 8.3-0.1 0.2-19.6-10-19.9-9.5-0.2 0.3 28.6 16.4 28.6 16.5-0.4 0.7-28.3-17-28.6-16.4-0.1 0.2 29.1 15.7 28.6 16.5-0.4 0.7-29.1-15.8-29.1-15.7-0.1 0.2 29.2 15.8 28.8 16.6-0.4 0.7-28.6-16.8-28.9-16.4-0.3 0.5 28.8 16.4 28.7 16.6-0.4 0.7-28.1-16.5-28.6-15.7-0.2 0.3 27.8 15.9 27.7 16"/>
			<path class="st4" d="m363 294.6c-0.2 0.3 20.2 11.1 19.9 11.5-0.1 0.2-21.6-12.5-21.8-12.2-0.3 0.6 19.8 10.7 19.5 11.3 0 0-26.5-13.4-26.7-13.1-0.4 0.7 38.5 20.9 38 21.9-0.6 1-38.1-21.9-38.5-21.2s38.9 21 38.2 22.1c-0.4 0.7-37.8-22.1-38.3-21.2 0 0.1 37.7 21.4 37.5 21.7"/>
			<path class="st4" d="m361.1 288.5c-0.3 0.6 24.9 13.4 24.5 14.1-0.5 0.9-30.7-17-31.1-16.3-0.3 0.6 35.1 19.2 34.6 20s-35-19.4-35.5-18.5c-0.6 1 34.9 19.8 34.7 20-0.3 0.4-34.4-20.4-34.7-19.9-0.5 0.9 34.9 19.1 34.5 19.9-0.3 0.5-34.4-19.6-34.4-19.6-0.5 0.9 34.4 19 34.1 19.7"/>
			<path class="st4" d="m347.1 277.2c-0.7 1.2 43 24.6 42.9 24.8-0.2 0.4-43.1-25.3-43.8-24.1-0.6 1.1 43.8 24.9 43.6 25.2-0.5 0.9-43.7-24.1-43.7-24-0.1 0.1 43.5 23.5 42.8 24.7"/>
		
		
			<path class="st4" d="m322.3 255.3c-1 1.7 66 37.1 65.6 37.8-1.2 2-75.2-43.5-75.4-43.2-0.5 0.8 73.3 40.7 72.6 41.9s-88-50.2-88.1-50.1c-0.8 1.3 79.8 43.4 78.7 45.4-1.3 2.3-88-50-88.7-48.9-1.3 2.3 101.6 57.3 101 58.3-0.2 0.3-101.3-57.6-101.4-57.4-1.6 2.8 101.8 56.7 100.9 58.2-0.4 0.7-99.3-59.6-100.6-57.3-1.4 2.4 100.5 56 99.6 57.5-0.9 1.6-99.5-57.3-99.5-57.3-0.8 1.3 99.4 56.8 99.2 57.3-1.2 2-96.7-56.3-97.5-54.9-0.5 0.8 69.9 39 69.3 40s-69.7-41.6-70.4-40.2c-0.9 1.5 55.4 30.9 55 31.7-0.7 1.2-55-32.4-55.4-31.7 0 0.1 46.8 26.7 46.6 26.9-0.8 1.4-47.2-26.6-47.8-25.6-0.3 0.4 44 24.8 43.7 25.3-0.6 1.1-43.2-26.2-43.8-25.2-0.7 1.3 44.2 24.4 43.7 25.2-0.4 0.7-43.1-26-43.7-24.9-0.4 0.7 43.6 24.7 43.4 25.1-0.3 0.4-42.9-24.6-43.1-24.3s35.4 19.4 35 20.2"/>
			<path class="st4" d="m363.3 271.5c-0.1 0.1 24.4 13.4 24.1 13.9-0.6 1.1-60.1-34-60.5-33.3-0.9 1.6 56.3 31.6 55.9 32.3-0.3 0.5-66-39-66.6-38-1 1.7 63.7 36.1 63.4 36.6-0.6 1.1-93.3-53.3-93.7-52.7 0 0.1 107.1 61.2 106.8 61.7-1.7 3-106.9-62.4-107.3-61.7-1.4 2.5 109 59.2 107.4 62-0.1 0.2-106.5-64.5-108.1-61.7-1.4 2.5 108.4 61.9 108.1 62.4-0.3 0.4-107.9-62.2-108.5-61-1.7 3 109.3 59.2 107.6 62.1-0.2 0.3-106.9-62.4-107.4-61.6-0.8 1.4 107.1 61 106.7 61.6-0.1 0.1-103.6-62.2-104.9-59.8-0.1 0.1 37.2 21.2 37.1 21.4"/>
			<path class="st4" d="m345.8 253.4c-0.2 0.3 38.2 20.7 37.6 21.7-0.6 1.1-38.2-22.9-38.6-22.3-0.2 0.3 39.2 21.3 38.6 22.3"/>
			<path class="st4" d="m337.1 244.7c-0.3 0.6 45.4 26.1 45.3 26.2-0.3 0.5-55.6-32.9-56.3-31.8-0.5 0.8 50.5 28.6 50.3 29 0 0.1-50.8-31.2-51.6-29.7-0.2 0.3 50.9 28.1 50.3 29.1-0.9 1.5-57.2-32.6-57.2-32.6-0.2 0.4 51.3 27.6 50.4 29.1-1 1.8-74.2-42.3-74.7-41.4s48.9 27.8 48.7 28.1c-0.9 1.5-55.2-33.3-56.2-31.7-0.6 1 46 25.1 45.3 26.2-0.6 1-46.4-27.2-47-26.2-0.7 1.3 100.5 55.3 99.3 57.3-0.8 1.4-98.3-59-100-56.1-0.8 1.4 100.9 54.6 99.3 57.3-1 1.7-97.6-58.9-99-56.4-0.5 0.9 99.7 53.8 98.1 56.6-0.6 1-96.2-57.4-97.2-55.8 0 0 97.5 53.5 96.3 55.6-0.8 1.4-94.6-57.5-95.9-55.3-1 1.7 96.1 54.3 95.6 55.2-1.4 2.5-89.6-54.2-90.9-52-0.4 0.7 89.6 49.5 88.7 51.2-0.1 0.1-93.7-54.7-94.5-53.3-0.6 1 104.9 57.4 103.5 59.8-0.7 1.2-104.7-59.5-105.3-58.5-0.4 0.7 45.8 25.6 45.4 26.2-0.7 1.3-44.9-26.5-45.4-25.7-0.4 0.6 22.8 12.7 22.6 13"/>
			<path class="st4" d="m355.3 246.2c-0.3 0.5 22.7 12.8 22.6 13-0.5 0.8-27.3-16.7-27.8-15.9-0.1 0.1 27.8 15.9 27.8 16"/>
			<path class="st4" d="m352.2 239.3c-0.3 0.5 21 11.7 20.8 12-0.1 0.2-22-12.7-22-12.7-0.2 0.3 22.2 12.3 22 12.7"/>
			<path class="st4" d="m324.9 215.3c-0.1 0.1 24.3 13.3 24 13.9 0 0-29.9-17.1-30.1-16.8-0.5 0.8 28.1 15.7 27.9 16.1-0.4 0.7-45.6-24.8-45.7-24.8-0.6 1 34.6 19.8 34.5 19.9-0.5 0.8-40-22.7-40-22.6-0.3 0.5 35.6 20.5 35.5 20.5-0.3 0.5-38.3-22.7-38.8-21.8-0.1 0.1 32.6 18.7 32.5 18.8-0.3 0.5-33.7-17.9-33.8-17.8-0.7 1.3 67.6 36.7 66.6 38.4-0.3 0.5-65.5-38-66.2-36.8-0.2 0.3 65 35.9 64.3 37.1-0.6 1-67.9-40.2-68.9-38.5 0 0 55.7 31.6 55.4 32-0.4 0.8-56.5-32.3-56.6-32.1-0.6 1.1 48.1 26.3 47.5 27.4-0.1 0.2-48.3-26.3-48.4-26.2-1.5 2.6 88.4 49.5 87.7 50.6-0.9 1.6-86.8-51.5-87.7-50-0.6 1.1 87.2 50.1 87.1 50.3-0.4 0.7-84.4-49.8-85.3-48.3-0.2 0.3 72.2 41.2 72 41.6-1.1 2-70.6-40.3-71-39.7-0.1 0.1 42.1 23.2 41.6 24-0.2 0.3-42.9-24-43.1-23.6-0.8 1.5 92.4 51.7 91.7 52.9-0.9 1.6-90.2-52-91.1-50.3-0.6 1.1 89.9 49.1 88.7 51.2-0.2 0.3-85.1-48.7-85.9-47.5-1.4 2.4 89.3 51 89 51.4-0.9 1.6-92-52.2-92.5-51.3-0.6 1.1 98.5 54.9 97.6 56.4-1.6 2.8-96.7-58.1-97.9-56-0.7 1.2 98.3 55.2 97.7 56.4-1.5 2.7-97.6-56.3-97.8-56.1-0.7 1.3 98.9 54 97.5 56.3-1.5 2.6-97.2-56.4-97.5-55.8-0.2 0.3 38.1 20.9 37.6 21.7"/>
			<path class="st4" d="m299.1 195.7c-0.3 0.5 37.5 21.4 37.4 21.6-0.5 0.9-44.6-24.9-45-24.1-0.6 1 60.4 34.1 60.1 34.7s-60.1-34.6-60.7-33.8c-0.3 0.5 60.8 33.8 60.3 34.8-0.2 0.4-59.4-35.7-60.3-34.2-0.7 1.3 60.7 33 59.8 34.5"/>
			<path class="st4" d="m300.5 191.4c-0.4 0.7 34.3 19.2 34 19.6s-37.6-22.1-38.2-21.1c-0.1 0.2 48.5 27.6 48.3 27.9-0.1 0.1-48.5-28.9-49.3-27.5-0.5 0.8 50.1 27.1 49.3 28.5-0.6 1.1-49.1-28.7-49.7-27.7-0.8 1.4 49.9 27.5 49.3 28.5-0.1 0.2-49-27.4-49.1-27.2-0.7 1.2 48.5 26.5 47.8 27.6-0.2 0.3-47.4-27.9-47.7-27.5-0.5 0.8 47.7 27.2 47.6 27.5"/>
			<path class="st4" d="m315 188.4c0 0.1 22.9 12.4 22.5 13-0.2 0.4-34-18.2-34.1-17.9 0 0 22 12.2 21.8 12.6-0.3 0.6-23.9-14-24.2-13.5l21 12.1s-23.5-12.5-23.9-11.9c-0.7 1.2 46.3 25.1 45.6 26.3s-45.5-26-45.8-25.5c-0.4 0.7 45.4 25.7 45.2 26.1-0.8 1.3-44.8-26.3-45.1-25.7-0.4 0.7 45.1 25 44.7 25.8-0.3 0.5-44.2-25.8-44.8-24.7-0.2 0.4 34.9 19.6 34.6 20-0.6 1-38.2-20.5-38.4-20-0.6 1 52 29.5 51.8 29.9-0.8 1.3-51.4-29.2-51.9-28.5-0.3 0.6 50.8 28.8 50.6 29.2"/>
			<path class="st4" d="m311.4 180.8c-0.2 0.4 35.1 19.9 35 20.2-0.1 0.1-39.4-22.8-39.8-22.2-0.3 0.6 30.7 17.2 30.5 17.6-0.3 0.5-31.1-17.9-31.1-17.8-0.2 0.3 29.8 16.7 29.6 17.1-0.3 0.5-31.8-18.2-32.1-17.5-0.1 0.2 42 23 41.4 23.9-0.5 0.9-41.1-24.6-41.5-23.9-0.3 0.5 42 23.2 41.5 24-0.6 1-41.4-24.5-41.8-23.8-0.3 0.6 42 23.8 41.8 24.2-0.7 1.2-42-24.1-42.1-23.9-0.6 1.1 42.1 24.1 42 24.3-0.2 0.3-42.2-23.5-42.3-23.4-0.5 0.8 42.5 22.9 41.8 24.1-0.3 0.5-41.2-24-41.6-23.3s40.7 23.5 40.7 23.5"/>
			<path class="st4" d="m328.4 183.9c-0.3 0.5 25.6 14.2 25.3 14.6-0.6 1-42.6-23.8-43.2-22.8-0.1 0.2 28.4 16.1 28.3 16.3-0.2 0.4-32.7-17.4-33-17-0.5 0.9 49.3 26.9 48.6 28 0 0.1-48.2-28.6-48.6-28-0.3 0.6 49.1 27.2 48.6 28.1s-48.2-27.9-48.8-26.8c-0.2 0.3 47.9 27.7 47.9 27.7"/>
			<path class="st4" d="m337.1 182c-0.4 0.8 27.6 15 27.2 15.7-0.3 0.5-37.4-20.6-37.5-20.5-0.4 0.7 29 16.6 28.9 16.7-0.1 0.2-44.3-25.5-45.1-24.2s46.5 26.5 46.3 26.8c-0.5 0.8-48-26.7-48.2-26.4-0.6 1 49 27.5 48.6 28.1-0.4 0.7-48.1-28.9-48.9-27.6 0 0 48.9 27.5 48.6 28.1-0.4 0.8-48.1-28.9-48.7-27.9-0.3 0.6 49 27.3 48.6 28-0.1 0.2-47.7-28.6-48.5-27.2-0.7 1.2 48.3 26.6 47.8 27.6"/>
			<path class="st4" d="m352.2 183.7c0 0.1 31.8 18.3 31.7 18.3-0.6 1-39.4-22.4-39.5-22.2 0 0.1 36.3 20.2 36 20.8-0.1 0.1-56-31.1-56.2-30.8-0.1 0.1 40.7 22.1 40.1 23.2-0.3 0.5-47.6-27.7-48.2-26.8-0.3 0.5 53.7 29.3 52.9 30.6-0.4 0.6-53.2-31.5-54.1-29.9-0.9 1.5 54.5 30.3 54 31.2-0.4 0.7-53.6-31.2-54.3-30-0.4 0.6 53.6 30.2 53.3 30.8-0.4 0.7-52.9-30.2-52.9-30.1-0.3 0.5 26.5 15.2 26.5 15.3"/>
			<path class="st4" d="m343.2 167.5c-0.4 0.7 48.9 27.2 48.4 28-0.9 1.6-62.3-36-63-34.9-0.7 1.2 42.8 23.3 42.2 24.4-0.6 1-43.3-25.3-43.9-24.2s66.6 35.8 65.5 37.8c-0.7 1.2-65-37.8-66-36.1-0.2 0.4 64.8 37.3 64.8 37.4-0.2 0.3-58.1-33-58.4-32.6-0.5 0.9 44.8 25.7 44.7 25.8-0.2 0.3-44.6-27.2-45.2-26.1-0.3 0.4 44.8 24.4 44.2 25.5-0.3 0.6-52.5-29.5-53.1-28.5-0.9 1.6 63.6 36.2 63.4 36.6-0.9 1.6-64.1-35.8-64.2-35.6-0.8 1.5 64.9 35.2 64 36.9-0.7 1.1-62.9-37.7-64-35.9-0.3 0.5 64.2 34.8 63.2 36.5"/>
			<path class="st4" d="m369.5 165.7c-0.7 1.1 40.3 23.3 40.3 23.3-1 1.8-65.6-38.2-66.7-36.2-0.6 1 41.9 23.9 41.7 24.1-0.3 0.6-43.5-25.3-43.8-24.7 0 0 34 19.5 33.9 19.6-0.5 0.9-34.7-19.5-34.7-19.4-0.1 0.2 66.9 37.9 66.6 38.5-1.1 1.9-66.5-38.8-67.1-37.8-0.5 0.8 67.5 37.4 66.9 38.6-1.1 2-65.8-39.5-67-37.5-0.3 0.6 66.4 37.7 66.1 38.2s-59.4-33.6-59.5-33.3c-0.1 0.1 55.9 31.4 55.5 32-0.5 0.8-62.9-34.7-63.1-34.3-0.4 0.6 69.5 38.8 68.9 39.8-1.1 1.9-68.5-37.6-68.6-37.4-0.6 1.1 67.3 36.3 66.2 38.2-0.3 0.6-71.4-38.9-71.4-38.9-1 1.7 66.9 38.1 66.6 38.5-0.1 0.1-66-40-67.1-38.2-0.8 1.4 67.1 38.6 67.1 38.7-0.9 1.5-66.5-39.8-67.4-38.3-0.8 1.3 67.4 38.3 67.2 38.8-0.5 0.9-66.5-38.7-67.2-37.4-0.2 0.4 66.4 37.7 66.1 38.2-0.5 0.9-65.4-38.9-66-37.9-0.6 1.1 65.9 37.4 65.6 37.9"/>
			<path class="st4" d="m370 159.9c-0.1 0.2 38.7 21.9 38.5 22.2-0.5 0.9-50.3-28.2-50.5-27.8s35.6 20.5 35.5 20.5c-0.1 0.2-36.9-22.4-37.5-21.3-0.2 0.3 33.7 18.8 33.4 19.3-0.3 0.4-37.3-20.8-37.8-19.9-0.4 0.7 61.1 35.1 61 35.2-0.8 1.4-60.4-36.4-61.1-35.2-0.2 0.4 62 33.5 61 35.2-0.9 1.5-61.3-34.5-61.4-34.4-0.3 0.5 61.9 33.6 61 35.2s-60.5-35.8-61-34.9c-0.6 1.1 61 34.8 60.8 35.1-0.9 1.5-59.7-36.3-60.7-34.6-0.3 0.6 60.4 34.4 60.2 34.8"/>
			<path class="st4" d="m380.7 160.3c-0.2 0.4 27 14.9 26.7 15.4-0.2 0.3-30.3-17.7-30.5-17.3-0.5 0.8 29.6 16 29.1 16.8 0 0-47.6-25.9-47.9-25.4-0.6 1.1 55.8 30.3 54.9 31.7-0.9 1.5-54.9-32.1-55.6-31-0.6 1 56.2 30.4 55.3 31.9-0.6 1-54.6-32.2-55.4-30.8-0.1 0.1 54.7 31 54.5 31.4"/>
			<path class="st4" d="m382.8 155.1c-0.2 0.4 17.3 9.4 17.1 9.8-0.4 0.7-25.7-13.9-26-13.3-0.2 0.3 17.6 9.6 17.4 10-0.3 0.5-22.3-11.6-22.6-11.1-0.7 1.2 42.1 23.8 41.9 24.2-0.3 0.5-41.6-24.7-42-24.1-0.6 1.1 42.5 23.3 41.9 24.2-0.4 0.6-42.2-23.8-42.2-23.8-0.6 1.1 42.5 23.5 42 24.3-0.4 0.7-42-23.7-42.2-23.4-0.1 0.2 41.7 23.8 41.5 24 0 0.1-41.4-24.2-41.5-23.9-0.4 0.7 42 23 41.5 23.9"/>
			<path class="st4" d="m380.9 150.6c-0.4 0.6 23.2 13.3 23.1 13.4-0.1 0.2-23.6-13.3-24-12.7-0.3 0.6 23.9 13.6 23.8 13.8-0.3 0.5-23.9-12.7-24-12.7 0 0.1 23.5 12.7 23.1 13.3"/>
		
	

</svg>
