<?xml version="1.0" encoding="utf-8"?>
<!-- Generator: Adobe Illustrator 22.0.1, SVG Export Plug-In . SVG Version: 6.00 Build 0)  -->
<svg version="1.1" baseProfile="tiny" xmlns="http://www.w3.org/2000/svg" xmlns:xlink="http://www.w3.org/1999/xlink" x="0px"
	 y="0px" viewBox="0 0 60 60" xml:space="preserve">
<g id="Layer_1" display="none">
	<g display="inline">
		<path fill="none" stroke="#000000" stroke-width="0.5509" stroke-linecap="round" stroke-linejoin="round" d="M-50.5,35.5
			c0,0.1,2.4-1.5,2.5-1.4c0,0.1-1.8,1.3-1.8,1.3c0,0.1,2.4-1.5,2.5-1.4c0,0-1,1.1-1,1.2c0,0.1,2.4-1.5,2.5-1.4c0,0-1.5,1.2-1.4,1.3
			c0,0.1,2.5-1.5,2.5-1.5c0,0-2,1.3-2,1.4c0,0.1,2.5-1.5,2.5-1.5c0,0-0.8,1.1-0.8,1.2c0,0.1,2.5-1.6,2.6-1.5c0,0-2.1,1.3-2.1,1.4
			c0,0.1,2.5-1.5,2.6-1.5c0,0-1,1.2-1,1.2c0,0.1,2.5-1.6,2.6-1.5c0,0-1.2,1.2-1.2,1.3c0,0.1,2.6-1.6,2.6-1.5c0,0.1-1.8,1.3-1.8,1.4
			c0,0.1,2.6-1.6,2.6-1.5c0,0-1.4,1.7-1.4,1.7c0,0,1.2-0.7,1.2-0.7c0,0.1-1.4,1.8-1.4,1.8c0,0,1.2-0.7,1.2-0.7c0,0-1.3,1.1-1.3,1.2
			c0,0,1.2-0.7,1.2-0.7c0,0.1-1.3,1.6-1.3,1.6c0,0,1.2-0.7,1.2-0.7c0,0-1.2,0.8-1.2,0.9c0,0,1.1-0.7,1.2-0.7c0,0-1.4,1.8-1.4,1.9
			c0,0,1.1-0.7,1.2-0.7c0,0-1.3,1.2-1.2,1.2c0,0,1.1-0.7,1.2-0.7c0,0-1.2,1-1.2,1c0,0,1.1-0.7,1.2-0.7c0,0.1-1.3,1.5-1.3,1.5
			c0,0,1.1-0.7,1.1-0.7c0,0-1.2,1.1-1.2,1.1c0,0,1.1-0.7,1.1-0.7c0,0-1.2,0.8-1.2,0.8c0,0,1.1-0.7,1.1-0.7c0,0-1.3,1.3-1.2,1.4
			c0,0,1.1-0.7,1.1-0.7c0,0-1.3,1.6-1.3,1.7c0,0,1.1-0.7,1.1-0.7c0,0-1.2,1-1.2,1c0,0,1.1-0.7,1.1-0.6c0,0-1.3,1.7-1.3,1.7
			c0,0,1.1-0.7,1.1-0.6c0,0-1.1,0.7-1.1,0.8c0,0,1.1-0.7,1.1-0.6c0,0-1.2,1.2-1.2,1.2c0,0,1.1-0.7,1.1-0.6c0,0.1-1.3,1.4-1.2,1.5
			c0,0,1.1-0.7,1.1-0.6c0,0-1.1,0.6-1.1,0.7c0,0,1.1-0.7,1.1-0.6"/>
		<path fill="none" stroke="#000000" stroke-width="0.5509" stroke-linecap="round" stroke-linejoin="round" d="M-44.4,43.8
			c0,0,0.9-0.6,0.9-0.5c0,0-0.1,1.3-0.1,1.3c0,0,0.9-0.6,0.9-0.5c0,0-0.6,0.8-0.6,0.9c0,0,0.9-0.6,0.9-0.5c0,0-0.8,0.6-0.8,0.6
			c0,0,0.9-0.6,0.9-0.5c0,0-0.5,0.9-0.5,0.9c0,0,0.9-0.6,0.9-0.5c0,0-0.9,0.5-0.9,0.6c0,0,0.9-0.6,0.9-0.5c0,0-0.1,1.3-0.1,1.3
			c0,0,1.4-0.8,1.4-0.8c0,0-1.2,1-1.2,1c0,0,1.1-0.7,1.1-0.6c0,0-0.9,0.8-0.9,0.8c0,0,0.8-0.5,0.9-0.5c0,0-0.3,1-0.3,1
			c0,0,0.1-0.1,0.1-0.1"/>
		<path fill="none" stroke="#000000" stroke-width="0.5509" stroke-linecap="round" stroke-linejoin="round" d="M-44.8,42.6
			c0,0,0.5-0.3,0.5-0.3c0.1,0.1-2.9,2.5-2.8,2.6c0.1,0.1,3.4-2.1,3.5-2c0.1,0.1-4.5,2.9-4.4,3c0.1,0.1,3.4-2.1,3.4-2
			c0.1,0.2-6.4,4.6-6.2,4.8c0.1,0.1,3.4-2.1,3.4-2c0.1,0.2-5.9,4.1-5.7,4.3c0.1,0.1,3.4-2.1,3.4-2c0.1,0.1-5.1,3.4-5,3.5
			c0,0.1,3.4-2.1,3.4-2c0.1,0.2-6,4.2-5.9,4.4c0.1,0.1,3.4-2.1,3.4-2"/>
		<path fill="none" stroke="#000000" stroke-width="0.5509" stroke-linecap="round" stroke-linejoin="round" d="M-53.1,35
			c0,0,0.3-0.2,0.3-0.2c0,0,0,0.4,0,0.5c0,0,1.1-0.7,1.1-0.7c0,0-1,0.8-1,0.8c0,0,1.5-1,1.6-0.9c0,0-1.2,1.3-1.1,1.4
			c0.1,0.1,2.8-1.8,2.8-1.6c0.1,0.1-2.6,1.9-2.5,2c0,0,0.9-0.5,0.9-0.5c0,0-0.5,0.9-0.5,0.9c0,0,0.9-0.5,0.9-0.5
			c0,0-0.5,0.9-0.5,0.9c0,0,0.9-0.6,0.9-0.5c0,0-0.4,1-0.4,1c0,0,0.9-0.5,0.9-0.5c0,0-0.4,1-0.4,1c0,0,0.9-0.5,0.9-0.5
			c0,0-0.7,0.8-0.7,0.8c0,0,0.9-0.6,0.9-0.5c0.1,0.1-2.4,2.5-2.4,2.5c0.1,0.1,3.1-1.9,3.1-1.8c0.1,0.2-6.1,4.5-6,4.7
			c0.1,0.1,3.4-2.1,3.5-2c0.1,0.1-5.8,4-5.7,4.3c0,0.1,3.4-2.1,3.5-2c0.1,0.2-6.3,4.7-6.2,4.8c0.1,0.1,3.4-2.1,3.5-2
			c0.1,0.2-4.1,2.5-4,2.6c0,0.1,3.4-2.1,3.5-2c0.1,0.1-3.5,2-3.5,2c0.1,0.1,3.4-2.1,3.5-2c0.1,0.1-5.6,3.8-5.4,4
			c0.1,0.1,3.4-2.1,3.5-2c0.1,0.2-4,3.3-4,3.4c0,0,1.3-0.8,1.3-0.8c0,0-0.9,1.2-0.9,1.2c0,0,0.9-0.6,0.9-0.5c0,0-0.7,0.8-0.7,0.8
			c0,0,0.9-0.6,0.9-0.5c0,0-0.9,0.6-0.8,0.6c0,0,0.9-0.6,0.9-0.5c0,0-0.2,1.2-0.2,1.3c0,0,0.9-0.6,0.9-0.5c0,0-0.9,0.6-0.8,0.6
			c0,0,0.9-0.6,0.9-0.5c0,0-0.6,0.8-0.6,0.8c0,0,0.9-0.6,0.9-0.5c0,0-0.4,1.1-0.4,1.1c0,0,0.9-0.6,0.9-0.5c0,0-0.7,0.7-0.7,0.8
			c0,0,0.9-0.6,0.9-0.5c0,0-0.6,0.8-0.6,0.9c0,0,0.9-0.5,0.9-0.5c0,0-0.9,0.6-0.9,0.6c0,0,0.9-0.6,0.9-0.5c0,0-0.6,0.8-0.6,0.8
			c0,0,0.9-0.6,0.9-0.5c0,0-0.7,0.7-0.7,0.7c0,0,0.9-0.6,0.9-0.5c0,0-0.7,0.7-0.7,0.7c0.1,0.1,4-2.5,4.1-2.4c0.1,0.1-4,2.5-3.9,2.6
			c0,0.1,3-1.8,3-1.8c0,0.1-2.8,2-2.7,2.1c0,0.1,1.5-0.9,1.5-0.9c0,0.1-1.5,0.9-1.5,0.9c0,0,1.2-0.8,1.3-0.7c0,0-1.1,0.9-1.1,0.9
			c0,0,0.5-0.3,0.5-0.3"/>
	</g>
	<path display="inline" d="M-37.9,4.7c0-0.2-0.2-0.3-0.3-0.3c-3.8,1.4-7.4,3.1-11.2,4.5c-0.1,0-0.1,0.1-0.1,0.1
		c-0.1,0.1-0.1,0.1-0.1,0.2c0,0,0,0,0,0c0,0,0,0.1,0.1,0.1c0.6,0.6,1.3,1.3,2,1.9c0.3,0.3,0.8,0.6,0.7,1.1c0,0,0,0.1-0.1,0.1
		c-0.5,0.6-1.4,1.2-1.9,1.7c-2.9,2.6-5.8,5.1-8.8,7.5c-0.1,0.1-0.1,0.2-0.1,0.3c0,0.1,0,0.1,0,0.2c0,0.1,0.1,0.2,0.1,0.3
		c0,0.1,0.1,0.1,0.1,0.1c0,0,0,0,0,0c1.4,1.1,3,1.9,4.4,3c0.1,0.1,0.2,0.1,0.2,0.1c0.1,0,0.1-0.1,0.2-0.1c1.2-1.6,2.6-3.1,4-4.6
		c0.8-0.8,1.6-1.7,2.4-2.5c0.9-1,1.8-2.4,2.9-3.2c0.7-0.5,1.1,0,1.8,0.4c0.8,0.5,1.5,1,2.2,1.6c0.1,0.1,0.4,0.1,0.5-0.1
		c0.4-1.5,0.6-3,0.7-4.6C-38.1,10.1-38,7.4-37.9,4.7z M-39.5,16.2c-1.1-0.9-2.4-1.4-3.7-2.2c-0.1-0.1-0.3,0-0.3,0
		c-1.7,1.9-3.1,3.9-4.8,5.8c-0.1,0.1-0.2,0.2-0.3,0.3c-1.5,1.6-3,3.2-4.3,4.9c-1.3-1.1-2.6-2.1-3.9-3.2c0.6-0.6,2-1.6,2.4-1.9
		c0.9-0.8,1.9-1.6,2.8-2.4c1.9-1.7,3.8-3.5,5.7-5.3c0,0,0,0,0,0c0.1-0.1,0.2-0.2,0.3-0.3c0.1-0.1,0.1-0.3,0-0.4
		c-0.8-0.9-1.9-1.5-2.8-2.3c1.2-0.1,2.4-0.7,3.4-1.1c2.2-0.9,4.4-1.8,6.6-2.7c-0.1,1.7-0.3,3.4-0.3,5.1c0,1.1-0.1,2.1-0.2,3.2
		C-39.2,14.7-39.4,15.4-39.5,16.2z"/>
	<g display="inline">
		<g>
			<path d="M-40.3,15.7c0.2-3.3,0.5-6.5,0.9-9.8c0-0.4-0.5-0.3-0.6,0c-0.4,3.2-0.7,6.5-0.9,9.8C-40.8,16.1-40.3,16.1-40.3,15.7
				L-40.3,15.7z"/>
		</g>
		<g>
			<path d="M-41.9,14.9C-41.4,12-41.1,9-41,6.1c0-0.4-0.5-0.4-0.6,0c-0.1,2.9-0.4,5.8-0.9,8.7C-42.5,15.1-42,15.2-41.9,14.9
				L-41.9,14.9z"/>
		</g>
		<g>
			<path d="M-43.2,14.5c0.2-2.4,0.4-4.9,0.7-7.3c0-0.4-0.5-0.3-0.6,0c-0.3,2.4-0.5,4.9-0.7,7.3C-43.8,14.9-43.2,14.9-43.2,14.5
				L-43.2,14.5z"/>
		</g>
		<g>
			<path d="M-44.9,7.8c-0.3,3-0.5,6-0.8,9c0,0.4,0.5,0.4,0.6,0c0.3-3,0.5-6,0.8-9C-44.4,7.4-44.9,7.4-44.9,7.8L-44.9,7.8z"/>
		</g>
		<g>
			<path d="M-47.2,9c0,0.6-0.1,1.1-0.2,1.7c-0.1,0.3,0.4,0.5,0.5,0.1c0.2-0.6,0.2-1.2,0.2-1.9C-46.7,8.6-47.2,8.6-47.2,9L-47.2,9z"
				/>
		</g>
		<g>
			<path d="M-47.6,13.3c-0.2,2.1-0.4,4.3-0.6,6.4c0,0.4,0.5,0.4,0.6,0c0.2-2.1,0.4-4.3,0.6-6.4C-47.1,13-47.6,13-47.6,13.3
				L-47.6,13.3z"/>
		</g>
		<g>
			<path d="M-49.9,15.4c-0.2,2.3-0.5,4.7-0.8,7c-0.1,0.3,0.5,0.5,0.5,0.1c0.4-2.4,0.6-4.8,0.8-7.2C-49.4,15.1-49.9,15.1-49.9,15.4
				L-49.9,15.4z"/>
		</g>
		<g>
			<path d="M-52.5,17.6c-0.3,2.6-0.6,5.1-0.8,7.7c0,0.4,0.5,0.3,0.6,0c0.3-2.6,0.6-5.1,0.8-7.7C-51.9,17.2-52.4,17.2-52.5,17.6
				L-52.5,17.6z"/>
		</g>
		<g>
			<path d="M-55,19.7c-0.3,1.3-0.5,2.6-0.6,4c0,0.4,0.5,0.4,0.6,0c0.1-1.3,0.2-2.5,0.6-3.8C-54.4,19.5-54.9,19.4-55,19.7L-55,19.7z"
				/>
		</g>
	</g>
	<g display="inline">
		<path d="M-57.6,22.3c0,1-0.5,2.5,0.3,3.2c0.6,0.6,1.5,1,2.2,1.4c0.8,0.5,1.5,1,2.3,1.5c0.3,0.2,0.6-0.3,0.3-0.5
			c-1.1-0.7-2.2-1.4-3.3-2.1c-0.7-0.4-1.2-0.7-1.4-1.6c-0.1-0.6,0.1-1.3,0.1-1.9C-57.1,21.9-57.6,21.9-57.6,22.3L-57.6,22.3z"/>
	</g>
	<g display="inline">
		<path d="M-53,25.5c0.1,0.8,0.2,1.7,0.3,2.5c0,0.3,0.6,0.4,0.6,0c-0.1-0.9-0.2-1.8-0.3-2.6C-52.6,25-53.1,25.2-53,25.5L-53,25.5z"
			/>
	</g>
	<g display="inline">
		<path d="M-52.1,28.2c0.7-1.1,1.9-1.9,2.8-2.9c1.2-1.4,2.2-2.9,3.4-4.2c0.7-0.8,2.3-1.9,2.7-2.9c0.4-0.9,0.1-2.2,0-3.1
			c0-0.4-0.6-0.4-0.6,0c0.1,2.2-0.1,3.1-1.7,4.6c-1,1.1-2,2.2-3,3.4c-0.7,0.9-1.4,1.9-2.2,2.7c-0.7,0.7-1.5,1.3-2.1,2.2
			C-52.8,28.2-52.3,28.5-52.1,28.2L-52.1,28.2z"/>
	</g>
	<g display="inline">
		<path d="M-43.3,18.2c1.4,0.6,2.9,1.1,4.1,2.2c0.2,0.1,0.5,0.1,0.5-0.2c0-1.1,0-2.3-0.1-3.4c0-0.4-0.6-0.4-0.6,0
			c0.1,1.1,0.1,2.3,0.1,3.4c0.2-0.1,0.3-0.1,0.5-0.2c-1.2-1.1-2.7-1.6-4.2-2.2C-43.4,17.6-43.7,18.1-43.3,18.2L-43.3,18.2z"/>
	</g>
	<g display="inline">
		<path d="M-38.2,4.8c0.2,0.8,0.4,1.5,0.5,2.3c0.2,0.7,0.6,1.8,0.5,2.6c-0.1,0.3,0.5,0.5,0.5,0.1c0.1-0.7-0.1-1.4-0.3-2.1
			c-0.2-1-0.5-2-0.7-3C-37.7,4.3-38.2,4.5-38.2,4.8L-38.2,4.8z"/>
	</g>
	<g display="inline">
		<path d="M-37.2,9.9c-0.2,3.5-0.9,7-2,10.3c-0.1,0.3,0.4,0.5,0.5,0.1c1.2-3.4,1.8-6.9,2.1-10.5C-36.6,9.6-37.2,9.6-37.2,9.9
			L-37.2,9.9z"/>
	</g>
	<g display="inline">
		<path d="M-49.6,9.4c-0.1,0.9-0.1,1.9,0.1,2.8c0.2,0.8,0.9,1,1.6,1.3c0.3,0.2,0.6-0.3,0.3-0.5c-0.3-0.2-0.7-0.3-1-0.5
			c-0.4-0.2-0.3-0.3-0.4-0.7c-0.1-0.8-0.1-1.6-0.1-2.4C-49.1,9.1-49.6,9.1-49.6,9.4L-49.6,9.4z"/>
	</g>
	<g display="inline">
		<path d="M-57.1,23.2c0,0.6,0.1,1.3,0.1,1.9c0,0.4,0.6,0.4,0.6,0c0-0.6-0.1-1.3-0.1-1.9C-56.5,22.9-57.1,22.9-57.1,23.2L-57.1,23.2
			z"/>
	</g>
	<g display="inline">
		<path d="M-56,23.7c0,0.7,0.1,1.4,0.1,2.2c0,0.4,0.6,0.4,0.6,0c0-0.7-0.1-1.4-0.1-2.2C-55.5,23.3-56,23.3-56,23.7L-56,23.7z"/>
	</g>
	<g display="inline">
		<path d="M-55.3,24.4c0.1,0.6,0.2,1.3,0.3,1.9c0,0.3,0.6,0.4,0.6,0c-0.1-0.7-0.2-1.4-0.3-2C-54.8,23.9-55.4,24.1-55.3,24.4
			L-55.3,24.4z"/>
	</g>
	<g display="inline">
		<path d="M-54.4,24.9c0.1,0.7,0.2,1.3,0.4,2c0.1,0.3,0.6,0.2,0.5-0.1c-0.2-0.6-0.3-1.3-0.4-2C-54,24.5-54.5,24.6-54.4,24.9
			L-54.4,24.9z"/>
	</g>
	<g display="inline">
		<path d="M-53.4,25.6c0.1,0.6,0.1,1.1,0.2,1.7c0,0.3,0.6,0.4,0.6,0c-0.1-0.6-0.1-1.1-0.2-1.7C-52.9,25.3-53.5,25.3-53.4,25.6
			L-53.4,25.6z"/>
	</g>
	<g display="inline">
		<path d="M-52.3,24.8c0.1,0.8,0.3,1.6,0.3,2.4c0.2,0,0.4,0,0.6,0c0-0.3-0.2-0.6-0.2-0.8c0-0.4-0.6-0.4-0.6,0c0,0.3,0.2,0.6,0.2,0.8
			c0,0.4,0.6,0.4,0.6,0c0-0.8-0.2-1.6-0.3-2.4C-51.8,24.4-52.3,24.4-52.3,24.8L-52.3,24.8z"/>
	</g>
	<g display="inline">
		<path d="M-51.5,23.6c0,0.9,0.3,1.8,0.3,2.7c0,0.4,0.6,0.4,0.6,0c-0.1-0.9-0.3-1.8-0.3-2.7C-50.9,23.3-51.5,23.3-51.5,23.6
			L-51.5,23.6z"/>
	</g>
	<g display="inline">
		<path d="M-50.6,22.9c0.1,0.9,0.2,1.8,0.3,2.7c0.1,0.3,0.6,0.2,0.5-0.1c-0.1-0.9-0.2-1.8-0.3-2.7C-50.1,22.4-50.7,22.5-50.6,22.9
			L-50.6,22.9z"/>
	</g>
	<g display="inline">
		<path d="M-49.1,22.3c0-0.1,0-0.3,0-0.4c-0.2,0-0.4,0-0.5,0.1c0.1,0.6,0.2,1.3,0.3,1.9c0.1,0.3,0.6,0.2,0.5-0.1
			c-0.1-0.6-0.2-1.3-0.3-1.9c-0.1-0.3-0.5-0.2-0.5,0.1c0,0.1,0,0.3,0,0.4C-49.6,22.6-49,22.7-49.1,22.3L-49.1,22.3z"/>
	</g>
	<g display="inline">
		<path d="M-48.9,21.4c0.1,0.6,0.1,1.1,0.2,1.7c0,0.2,0.4,0.4,0.5,0.1c0.1-0.1,0.1-0.3,0.1-0.4c0.1-0.3-0.5-0.5-0.5-0.1
			c0,0.1,0,0.2-0.1,0.3c0.2,0,0.3,0.1,0.5,0.1c-0.1-0.6-0.1-1.1-0.2-1.7C-48.4,21-48.9,21-48.9,21.4L-48.9,21.4z"/>
	</g>
	<g display="inline">
		<path d="M-48.1,20.3c0.1,0.6,0.2,1.2,0.3,1.7c0,0.2,0.3,0.3,0.5,0.1c0,0,0,0,0.1-0.1c0.2-0.3-0.2-0.7-0.4-0.4c0,0,0,0-0.1,0.1
			c0.2,0,0.3,0.1,0.5,0.1c-0.1-0.6-0.2-1.2-0.3-1.7C-47.6,19.8-48.1,19.9-48.1,20.3L-48.1,20.3z"/>
	</g>
	<g display="inline">
		<path d="M-47.2,19.1c0,0.5,0.1,1.1,0.2,1.6c0.1,0.3,0.6,0.2,0.5-0.1c-0.1-0.5-0.2-1-0.2-1.5C-46.6,18.7-47.2,18.7-47.2,19.1
			L-47.2,19.1z"/>
	</g>
	<g display="inline">
		<path d="M-46.2,18.5c0,0.6,0.1,1.1,0.2,1.6c0.1,0.3,0.6,0.2,0.5-0.1c-0.1-0.5-0.2-1-0.2-1.5C-45.6,18.2-46.2,18.2-46.2,18.5
			L-46.2,18.5z"/>
	</g>
	<g display="inline">
		<path d="M-45.3,17.8c0,0.5,0.1,1,0.1,1.5c0.1,0.3,0.6,0.2,0.5-0.1c-0.1-0.4-0.1-0.9-0.1-1.3C-44.8,17.4-45.3,17.4-45.3,17.8
			L-45.3,17.8z"/>
	</g>
	<g display="inline">
		<path d="M-44.4,16.7c0,0.5,0.1,1,0.2,1.6c0.1,0.3,0.6,0.2,0.5-0.1c-0.1-0.5-0.1-0.9-0.2-1.4C-43.9,16.3-44.4,16.3-44.4,16.7
			L-44.4,16.7z"/>
	</g>
	<g display="inline">
		<path d="M-43.8,15.7c0,0.5,0.1,1,0.2,1.4c0.1,0.3,0.6,0.2,0.5-0.1c-0.1-0.4-0.1-0.9-0.2-1.3C-43.2,15.3-43.8,15.3-43.8,15.7
			L-43.8,15.7z"/>
	</g>
	<g display="inline">
		<path d="M-42.9,16c0,0.8,0.1,1.6,0.1,2.4c0,0.3,0.5,0.4,0.5,0.1c0-0.2,0-0.3,0.1-0.5c0.1-0.3-0.5-0.5-0.5-0.1c0,0.2,0,0.3-0.1,0.5
			c0.2,0,0.4,0,0.5,0.1c0-0.8-0.1-1.6-0.1-2.4C-42.3,15.6-42.9,15.6-42.9,16L-42.9,16z"/>
	</g>
	<g display="inline">
		<path d="M-42.4,15.6c0,0.5,0.1,1,0.1,1.5c0.1,0.4,0,1,0.3,1.3c0.1,0.1,0.3,0.2,0.4,0.1c0,0,0,0,0,0c0.1-0.1,0.1-0.3,0-0.4
			c0,0,0,0,0,0c-0.2-0.3-0.6,0.1-0.4,0.4c0,0,0,0,0,0c0-0.1,0-0.3,0-0.4c0,0,0,0,0,0c0.1,0,0.3,0,0.4,0.1c-0.2-0.3-0.2-1-0.2-1.3
			c0-0.4-0.1-0.8-0.1-1.2C-41.9,15.3-42.4,15.3-42.4,15.6L-42.4,15.6z"/>
	</g>
	<g display="inline">
		<path d="M-41.5,16.9c0.1,0.6,0.2,1.1,0.3,1.7c0.1,0.2,0.4,0.3,0.5,0.1c0.1-0.1,0.1-0.3,0.1-0.4c0.1-0.3-0.5-0.5-0.5-0.1
			c0,0.1,0,0.2-0.1,0.3c0.2,0,0.3,0,0.5,0.1c-0.1-0.6-0.2-1.1-0.3-1.7C-41,16.4-41.6,16.6-41.5,16.9L-41.5,16.9z"/>
	</g>
	<g display="inline">
		<path d="M-40.7,17c0.1,0.4,0.2,0.9,0.3,1.3c0.1,0.3,0.6,0.2,0.5-0.1c-0.1-0.4-0.2-0.9-0.3-1.3C-40.3,16.5-40.8,16.7-40.7,17
			L-40.7,17z"/>
	</g>
	<g display="inline">
		<path d="M-39.8,17.3c0,0.6,0.2,1.2,0.3,1.8c0.1,0.3,0.6,0.2,0.5-0.1c-0.2-0.5-0.3-1.1-0.3-1.7C-39.3,16.9-39.8,16.9-39.8,17.3
			L-39.8,17.3z"/>
	</g>
	<g display="inline">
		<path d="M-38.9,16.4c0.1,0.6,0.1,1.2,0.2,1.8c0,0.2,0.4,0.4,0.5,0.1c0,0,0-0.1,0.1-0.1c0.1-0.3-0.3-0.6-0.5-0.3c0,0,0,0.1-0.1,0.1
			c0.2,0,0.3,0.1,0.5,0.1c-0.1-0.6-0.1-1.2-0.2-1.8C-38.4,16-38.9,16-38.9,16.4L-38.9,16.4z"/>
	</g>
	<g display="inline">
		<path d="M-38.4,14.2c0,0.9,0,1.7,0.1,2.6c0,0.4,0.5,0.4,0.6,0c0-0.2,0-0.4,0-0.6c0-0.4-0.5-0.4-0.6,0c0,0.2,0,0.4,0,0.6
			c0.2,0,0.4,0,0.6,0c-0.1-0.9-0.1-1.7-0.1-2.6C-37.8,13.8-38.4,13.8-38.4,14.2L-38.4,14.2z"/>
	</g>
	<g display="inline">
		<path d="M-38.4,12.3c0,0.6,0.1,1.3,0.3,1.9c0.1,0.3,0.5,0.3,0.5,0c0.1-0.4,0.1-0.7,0-1c-0.1-0.3-0.6-0.2-0.5,0.1
			c0.1,0.3,0.1,0.5,0,0.7c0.2,0,0.4,0,0.5,0c-0.1-0.6-0.2-1.2-0.3-1.8C-37.9,12-38.4,12-38.4,12.3L-38.4,12.3z"/>
	</g>
	<g display="inline">
		<path d="M-38.2,10.5c0.1,0.8,0.3,1.6,0.4,2.4c0.1,0.3,0.5,0.2,0.5-0.1c0-0.3,0-0.6,0-0.9c-0.1-0.3-0.6-0.2-0.5,0.1
			c0,0.2,0,0.5,0,0.7c0.2,0,0.4,0,0.5-0.1c-0.1-0.8-0.3-1.6-0.4-2.4C-37.8,10-38.3,10.2-38.2,10.5L-38.2,10.5z"/>
	</g>
	<g display="inline">
		<path d="M-38,9.5c0.1,0.6,0.2,1.2,0.3,1.7c0.1,0.3,0.5,0.3,0.5,0c0,0,0-0.1,0-0.1c0.1-0.3-0.4-0.5-0.5-0.1c0,0,0,0.1,0,0.1
			c0.2,0,0.4,0,0.5,0c-0.1-0.5-0.2-1-0.3-1.6C-37.5,9.1-38.1,9.1-38,9.5L-38,9.5z"/>
	</g>
	<g display="inline">
		<path d="M-38.1,7.4c0,0.3,0.1,0.6,0.3,0.9c0.2,0.3,0.7,0,0.5-0.3c-0.1-0.2-0.2-0.4-0.2-0.7C-37.6,7.1-38.2,7-38.1,7.4L-38.1,7.4z"
			/>
	</g>
	<g display="inline">
		<path d="M-37.4,6.8c0,0.2,0.1,0.4,0.2,0.6c0.1,0.3,0.6,0,0.5-0.3c-0.1-0.1-0.1-0.3-0.1-0.4C-37,6.3-37.5,6.5-37.4,6.8L-37.4,6.8z"
			/>
	</g>
	<g display="inline">
		<path d="M-48.8,10.2c0,0.7,0.1,1.4,0.1,2.2c0,0.4,0.6,0.4,0.6,0c0-0.7-0.1-1.4-0.1-2.2C-48.3,9.9-48.8,9.9-48.8,10.2L-48.8,10.2z"
			/>
	</g>
	<g display="inline">
		<path d="M-47.7,10.9c0,0.7,0,1.3,0,2c0,0.4,0.6,0.4,0.6,0c0-0.7-0.1-1.3,0-2C-47.1,10.6-47.7,10.6-47.7,10.9L-47.7,10.9z"/>
	</g>
</g>
<g id="Layer_2">
	<g id="Arrow" display="none">
		<g id="Select" display="inline">
			<path d="M44.7,10.8c0-0.3-0.3-0.6-0.6-0.5c-6.4,2.4-12.6,5.2-19,7.6c-0.1,0-0.2,0.1-0.2,0.2c-0.1,0.1-0.1,0.2-0.1,0.4
				c0,0,0,0,0,0c0,0.1,0.1,0.1,0.1,0.2c1.1,1.1,2.2,2.2,3.4,3.3c0.6,0.6,1.3,1.1,1.2,1.8c0,0.1-0.1,0.2-0.1,0.2
				c-0.9,1-2.4,2.1-3.3,2.9c-4.9,4.4-9.9,8.7-15.1,12.7c-0.2,0.1-0.2,0.3-0.1,0.5c0,0.1,0,0.2,0,0.3c0.1,0.2,0.1,0.4,0.2,0.5
				c0,0.1,0.1,0.2,0.2,0.2c0,0,0,0,0,0c2.5,1.8,5.2,3.2,7.5,5.2c0.1,0.1,0.3,0.1,0.4,0.1c0.1,0,0.2-0.1,0.3-0.2
				c2-2.8,4.4-5.3,6.7-7.8c1.4-1.4,2.7-2.8,4.1-4.3c1.5-1.7,3-4.1,4.9-5.4c1.1-0.8,1.9,0.1,3,0.8c1.3,0.8,2.6,1.7,3.7,2.7
				c0.3,0.2,0.7,0.1,0.8-0.2c0.6-2.5,1-5.1,1.2-7.8C44.3,19.9,44.4,15.3,44.7,10.8z M41.8,30.3c-1.9-1.5-4.1-2.4-6.2-3.7
				c-0.2-0.1-0.4-0.1-0.6,0.1c-2.9,3.2-5.3,6.7-8.2,9.9c-0.2,0.2-0.3,0.3-0.5,0.5c-2.6,2.7-5.2,5.4-7.4,8.4
				c-2.2-1.9-4.4-3.7-6.7-5.4c1-1.1,3.5-2.7,4-3.2c1.6-1.3,3.1-2.7,4.7-4c3.3-2.9,6.5-5.9,9.6-8.9c0,0,0,0,0,0
				c0.1-0.1,0.3-0.3,0.5-0.4c0.2-0.2,0.2-0.5,0-0.7c-1.4-1.5-3.2-2.6-4.7-3.9c2-0.2,4.1-1.2,5.8-1.8c3.8-1.5,7.5-3.1,11.3-4.6
				c-0.2,2.9-0.4,5.7-0.5,8.6c-0.1,1.8-0.1,3.6-0.3,5.4C42.4,27.7,42.1,29,41.8,30.3z"/>
			<g>
				<g>
					<path d="M43.9,11.1c0.6,4.3,1.4,9.1,0.7,13.4C44,28.3,43.5,32.1,43,36c0.2-0.1,0.5-0.2,0.7-0.3c-2.2-1.7-4.7-2.9-7.2-4.2
						c-0.2-0.1-0.4-0.1-0.6,0.1c-2.5,2.7-4.9,5.4-7.3,8.2c-2,2.3-4.4,4.3-6.3,6.8c-0.6,0.7-1.1,1.4-1.7,2.1c-0.8,0.8-0.8,1-1.8,0.6
						c-1.3-0.6-2.7-1.9-3.8-2.8c-0.8-0.6-1.9-1.3-2.6-2c-0.9-1.1-0.6-2.8-0.7-4.3c-0.1-0.6-1-0.6-0.9,0c0.1,1.2-0.2,3.3,0.3,4.4
						c0.2,0.5,1.2,1,1.6,1.3c2.2,1.7,4.4,3.5,6.7,4.9c0.2,0.1,0.4,0.1,0.6-0.1c1.7-1.8,3.2-3.8,4.9-5.6c1.9-2,3.9-3.9,5.6-6
						c1.5-2,3.3-4.3,5.3-5.9c1.2-0.9,2.4,0.1,3.6,0.8c1.3,0.7,2.6,1.5,3.8,2.5c0.2,0.2,0.6,0,0.7-0.3c0.6-4.2,1.4-8.4,1.8-12.6
						c0.4-4.2-0.3-8.7-0.9-12.8C44.7,10.3,43.8,10.5,43.9,11.1L43.9,11.1z"/>
				</g>
			</g>
			<g>
				<g>
					<g>
						<path d="M18.6,46c0.1,1.3,0.3,2.6,0.4,3.9c0.1,0.6,1,0.6,0.9,0c-0.1-1.3-0.3-2.6-0.4-3.9C19.5,45.4,18.5,45.4,18.6,46L18.6,46
							z"/>
					</g>
				</g>
				<g>
					<g>
						<path d="M15.7,44c0.1,1.4,0.2,2.7,0.4,4.1c0.1,0.6,1,0.6,0.9,0c-0.2-1.4-0.3-2.7-0.4-4.1C16.6,43.4,15.6,43.4,15.7,44L15.7,44
							z"/>
					</g>
				</g>
				<g>
					<g>
						<path d="M13.3,42.2c-0.1,1.2,0,2.5,0.1,3.7c0.1,0.6,1,0.6,0.9,0c-0.1-1.2-0.2-2.5-0.1-3.7C14.2,41.6,13.3,41.6,13.3,42.2
							L13.3,42.2z"/>
					</g>
				</g>
				<g>
					<g>
						<path d="M20.8,43.5c0.1,1.4,0.2,2.9,0.4,4.3c0.1,0.6,1,0.6,0.9,0c-0.2-1.4-0.3-2.9-0.4-4.3C21.7,42.9,20.7,42.9,20.8,43.5
							L20.8,43.5z"/>
					</g>
				</g>
				<g>
					<g>
						<path d="M22.9,41.2c0.2,1.3,0.4,2.5,0.5,3.8c0.1,0.6,1,0.6,0.9,0c-0.1-1.4-0.3-2.7-0.6-4C23.7,40.4,22.8,40.6,22.9,41.2
							L22.9,41.2z"/>
					</g>
				</g>
				<g>
					<g>
						<path d="M25.2,38.7c0.3,1.3,0.5,2.7,0.5,4c0,0.6,1,0.6,0.9,0c-0.1-1.4-0.3-2.9-0.6-4.3C26,37.8,25.1,38.1,25.2,38.7L25.2,38.7
							z"/>
					</g>
				</g>
				<g>
					<g>
						<path d="M27.4,36.4c0.3,1.3,0.5,2.6,0.7,3.9c0.1,0.6,1,0.3,0.9-0.2c-0.2-1.3-0.4-2.6-0.7-3.9C28.2,35.5,27.2,35.8,27.4,36.4
							L27.4,36.4z"/>
					</g>
				</g>
				<g>
					<g>
						<path d="M29.5,33.8c0,0.6,0.3,1.1,0.4,1.7c0.2,0.7,0.3,1.5,0.3,2.3c0,0.6,0.9,0.6,0.9,0c0-0.7,0-1.3-0.2-2
							c-0.1-0.7-0.5-1.3-0.5-2C30.4,33.2,29.4,33.2,29.5,33.8L29.5,33.8z"/>
					</g>
				</g>
				<g>
					<g>
						<path d="M31.8,31.1c-0.1,1.3,0.5,2.5,0.5,3.8c0,0.6,0.9,0.6,0.9,0c0-1.3-0.6-2.5-0.5-3.8C32.8,30.5,31.9,30.5,31.8,31.1
							L31.8,31.1z"/>
					</g>
				</g>
				<g>
					<g>
						<path d="M34.9,27.8c-0.2,1.4,0.3,3,0.5,4.4c0.1,0.6,1,0.3,0.9-0.2c-0.2-1.2-0.7-2.6-0.5-3.9C35.9,27.5,35,27.2,34.9,27.8
							L34.9,27.8z"/>
					</g>
				</g>
				<g>
					<g>
						<path d="M38,29.3c0.2,1.3,0.3,2.6,0.6,3.8c0.1,0.6,1,0.3,0.9-0.2c-0.2-1.2-0.4-2.4-0.5-3.6C38.8,28.7,37.9,28.7,38,29.3
							L38,29.3z"/>
					</g>
				</g>
				<g>
					<g>
						<path d="M41.6,31.6c0.2,1.3,0.5,2.6,0.8,3.9c0.2,0.6,1.1,0.3,0.9-0.2c-0.4-1.3-0.7-2.6-0.8-3.9C42.4,30.7,41.5,31,41.6,31.6
							L41.6,31.6z"/>
					</g>
				</g>
				<g>
					<g>
						<path d="M42.6,28.3c0.1,1.2,0.7,2.2,0.8,3.4c0.1,0.6,1,0.6,0.9,0c-0.1-1.2-0.8-2.2-0.8-3.4C43.5,27.7,42.6,27.7,42.6,28.3
							L42.6,28.3z"/>
					</g>
				</g>
				<g>
					<g>
						<path d="M43,23c0.3,1.2,0.7,2.3,1,3.5c0.2,0.6,1.1,0.3,0.9-0.2c-0.3-1.2-0.7-2.3-1-3.5C43.7,22.1,42.8,22.4,43,23L43,23z"/>
					</g>
				</g>
				<g>
					<g>
						<path d="M43.3,17.9c0.2,0.8,0.6,1.5,0.9,2.2c0.4,0.9,0.5,1.8,0.7,2.7c0.1,0.6,1,0.3,0.9-0.2c-0.1-0.9-0.3-1.8-0.6-2.6
							c-0.3-0.8-0.7-1.5-0.9-2.3C44,17,43.1,17.3,43.3,17.9L43.3,17.9z"/>
					</g>
				</g>
				<g>
					<g>
						<path d="M27.1,20.5c0.1,1.5,0.2,3,0.3,4.5c0,0.6,1,0.6,0.9,0c-0.1-1.5-0.2-3-0.3-4.5C28,19.9,27,19.9,27.1,20.5L27.1,20.5z"/>
					</g>
				</g>
				<g>
					<g>
						<path d="M24.7,18.4c0,1,0.1,1.9,0.1,2.8c0,0.7-0.1,1.7,0.1,2.3c0.4,1.1,2,1.9,2.9,2.6c0.5,0.3,1-0.5,0.5-0.8
							c-1.1-0.8-2.4-1.4-2.5-2.9c0-1.3-0.2-2.7-0.2-4C25.7,17.8,24.7,17.8,24.7,18.4L24.7,18.4z"/>
					</g>
				</g>
			</g>
		</g>
		<g>
			<g display="inline">
				<g>
					<path d="M49.8,5.2c0.7-1.3,1.6-2.5,2.8-3.5c0.6-0.5-0.3-1.4-0.9-0.9c-1.2,1.1-2.2,2.3-3,3.7C48.4,5.2,49.4,5.8,49.8,5.2
						L49.8,5.2z"/>
				</g>
			</g>
			<g display="inline">
				<g>
					<path d="M52.3,12.9c1.2-0.5,2.4-0.7,3.7-0.6c0.8,0,0.8-1.2,0-1.2c-1.4-0.1-2.7,0.1-4,0.6C51.3,12.1,51.6,13.2,52.3,12.9
						L52.3,12.9z"/>
				</g>
			</g>
			<g display="inline">
				<g>
					<path d="M52.4,22.6c1.8-0.2,3.4,0.1,5.1,0.8c0.7,0.3,1-0.9,0.3-1.2c-1.7-0.7-3.5-1-5.4-0.8C51.6,21.4,51.6,22.6,52.4,22.6
						L52.4,22.6z"/>
				</g>
			</g>
			<g display="inline">
				<g>
					<path d="M51.7,29.3c1.1-0.3,1.9,0.5,2.8,1c0.7,0.4,1.3,0.6,2.1,0.6c0.8,0,0.8-1.2,0-1.2c-1.1,0-2-0.8-3-1.3
						c-0.7-0.3-1.5-0.5-2.3-0.3C50.7,28.3,51,29.5,51.7,29.3L51.7,29.3z"/>
				</g>
			</g>
			<g display="inline">
				<g>
					<path d="M48.8,36c0.8,1.3,1.8,2.4,3,3.3c0.6,0.5,1.2-0.6,0.6-1c-1-0.8-1.9-1.7-2.6-2.8C49.4,34.7,48.4,35.3,48.8,36L48.8,36z"
						/>
				</g>
			</g>
			<g display="inline">
				<g>
					<path d="M39.9,5.4c-0.1-1.6-0.3-3.2-0.6-4.7c-0.2-0.8-1.3-0.4-1.2,0.3c0.3,1.5,0.5,2.9,0.6,4.4C38.7,6.2,40,6.2,39.9,5.4
						L39.9,5.4z"/>
				</g>
			</g>
			<g display="inline">
				<g>
					<path d="M31.3,8.4c-1.1-1.4-2.1-2.9-2.8-4.5c-0.3-0.7-1.4-0.1-1,0.6c0.8,1.7,1.8,3.3,3,4.8C30.9,9.9,31.8,9,31.3,8.4L31.3,8.4z
						"/>
				</g>
			</g>
			<g display="inline">
				<g>
					<path d="M22.8,12.7c-1.3-0.9-2.7-1.8-4-2.7c-0.6-0.4-1.3,0.6-0.6,1c1.3,0.9,2.7,1.8,4,2.7C22.8,14.2,23.5,13.1,22.8,12.7
						L22.8,12.7z"/>
				</g>
			</g>
		</g>
	</g>
	<g id="Rectangle" display="none">
		<g display="inline">
			<g>
				<g>
					<path d="M18.8,16.8c4.5-0.1,8.9-0.1,13.4-0.1c2,0,4,0,6,0c1.5,0,5.6-0.7,6.4,0.7c0.4,0.7,0,2.6,0,3.4c0,1.1,0,2.2-0.1,3.4
						c-0.1,2.2-0.1,4.5-0.1,6.7c0,2.2,0.1,4.4,0.3,6.6c0.1,1.1,0.5,2.5,0.4,3.6c-0.2,1.6-0.7,1.8-2.3,1.8c-4.3,0-8.6,0.1-12.8,0.1
						c-2,0-4,0-6.1,0c-2,0-4.4,0.4-6.4,0c-1.6-0.3-1.8-0.5-1.8-2.2c0-1.2,0-2.3,0-3.5c0.1-2.3,0.3-4.6,0.5-6.9
						c0.3-4.8-0.3-9.6,0.1-14.4c-0.2,0.2-0.4,0.4-0.6,0.6C16.6,16.8,17.7,16.8,18.8,16.8c0.8,0,0.8-1.2,0-1.3c-1.1-0.1-2.1,0-3.2,0
						c-0.4,0-0.6,0.3-0.6,0.6c-0.4,4.5,0.1,9,0,13.4c-0.2,4.3-1.1,8.9-0.4,13.3c0.1,0.7,0.1,1.1,0.8,1.4c0.5,0.2,1.2,0,1.7,0
						c1.2,0,2.5,0,3.7,0c4.1,0,8.1,0,12.2-0.1c1.9,0,3.8,0,5.7,0c2,0,4.5,0.4,6.5,0c2.4-0.5,1-5,0.8-6.7c-0.4-4.4-0.3-8.9-0.2-13.3
						c0.1-2.1,0.1-4.2,0.1-6.2c0-0.7,0.2-1.9-0.5-2.4c-1.1-0.8-4.5-0.1-5.8-0.1c-2.2,0-4.3,0-6.5,0c-4.7,0-9.5,0-14.2,0.1
						C18,15.6,17.9,16.8,18.8,16.8z"/>
				</g>
			</g>
			<g>
				<g>
					<path d="M14.5,41.4c1,1.7,3,2.7,4.9,2.9c0.8,0.1,0.8-1.2,0-1.3c-1.4-0.2-3.1-1-3.9-2.3C15.1,40.1,14.1,40.7,14.5,41.4
						L14.5,41.4z"/>
				</g>
			</g>
			<g>
				<g>
					<path d="M19.2,42.2c1.1,0.8,2.3,1.4,3.6,2c0.7,0.3,1.4-0.8,0.6-1.1c-1.2-0.5-2.4-1.2-3.6-2C19.1,40.7,18.5,41.8,19.2,42.2
						L19.2,42.2z"/>
				</g>
			</g>
			<g>
				<g>
					<path d="M22.9,42.1c0.9,0.7,1.9,1.4,3,2c0.7,0.4,1.3-0.7,0.6-1.1c-1-0.6-2-1.2-3-2C22.9,40.5,22.3,41.6,22.9,42.1L22.9,42.1z"
						/>
				</g>
			</g>
			<g>
				<g>
					<path d="M27.5,42.1c1.1,0.8,2.2,1.5,3.5,2c0.8,0.3,1.1-0.9,0.3-1.2c-1.1-0.4-2-1-2.9-1.7C27.7,40.7,26.8,41.6,27.5,42.1
						L27.5,42.1z"/>
				</g>
			</g>
			<g>
				<g>
					<path d="M31.9,41.8c1.2,0.7,2.4,1.4,3.6,2.1c0.7,0.4,1.3-0.7,0.6-1.1c-1.2-0.7-2.4-1.4-3.6-2.1C31.8,40.3,31.2,41.4,31.9,41.8
						L31.9,41.8z"/>
				</g>
			</g>
			<g>
				<g>
					<path d="M36.3,41.4c1.2,1,2.6,1.9,4,2.6c0.7,0.4,1.4-0.7,0.6-1.1c-1.3-0.7-2.6-1.5-3.7-2.4C36.6,40,35.7,40.9,36.3,41.4
						L36.3,41.4z"/>
				</g>
			</g>
			<g>
				<g>
					<path d="M41.2,41.5c1,0.9,2.1,1.7,3.1,2.4c0.7,0.5,1.3-0.6,0.6-1.1c-1-0.7-2-1.4-2.9-2.2C41.5,40.1,40.6,41,41.2,41.5
						L41.2,41.5z"/>
				</g>
			</g>
			<g>
				<g>
					<path d="M42.9,40.1c0.8,0.5,1.6,1,2.4,1.5c0.7,0.4,1.3-0.7,0.6-1.1c-0.8-0.5-1.6-1-2.4-1.5C42.9,38.6,42.2,39.7,42.9,40.1
						L42.9,40.1z"/>
				</g>
			</g>
			<g>
				<g>
					<path d="M43.2,37.1c0.5,0.5,1.3,0.8,1.7,1.4c0.4,0.7,1.5,0.1,1.1-0.6c-0.5-0.8-1.3-1.1-1.9-1.7C43.5,35.7,42.6,36.6,43.2,37.1
						L43.2,37.1z"/>
				</g>
			</g>
			<g>
				<g>
					<path d="M43.4,33.8c0.5,0.2,0.8,0.7,1.2,1.1c0.6,0.6,1.5-0.3,0.9-0.9c-0.5-0.5-0.8-1-1.4-1.3C43.3,32.4,42.7,33.5,43.4,33.8
						L43.4,33.8z"/>
				</g>
			</g>
			<g>
				<g>
					<path d="M43.3,29.9c0.4,0.4,0.8,0.8,1.2,1.2c0.6,0.6,1.5-0.3,0.9-0.9c-0.4-0.4-0.8-0.8-1.2-1.2C43.7,28.5,42.8,29.4,43.3,29.9
						L43.3,29.9z"/>
				</g>
			</g>
			<g>
				<g>
					<path d="M43.4,26.3c0.3,0.4,0.7,0.8,1.1,1.1c0.6,0.5,1.5-0.4,0.9-0.9c-0.4-0.3-0.8-0.7-1.1-1.1C43.8,24.8,42.9,25.7,43.4,26.3
						L43.4,26.3z"/>
				</g>
			</g>
			<g>
				<g>
					<path d="M43.7,24c0.3,0.3,0.6,0.6,1,0.9c0.7,0.5,1.3-0.6,0.6-1.1c-0.3-0.2-0.5-0.4-0.7-0.7C44,22.5,43.1,23.4,43.7,24L43.7,24z
						"/>
				</g>
			</g>
			<g>
				<g>
					<path d="M43.9,21c0.3,0.1,0.5,0.3,0.7,0.4c0.6,0.5,1.5-0.4,0.9-0.9c-0.4-0.3-0.8-0.6-1.3-0.7c-0.3-0.1-0.7,0.1-0.8,0.4
						C43.3,20.6,43.6,20.9,43.9,21L43.9,21z"/>
				</g>
			</g>
			<g>
				<g>
					<path d="M42.2,16.7c1.1,0.4,1.9,1.5,2.7,2.2c0.6,0.5,1.5-0.4,0.9-0.9c-1-0.9-2-2.1-3.3-2.6C41.8,15.2,41.5,16.4,42.2,16.7
						L42.2,16.7z"/>
				</g>
			</g>
		</g>
		<g display="inline">
			<g>
				<g>
					<path d="M13.6,11.3C12,9.9,10.5,8.5,9.1,6.9C8.6,6.3,7.7,7.2,8.2,7.8c1.4,1.6,2.9,3,4.4,4.4C13.3,12.7,14.2,11.8,13.6,11.3
						L13.6,11.3z"/>
				</g>
			</g>
			<g>
				<g>
					<path d="M24.4,9.3c-0.3-1.7-0.7-3.3-1-5c-0.2-0.8-1.4-0.5-1.2,0.3c0.3,1.7,0.7,3.3,1,5C23.3,10.4,24.5,10.1,24.4,9.3L24.4,9.3z
						"/>
				</g>
			</g>
			<g>
				<g>
					<path d="M36.3,9.5c0-1.6,0.1-3.1,0.1-4.7c0-0.8-1.2-0.8-1.3,0c0,1.6-0.1,3.1-0.1,4.7C35,10.3,36.3,10.3,36.3,9.5L36.3,9.5z"/>
				</g>
			</g>
			<g>
				<g>
					<path d="M49.3,13.9c1.7-1.3,3.4-2.7,5-4C55,9.4,54.1,8.5,53.5,9c-1.7,1.3-3.4,2.7-5,4C47.8,13.5,48.7,14.4,49.3,13.9L49.3,13.9
						z"/>
				</g>
			</g>
			<g>
				<g>
					<path d="M51.6,24.1c2.5-0.7,5.1-1.1,7.7-1.2c0.8,0,0.8-1.3,0-1.3c-2.7,0.1-5.4,0.5-8,1.3C50.4,23.1,50.8,24.4,51.6,24.1
						L51.6,24.1z"/>
				</g>
			</g>
			<g>
				<g>
					<path d="M50.9,36.3c2.3,0.5,4.6,1,6.9,1.5c0.8,0.2,1.1-1,0.3-1.2c-2.3-0.5-4.6-1-6.9-1.5C50.5,34.9,50.1,36.2,50.9,36.3
						L50.9,36.3z"/>
				</g>
			</g>
			<g>
				<g>
					<path d="M49.9,46.5c1.5,1.5,3,3.1,4,4.9c0.4,0.7,1.5,0.1,1.1-0.6c-1.1-2-2.7-3.6-4.2-5.2C50.2,45,49.3,45.9,49.9,46.5
						L49.9,46.5z"/>
				</g>
			</g>
			<g>
				<g>
					<path d="M35.9,49.2c0.1,1.8,0,3.6-0.4,5.4c-0.2,0.8,1.1,1.1,1.2,0.3c0.4-1.9,0.5-3.8,0.4-5.7C37.1,48.4,35.8,48.4,35.9,49.2
						L35.9,49.2z"/>
				</g>
			</g>
			<g>
				<g>
					<path d="M20.9,48.4c0,2.4-0.1,4.8-0.5,7.1c-0.1,0.8,1.2,0.8,1.3,0c0.3-2.4,0.5-4.7,0.5-7.1C22.1,47.6,20.9,47.6,20.9,48.4
						L20.9,48.4z"/>
				</g>
			</g>
			<g>
				<g>
					<path d="M10.6,47c-2.4,1.2-4.9,2.4-7.4,3.5c-0.7,0.3-0.1,1.4,0.6,1.1c2.5-1.1,4.9-2.3,7.4-3.5C11.9,47.8,11.3,46.7,10.6,47
						L10.6,47z"/>
				</g>
			</g>
			<g>
				<g>
					<path d="M9.7,35c-3.1,0-6.1,0.3-9.1,0.9C-0.2,36,0.1,37.2,0.9,37c2.9-0.5,5.8-0.8,8.7-0.8C10.5,36.2,10.5,35,9.7,35L9.7,35z"/>
				</g>
			</g>
			<g>
				<g>
					<path d="M10.1,24c-2.4-1.3-5-2-7.8-1.8c-0.8,0-0.8,1.3,0,1.3c2.5-0.1,4.9,0.4,7.1,1.7C10.2,25.5,10.8,24.4,10.1,24L10.1,24z"/>
				</g>
			</g>
		</g>
	</g>
	<g id="Ellipse" display="none">
		<g display="inline">
			<g>
				<g>
					<path d="M30.8,12.6c-6-0.1-13.6,4.5-15.1,10.5c-1.5,6,0.3,14.3,5.4,18c5.2,3.8,13.5,4.2,18.8,0.3c5.2-3.8,7.3-10.8,6-17
						C44.5,16.7,38.3,13.1,30.8,12.6c-0.6,0-0.6,1,0,1c3.9,0.2,7.7,1.1,10.6,3.9c2.4,2.4,3.7,5.8,4,9.1c0.7,8.1-4.7,16-13.2,16.4
						c-3.8,0.1-7.9-0.7-10.9-3.2c-3.2-2.6-4.4-6.8-4.8-10.8c-0.4-3.9,0.2-7.9,3.2-10.7c2.9-2.6,7.1-4.8,11.1-4.8
						C31.5,13.6,31.5,12.6,30.8,12.6z"/>
				</g>
			</g>
			<g>
				<g>
					<path d="M19.2,36.5c0.3,1.3,0.7,2.5,1,3.8c0.2,0.6,1.1,0.4,1-0.3c-0.4-1.3-0.7-2.5-1-3.8C20,35.6,19,35.8,19.2,36.5L19.2,36.5z
						"/>
				</g>
			</g>
			<g>
				<g>
					<path d="M21.9,37.9c0.2,1.3,0.6,2.6,1,3.8c0.2,0.6,1.2,0.3,1-0.3c-0.4-1.3-0.8-2.5-1-3.8C22.8,37,21.8,37.3,21.9,37.9
						L21.9,37.9z"/>
				</g>
			</g>
			<g>
				<g>
					<path d="M24.6,39.1c0.2,1.3,0.5,2.5,1,3.7c0.2,0.6,1.2,0.3,1-0.3c-0.4-1.2-0.7-2.5-1-3.7C25.5,38.2,24.5,38.4,24.6,39.1
						L24.6,39.1z"/>
				</g>
			</g>
			<g>
				<g>
					<path d="M27.3,39.9c0.4,1.3,0.9,2.5,1.4,3.7c0.3,0.6,1.1,0.1,0.9-0.5c-0.5-1.1-0.9-2.3-1.3-3.5C28.1,39,27.1,39.3,27.3,39.9
						L27.3,39.9z"/>
				</g>
			</g>
			<g>
				<g>
					<path d="M30.3,40.7c0.3,1,0.6,1.9,1.1,2.8c0.3,0.6,1.2,0.1,0.9-0.5c-0.4-0.8-0.7-1.7-1-2.5C31.1,39.8,30.2,40.1,30.3,40.7
						L30.3,40.7z"/>
				</g>
			</g>
			<g>
				<g>
					<path d="M33,41.5c0.2,0.6,0.4,1.2,0.6,1.8c0.2,0.6,1.2,0.3,1-0.3c-0.2-0.6-0.4-1.2-0.6-1.8C33.8,40.6,32.8,40.9,33,41.5
						L33,41.5z"/>
				</g>
			</g>
			<g>
				<g>
					<path d="M35.6,41.1c0.1,0.6,0.3,1.1,0.5,1.7c0.3,0.6,1.1,0.1,0.9-0.5c-0.2-0.5-0.3-1-0.4-1.5C36.5,40.2,35.5,40.4,35.6,41.1
						L35.6,41.1z"/>
				</g>
			</g>
			<g>
				<g>
					<path d="M38.1,39.7c0.2,0.5,0.5,1,0.8,1.5c0.4,0.5,1.2,0,0.9-0.5c-0.3-0.4-0.5-0.8-0.7-1.2C38.8,38.9,37.9,39.1,38.1,39.7
						L38.1,39.7z"/>
				</g>
			</g>
			<g>
				<g>
					<path d="M39.9,38.1c0.2,0.5,0.3,0.9,0.5,1.4c0.2,0.6,1.2,0.3,1-0.3c-0.2-0.5-0.3-0.9-0.5-1.4C40.7,37.3,39.7,37.5,39.9,38.1
						L39.9,38.1z"/>
				</g>
			</g>
			<g>
				<g>
					<path d="M41.6,36.2c0.2,0.5,0.5,1,0.7,1.5c0.3,0.6,1.1,0.1,0.9-0.5c-0.2-0.5-0.5-1-0.7-1.5C42.2,35.2,41.3,35.7,41.6,36.2
						L41.6,36.2z"/>
				</g>
			</g>
			<g>
				<g>
					<path d="M43.3,33.6c0.2,0.6,0.4,1.1,0.7,1.7c0.3,0.6,1.2,0.1,0.9-0.5c-0.2-0.5-0.4-0.9-0.6-1.4C44,32.8,43.1,33,43.3,33.6
						L43.3,33.6z"/>
				</g>
			</g>
			<g>
				<g>
					<path d="M44.1,30.6c0.2,0.7,0.4,1.3,0.8,1.9c0.4,0.5,1.2,0,0.9-0.5c-0.4-0.5-0.6-1.1-0.7-1.7C44.9,29.7,43.9,30,44.1,30.6
						L44.1,30.6z"/>
				</g>
			</g>
			<g>
				<g>
					<path d="M44.5,27.2c0.3,0.8,0.6,1.6,0.9,2.4c0.3,0.6,1.1,0.1,0.9-0.5c-0.3-0.7-0.6-1.4-0.8-2.1C45.2,26.4,44.2,26.6,44.5,27.2
						L44.5,27.2z"/>
				</g>
			</g>
			<g>
				<g>
					<path d="M44.2,23.7c0.3,0.6,0.7,1.2,1,1.8c0.3,0.6,1.2,0.1,0.9-0.5c-0.3-0.6-0.7-1.2-1-1.8C44.8,22.6,43.9,23.1,44.2,23.7
						L44.2,23.7z"/>
				</g>
			</g>
			<g>
				<g>
					<path d="M16.9,34c0.4,1,0.7,2.1,1,3.2c0.1,0.6,1.1,0.4,1-0.3c-0.3-1.1-0.6-2.1-1-3.2C17.6,33.1,16.6,33.4,16.9,34L16.9,34z"/>
				</g>
			</g>
		</g>
		<g display="inline">
			<g>
				<g>
					<path d="M21.9,4.6c0.8,1.5,1.3,3,1.5,4.6c0.1,0.6,1.1,0.6,1,0c-0.2-1.8-0.7-3.5-1.6-5.2C22.4,3.5,21.6,4,21.9,4.6L21.9,4.6z"/>
				</g>
			</g>
			<g>
				<g>
					<path d="M37.5,4c-0.6,1.7-0.7,3.6-1,5.3c-0.1,0.6,0.9,0.9,1,0.3c0.3-1.8,0.4-3.6,1-5.3C38.6,3.7,37.7,3.4,37.5,4L37.5,4z"/>
				</g>
			</g>
			<g>
				<g>
					<path d="M46.4,14.7c2.3-1.4,4.5-2.8,6-5c0.4-0.5-0.5-1-0.9-0.5c-1.4,2-3.5,3.4-5.6,4.6C45.4,14.2,45.9,15,46.4,14.7L46.4,14.7z
						"/>
				</g>
			</g>
			<g>
				<g>
					<path d="M49.1,23.8c3.1-0.1,6.7-1.1,9.5-2.5c0.6-0.3,0.1-1.1-0.5-0.9c-2.6,1.3-6.1,2.2-9,2.4C48.4,22.9,48.4,23.9,49.1,23.8
						L49.1,23.8z"/>
				</g>
			</g>
			<g>
				<g>
					<path d="M48.7,33.9c2.9,0.7,5.5,1.8,8,3.4c0.5,0.3,1-0.5,0.5-0.9c-2.6-1.6-5.3-2.8-8.2-3.5C48.4,32.8,48.1,33.8,48.7,33.9
						L48.7,33.9z"/>
				</g>
			</g>
			<g>
				<g>
					<path d="M45.5,44.5c1.8,2.1,4.5,2.9,6.5,4.8c0.5,0.4,1.2-0.3,0.7-0.7c-2-1.9-4.7-2.7-6.5-4.8C45.8,43.3,45.1,44,45.5,44.5
						L45.5,44.5z"/>
				</g>
			</g>
			<g>
				<g>
					<path d="M36.2,48.1c0.4,2.3,0.7,4.7,0.8,7c0,0.6,1,0.6,1,0c-0.1-2.4-0.4-4.9-0.8-7.3C37,47.2,36.1,47.5,36.2,48.1L36.2,48.1z"
						/>
				</g>
			</g>
			<g>
				<g>
					<path d="M22,47.1c-0.9,2.6-1.7,5.2-2.4,7.9c-0.2,0.6,0.8,0.9,1,0.3c0.7-2.7,1.5-5.3,2.4-7.9C23.2,46.7,22.2,46.5,22,47.1
						L22,47.1z"/>
				</g>
			</g>
			<g>
				<g>
					<path d="M13.6,41.5c-1.5,0.9-3,1.7-4.4,2.7c-1.2,1-2.3,2.2-3.5,3.2c-0.5,0.4,0.2,1.1,0.7,0.7c1.1-0.9,2-1.9,3.1-2.9
						c1.3-1.2,3-2,4.5-2.9C14.7,42.1,14.2,41.2,13.6,41.5L13.6,41.5z"/>
				</g>
			</g>
			<g>
				<g>
					<path d="M11.4,33.3c-3.2,0-6.2,0.9-9.2,1.8c-0.6,0.2-0.4,1.2,0.3,1c2.9-0.9,5.8-1.8,8.9-1.8C12,34.3,12,33.3,11.4,33.3
						L11.4,33.3z"/>
				</g>
			</g>
			<g>
				<g>
					<path d="M10.8,23.8c-2.7-0.5-5.2-1.7-7.4-3.3c-0.5-0.4-1,0.5-0.5,0.9c2.3,1.7,4.8,2.9,7.6,3.4C11.2,24.9,11.5,24,10.8,23.8
						L10.8,23.8z"/>
				</g>
			</g>
			<g>
				<g>
					<path d="M15.8,13.6c-2-1.9-4.1-3.7-6.5-5.1C8.7,8.2,8.2,9,8.8,9.3c2.4,1.3,4.3,3.1,6.3,4.9C15.6,14.7,16.3,14,15.8,13.6
						L15.8,13.6z"/>
				</g>
			</g>
		</g>
	</g>
	<g id="Triangle" display="none">
		<g display="inline">
			<g>
				<g>
					<path d="M30.2,15.3c-2.9,4.9-5.8,9.8-8.7,14.7c-2.6,4.4-5.4,8.8-7.1,13.6c-0.1,0.3,0.2,0.6,0.5,0.6C25,44.1,35.3,44,45.5,43.9
						c0.3,0,0.6-0.3,0.5-0.6c-0.8-2.3-2.3-4.3-3.5-6.3c-1.5-2.5-2.9-5-4.3-7.6c-1.3-2.4-2.5-4.9-3.7-7.4c-1.1-2.3-2-4.8-3.6-6.8
						c-0.4-0.5-1.1,0.2-0.7,0.7c1.7,2,2.5,4.6,3.6,7c1.1,2.3,2.3,4.7,3.5,7c1.1,2.2,2.3,4.3,3.6,6.4c1.4,2.4,3.2,4.7,4.1,7.3
						c0.2-0.2,0.3-0.4,0.5-0.6C35.3,43,25,43.1,14.8,43.3c0.2,0.2,0.3,0.4,0.5,0.6c1.8-5,4.8-9.6,7.5-14.2c2.7-4.6,5.5-9.3,8.2-13.9
						C31.4,15.3,30.5,14.8,30.2,15.3z"/>
				</g>
			</g>
			<g>
				<g>
					<path d="M15,42.5c0.1,0.4,0.2,0.8,0.3,1.2c0.2,0.6,1.1,0.4,1-0.3c-0.1-0.4-0.2-0.8-0.3-1.2C15.8,41.6,14.8,41.8,15,42.5
						L15,42.5z"/>
				</g>
			</g>
			<g>
				<g>
					<path d="M15.9,40.3c0.3,1.1,0.8,2.3,1.2,3.3c0.3,0.6,1.1,0.1,0.9-0.5c-0.5-1-0.8-2.1-1.1-3.1C16.7,39.4,15.8,39.7,15.9,40.3
						L15.9,40.3z"/>
				</g>
			</g>
			<g>
				<g>
					<path d="M17,38c0.7,2,1.6,4,2.5,6c0.3,0.6,1.1,0.1,0.9-0.5c-0.9-1.9-1.7-3.8-2.4-5.7C17.8,37.1,16.8,37.3,17,38L17,38z"/>
				</g>
			</g>
			<g>
				<g>
					<path d="M20,39.8c0.6,1.3,1.3,2.7,1.9,4c0.3,0.6,1.1,0.1,0.9-0.5c-0.6-1.3-1.3-2.7-1.9-4C20.5,38.7,19.7,39.2,20,39.8L20,39.8z
						"/>
				</g>
			</g>
			<g>
				<g>
					<path d="M22.7,40.7c0.4,1.1,0.9,2.1,1.4,3.2c0.3,0.6,1.1,0.1,0.9-0.5c-0.4-1-0.9-2-1.3-2.9C23.5,39.8,22.5,40.1,22.7,40.7
						L22.7,40.7z"/>
				</g>
			</g>
			<g>
				<g>
					<path d="M25.2,41.3c0.5,0.8,1,1.6,1.6,2.4c0.4,0.5,1.2,0,0.9-0.5c-0.5-0.8-1.1-1.6-1.6-2.4C25.7,40.2,24.8,40.7,25.2,41.3
						L25.2,41.3z"/>
				</g>
			</g>
			<g>
				<g>
					<path d="M28.5,41.7c0.4,0.6,0.7,1.3,1.1,1.9c0.3,0.6,1.2,0.1,0.9-0.5c-0.4-0.6-0.7-1.3-1.1-1.9C29.1,40.7,28.2,41.2,28.5,41.7
						L28.5,41.7z"/>
				</g>
			</g>
			<g>
				<g>
					<path d="M31,41.7c0.4,0.7,0.9,1.3,1.3,2c0.3,0.5,1.2,0,0.9-0.5c-0.4-0.7-0.9-1.3-1.3-2C31.5,40.6,30.7,41.1,31,41.7L31,41.7z"
						/>
				</g>
			</g>
			<g>
				<g>
					<path d="M33.6,41.6c0.4,0.7,0.8,1.3,1.2,1.9c0.4,0.5,1.3,0,0.9-0.5c-0.4-0.6-0.9-1.2-1.2-1.9C34.2,40.6,33.3,41.1,33.6,41.6
						L33.6,41.6z"/>
				</g>
			</g>
			<g>
				<g>
					<path d="M36.2,41.7c0.4,0.6,0.8,1.2,1.1,1.8c0.3,0.5,1.2,0,0.9-0.5c-0.4-0.6-0.8-1.2-1.1-1.8C36.7,40.6,35.9,41.1,36.2,41.7
						L36.2,41.7z"/>
				</g>
			</g>
			<g>
				<g>
					<path d="M38.7,41.5c0.5,0.7,1,1.4,1.4,2.1c0.3,0.5,1.2,0,0.9-0.5c-0.4-0.7-0.9-1.4-1.4-2.1C39.2,40.4,38.3,40.9,38.7,41.5
						L38.7,41.5z"/>
				</g>
			</g>
			<g>
				<g>
					<path d="M41.3,41.5c0.5,0.7,1,1.4,1.5,2.1c0.4,0.5,1.2,0,0.9-0.5c-0.5-0.7-1-1.4-1.5-2.1C41.8,40.4,41,40.9,41.3,41.5
						L41.3,41.5z"/>
				</g>
			</g>
		</g>
		<g display="inline">
			<g>
				<g>
					<path d="M31.3,9.7c0-1.9,0-3.8,0-5.7c0-0.6-1-0.6-1,0c0,1.9,0,3.8,0,5.7C30.3,10.3,31.3,10.3,31.3,9.7L31.3,9.7z"/>
				</g>
			</g>
			<g>
				<g>
					<path d="M39.8,13.1c1.6-1.8,3.1-3.7,4.3-5.7c0.3-0.5-0.5-1.1-0.9-0.5c-1.2,2-2.6,3.8-4.2,5.5C38.7,12.9,39.4,13.6,39.8,13.1
						L39.8,13.1z"/>
				</g>
			</g>
			<g>
				<g>
					<path d="M45.8,20.8c3.7-1.7,7.4-3.6,11.2-4.7c0.6-0.2,0.4-1.2-0.3-1c-3.9,1.2-7.7,3.1-11.5,4.8C44.7,20.3,45.2,21.1,45.8,20.8
						L45.8,20.8z"/>
				</g>
			</g>
			<g>
				<g>
					<path d="M48.8,33.3c2.8-0.1,5.6-0.5,8.4-0.9c0.6-0.1,0.4-1.1-0.3-1c-2.7,0.4-5.4,0.8-8.1,0.9C48.2,32.4,48.2,33.4,48.8,33.3
						L48.8,33.3z"/>
				</g>
			</g>
			<g>
				<g>
					<path d="M48.5,44.7c2,1.9,4.3,3.9,5.6,6.3c0.3,0.6,1.2,0.1,0.9-0.5C53.7,48,51.3,46,49.3,44C48.8,43.5,48.1,44.3,48.5,44.7
						L48.5,44.7z"/>
				</g>
			</g>
			<g>
				<g>
					<path d="M36.4,48.5c1.2,2.1,1.2,4.5,1.4,6.9c0.1,0.6,1.1,0.6,1,0c-0.2-2.5-0.3-5.1-1.5-7.4C37,47.4,36.1,47.9,36.4,48.5
						L36.4,48.5z"/>
				</g>
			</g>
			<g>
				<g>
					<path d="M21.9,47.5c-0.1,1.4-0.8,2.5-1.3,3.8c-0.4,1.1-0.6,2.3-0.7,3.5c0,0.6,1,0.6,1,0c0.2-2.6,1.8-4.8,2-7.3
						C23,46.9,22,46.9,21.9,47.5L21.9,47.5z"/>
				</g>
			</g>
			<g>
				<g>
					<path d="M10.5,46c-2.9,1.4-5.4,3.4-7.4,5.9c-0.4,0.5,0.3,1.2,0.7,0.7c1.9-2.5,4.4-4.4,7.2-5.8C11.6,46.5,11.1,45.7,10.5,46
						L10.5,46z"/>
				</g>
			</g>
			<g>
				<g>
					<path d="M10.6,32.6c-2.7-0.7-5.5-1.1-8.3-1.2c-0.6,0-0.6,1,0,1c2.7,0.1,5.4,0.5,8,1.1C10.9,33.7,11.2,32.7,10.6,32.6L10.6,32.6
						z"/>
				</g>
			</g>
			<g>
				<g>
					<path d="M16.1,22.8c-3.1-2.1-6.5-3.7-10.2-4.7c-0.6-0.2-0.9,0.8-0.3,1c3.6,1,6.9,2.5,10,4.6C16.1,24,16.6,23.2,16.1,22.8
						L16.1,22.8z"/>
				</g>
			</g>
			<g>
				<g>
					<path d="M24,15.5c-1.8-2.1-3.7-4.1-6.2-5.5c-0.6-0.3-1.1,0.5-0.5,0.9c2.4,1.4,4.2,3.4,6,5.4C23.7,16.7,24.4,16,24,15.5L24,15.5
						z"/>
				</g>
			</g>
		</g>
	</g>
	<g id="Line" display="none">
		<g display="inline">
			<g>
				<g>
					<path d="M17.4,40.3c3.5-4.3,7.6-7.6,11.5-11.5c2.2-2.1,4.2-4.3,6.3-6.4c0.8-0.9,5.3-6.4,6.4-5.8c1.3,0.7-2.1,3.8-2.5,4.3
						c-1.1,1.2-2.2,2.4-3.3,3.5c-2.1,2.2-4.2,4.4-6.4,6.6c-2.2,2.2-4.4,4.2-6.7,6.3c-0.8,0.7-2.1,2.7-3.1,3.1
						c-0.7,0.3-0.5,0.1-1.1-0.2c-0.4-0.2-0.9-0.6-1.2-0.8c-0.5-0.4-1,0.5-0.5,0.9c0.6,0.4,1.7,1.5,2.5,1.5c1,0,2-1.6,2.6-2.3
						c2.9-3.1,6.2-5.8,9.2-8.8c3.1-3.2,6.2-6.5,9.3-9.8c0.7-0.8,2.7-2.3,2.9-3.3c0.2-1.1-1-1.6-1.7-2.3c-0.2-0.2-0.5-0.2-0.7,0
						c-4.4,4.1-8.4,8.6-12.7,12.7c-4,3.8-8,7.1-11.5,11.5C16.3,40.1,17,40.8,17.4,40.3L17.4,40.3z"/>
				</g>
			</g>
			<g>
				<g>
					<path d="M18.9,41.3c0.1,0.8,0.1,1.7,0.1,2.5c0,0.6,1,0.6,1,0C20,43,20,42.2,19.9,41.3C19.9,40.7,18.9,40.7,18.9,41.3L18.9,41.3
						z"/>
				</g>
			</g>
			<g>
				<g>
					<path d="M16.6,40.1c0,0.8-0.4,2,0.3,2.6c0.6,0.7,1.7,1.1,2.5,1.6c0.5,0.3,1-0.5,0.5-0.9c-0.7-0.4-1.4-0.8-2-1.2
						c-0.4-0.3-0.3-0.4-0.3-0.8c0-0.4,0-0.9,0.1-1.3C17.6,39.5,16.6,39.5,16.6,40.1L16.6,40.1z"/>
				</g>
			</g>
			<g>
				<g>
					<path d="M42.3,17.3c0.1,2,0.1,3.3-1.2,4.9c-0.9,1.1-1.9,2.1-2.8,3.1c-2.1,2.2-4.1,4.3-6.3,6.4c-4.2,4.1-8.9,7.4-12.8,11.8
						c-0.4,0.5,0.3,1.2,0.7,0.7c4.4-4.9,9.8-8.7,14.4-13.4c2.3-2.3,4.6-4.6,6.7-7c0.7-0.8,2.1-2.1,2.4-3.1c0.3-1,0-2.5,0-3.5
						C43.3,16.6,42.3,16.6,42.3,17.3L42.3,17.3z"/>
				</g>
			</g>
			<g>
				<g>
					<path d="M17.7,41.3c0,0.5,0,1,0,1.5c0,0.6,1,0.6,1,0c0-0.5,0-1,0-1.5C18.7,40.7,17.7,40.7,17.7,41.3L17.7,41.3z"/>
				</g>
			</g>
			<g>
				<g>
					<path d="M20.2,40.8c0.1,0.5,0.1,0.9,0.1,1.4c0,0.6,1,0.6,1,0c0-0.6,0-1.1-0.1-1.7C21.1,39.9,20.1,40.2,20.2,40.8L20.2,40.8z"/>
				</g>
			</g>
			<g>
				<g>
					<path d="M21.5,39.1c0,0.5,0.1,1,0.1,1.5c0,0.6,1,0.6,1,0c0-0.5-0.1-1-0.1-1.5C22.5,38.5,21.5,38.5,21.5,39.1L21.5,39.1z"/>
				</g>
			</g>
			<g>
				<g>
					<path d="M22.9,37.5c0,0.7,0.1,1.4,0.1,2c0,0.6,1,0.6,1,0c0-0.7-0.1-1.4-0.1-2C23.9,36.8,22.9,36.8,22.9,37.5L22.9,37.5z"/>
				</g>
			</g>
			<g>
				<g>
					<path d="M24.4,36.1c0,0.7,0.1,1.3,0.1,2c0,0.6,1,0.6,1,0c0-0.7-0.1-1.3-0.1-2C25.4,35.4,24.4,35.4,24.4,36.1L24.4,36.1z"/>
				</g>
			</g>
			<g>
				<g>
					<path d="M26.1,34.7c0.1,0.7,0.2,1.4,0.2,2.1c0,0.6,1,0.6,1,0c0-0.8,0-1.6-0.2-2.4C26.9,33.8,25.9,34,26.1,34.7L26.1,34.7z"/>
				</g>
			</g>
			<g>
				<g>
					<path d="M27.6,33.1c0,0.8,0,1.6,0.1,2.4c0.1,0.6,1.1,0.6,1,0c-0.1-0.8-0.1-1.6-0.1-2.4C28.6,32.4,27.6,32.4,27.6,33.1
						L27.6,33.1z"/>
				</g>
			</g>
			<g>
				<g>
					<path d="M29.1,31.7c0.1,0.8,0.1,1.7,0.1,2.5c0,0.6,1,0.6,1,0c0-0.8-0.1-1.7-0.1-2.5C30.1,31,29.1,31,29.1,31.7L29.1,31.7z"/>
				</g>
			</g>
			<g>
				<g>
					<path d="M30.7,30.2c0.1,0.9,0.1,1.7,0.1,2.6c0,0.6,1,0.6,1,0c-0.1-1,0-1.9-0.2-2.8C31.6,29.3,30.6,29.6,30.7,30.2L30.7,30.2z"
						/>
				</g>
			</g>
			<g>
				<g>
					<path d="M32.2,28.5c0,0.9,0.1,1.9,0.2,2.8c0.1,0.6,1.1,0.6,1,0c-0.1-0.9-0.2-1.9-0.2-2.8C33.2,27.9,32.2,27.9,32.2,28.5
						L32.2,28.5z"/>
				</g>
			</g>
			<g>
				<g>
					<path d="M33.7,27.1c0.2,0.9,0.2,1.7,0.2,2.6c0,0.6,1,0.6,1,0c0-1-0.1-1.9-0.2-2.9C34.6,26.2,33.6,26.5,33.7,27.1L33.7,27.1z"/>
				</g>
			</g>
			<g>
				<g>
					<path d="M35.4,25.2c0.1,1,0.2,2,0.1,3c0,0.6,1,0.6,1,0c0-1-0.1-2-0.1-3C36.4,24.6,35.4,24.6,35.4,25.2L35.4,25.2z"/>
				</g>
			</g>
			<g>
				<g>
					<path d="M36.9,23.5c0.1,1,0.3,2,0.4,3c0.1,0.6,1.1,0.6,1,0c-0.1-1-0.3-2-0.4-3C37.9,22.9,36.9,22.9,36.9,23.5L36.9,23.5z"/>
				</g>
			</g>
			<g>
				<g>
					<path d="M38.5,21.8c0.1,0.9,0.2,1.7,0.3,2.6c0.1,0.6,1.1,0.6,1,0c-0.1-0.9-0.2-1.7-0.3-2.6C39.4,21.2,38.4,21.2,38.5,21.8
						L38.5,21.8z"/>
				</g>
			</g>
			<g>
				<g>
					<path d="M40.2,19.9c-0.1,0.4-0.1,0.8-0.1,1.2c0.1,0.6,0.1,1.2,0.2,1.7c0.1,0.6,1.1,0.6,1,0c-0.1-0.5-0.1-1-0.2-1.5
						c0-0.4-0.1-0.8,0-1.2C41.4,19.5,40.5,19.3,40.2,19.9L40.2,19.9z"/>
				</g>
			</g>
		</g>
		<g display="inline">
			<g>
				<g>
					<path d="M42.6,11.1c0-1.2,0.2-2.4,0.5-3.6c0.2-0.6-0.8-0.9-1-0.3c-0.3,1.3-0.5,2.5-0.5,3.8C41.6,11.7,42.6,11.7,42.6,11.1
						L42.6,11.1z"/>
				</g>
			</g>
			<g>
				<g>
					<path d="M47.4,13.4c0.8-1,1.9-1.8,3.1-2.2c0.6-0.2,0.4-1.2-0.3-1c-1.5,0.5-2.8,1.4-3.8,2.6C46.1,13.4,47,13.9,47.4,13.4
						L47.4,13.4z"/>
				</g>
			</g>
			<g>
				<g>
					<path d="M46.9,21c1.6,0.4,3.3,0.7,5,0.9c0.7,0.1,0.7-1,0-1c-1.6-0.2-3.2-0.5-4.7-0.9C46.5,19.9,46.2,20.9,46.9,21L46.9,21z"/>
				</g>
			</g>
			<g>
				<g>
					<path d="M42.8,27.1c1.1,0.8,2.3,1.5,3.5,2.2c0.6,0.3,1.1-0.6,0.5-0.9c-1.2-0.7-2.4-1.4-3.5-2.2C42.7,25.8,42.2,26.7,42.8,27.1
						L42.8,27.1z"/>
				</g>
			</g>
			<g>
				<g>
					<path d="M37.9,33c1.1,0.9,2.3,1.8,3.6,2.5c0.6,0.4,1.1-0.5,0.5-0.9c-1.2-0.7-2.3-1.5-3.4-2.4C38.1,31.9,37.4,32.6,37.9,33
						L37.9,33z"/>
				</g>
			</g>
			<g>
				<g>
					<path d="M31.7,38.8c1.1,1.5,2.3,2.8,3.8,3.9c0.5,0.4,1-0.5,0.5-0.9c-1.3-1-2.5-2.2-3.4-3.6C32.2,37.7,31.3,38.2,31.7,38.8
						L31.7,38.8z"/>
				</g>
			</g>
			<g>
				<g>
					<path d="M24.4,44.6c0.6,1.1,1.3,2.2,2,3.3c0.4,0.6,1.2,0,0.9-0.5c-0.7-1.1-1.3-2.2-2-3.3C25,43.5,24.1,44,24.4,44.6L24.4,44.6z
						"/>
				</g>
			</g>
			<g>
				<g>
					<path d="M18.9,48.2c0.2,1.4,0.3,2.7,0.4,4.1c0.1,0.7,1.1,0.7,1,0c-0.1-1.5-0.3-2.9-0.5-4.4C19.8,47.3,18.8,47.6,18.9,48.2
						L18.9,48.2z"/>
				</g>
			</g>
			<g>
				<g>
					<path d="M14.3,44.3c-1.8,0.5-3.6,1-5.4,1.5c-0.6,0.2-0.4,1.2,0.3,1c1.8-0.5,3.6-1,5.4-1.5C15.2,45.1,14.9,44.2,14.3,44.3
						L14.3,44.3z"/>
				</g>
			</g>
			<g>
				<g>
					<path d="M15.6,38.2c-1.4-1.1-3.5-1.5-5.3-1.4c-0.7,0-0.7,1,0,1c1.5,0,3.3,0.2,4.5,1.1C15.4,39.3,16.2,38.6,15.6,38.2L15.6,38.2
						z"/>
				</g>
			</g>
			<g>
				<g>
					<path d="M19.1,32.2c-1.2-0.7-2.4-1.3-3.6-1.8c-0.6-0.3-0.9,0.7-0.3,1c1.2,0.5,2.3,1.1,3.4,1.7C19.1,33.5,19.6,32.6,19.1,32.2
						L19.1,32.2z"/>
				</g>
			</g>
			<g>
				<g>
					<path d="M24.3,27.5c-1.3-0.7-2.6-1.5-4-2.2c-0.6-0.3-1.1,0.6-0.5,0.9c1.3,0.7,2.6,1.5,4,2.2C24.4,28.7,24.9,27.8,24.3,27.5
						L24.3,27.5z"/>
				</g>
			</g>
			<g>
				<g>
					<path d="M28.7,23.3c-1.3-0.8-2.4-1.7-3.6-2.7c-0.5-0.4-1.2,0.3-0.7,0.7c1.2,1,2.4,2,3.8,2.9C28.7,24.5,29.3,23.6,28.7,23.3
						L28.7,23.3z"/>
				</g>
			</g>
			<g>
				<g>
					<path d="M33.1,19c-1.4-1.1-2.9-2.1-4.4-3.1c-0.6-0.3-1.1,0.5-0.5,0.9c1.4,0.9,2.8,1.9,4.2,2.9C32.8,20.1,33.6,19.4,33.1,19
						L33.1,19z"/>
				</g>
			</g>
			<g>
				<g>
					<path d="M37.6,14.8c-0.8-1.5-1.8-2.9-3-4.1c-0.5-0.5-1.2,0.3-0.7,0.7c1.1,1.2,2.1,2.5,2.8,3.9C37.1,15.9,37.9,15.4,37.6,14.8
						L37.6,14.8z"/>
				</g>
			</g>
		</g>
	</g>
	<g id="Arrow_1_">
		<g>
			<g>
				<g>
					<path d="M17.6,42.8c4.6-3.4,8.2-7.7,12.1-11.9c4.3-4.6,8.7-9.1,12.7-13.9c0.4-0.5-0.3-1.2-0.7-0.7c-3.8,4.7-8,9-12.1,13.3
						c-4,4.3-7.7,8.8-12.4,12.3C16.6,42.3,17.1,43.2,17.6,42.8L17.6,42.8z"/>
				</g>
				<g>
					<path d="M41.7,16.2c-2.8,1.4-5.6,2.6-8.6,3.4c-0.6,0.2-0.4,1.1,0.3,1c3-0.9,6-2.1,8.8-3.5C42.8,16.8,42.3,15.9,41.7,16.2
						L41.7,16.2z"/>
				</g>
				<g>
					<path d="M41.5,16.7c-0.3,2.9-1,5.9-2.2,8.6c-0.3,0.6,0.6,1.1,0.9,0.5c1.2-2.9,2-5.9,2.3-9.1C42.6,16,41.6,16,41.5,16.7
						L41.5,16.7z"/>
				</g>
			</g>
			<g>
				<g>
					<path d="M17.7,42.7c8.9-7.9,17.6-16.1,25.1-25.3c0.4-0.5-0.3-1.2-0.7-0.7C34.5,26,25.8,34.1,17,42
						C16.5,42.5,17.2,43.2,17.7,42.7L17.7,42.7z"/>
				</g>
				<g>
					<path d="M42.2,16.6c-2.7,1.3-5.6,1.9-8.3,3.1c-0.6,0.3-0.1,1.1,0.5,0.9c2.7-1.2,5.6-1.8,8.3-3.1C43.2,17.2,42.7,16.4,42.2,16.6
						L42.2,16.6z"/>
				</g>
				<g>
					<path d="M41.9,17.1c-0.2,2.3-1.2,4.3-2.2,6.4c-0.3,0.6,0.6,1.1,0.9,0.5c1-2.3,2.1-4.4,2.3-6.9C43,16.4,42,16.4,41.9,17.1
						L41.9,17.1z"/>
				</g>
			</g>
		</g>
		<g>
			<g>
				<path d="M46.1,14.3c1.3-1.4,2.2-3,3.5-4.4c0.4-0.5-0.3-1.2-0.7-0.7c-1.3,1.4-2.2,3-3.5,4.4C45,14.1,45.7,14.8,46.1,14.3
					L46.1,14.3z"/>
			</g>
			<g>
				<path d="M38.7,14.4c-0.1-1.7-0.6-3.6-1.5-5.1c-0.3-0.6-1.2-0.1-0.9,0.5c0.7,1.3,1.2,3.1,1.3,4.6C37.7,15.1,38.7,15.1,38.7,14.4
					L38.7,14.4z"/>
			</g>
			<g>
				<path d="M46.1,21.8c2.1-0.5,4.2-0.7,6.3-0.7c0.6,0,0.6-1,0-1c-2.2,0-4.4,0.3-6.5,0.8C45.3,21,45.5,21.9,46.1,21.8L46.1,21.8z"/>
			</g>
			<g>
				<path d="M43.8,27.2c2.2,1.1,4.2,2.6,5.8,4.5c0.4,0.5,1.1-0.2,0.7-0.7c-1.7-1.9-3.7-3.5-6-4.6C43.7,26.1,43.2,26.9,43.8,27.2
					L43.8,27.2z"/>
			</g>
			<g>
				<path d="M37.3,33.7c1.9,1.2,3.3,3,4.3,4.9c0.3,0.6,1.2,0.1,0.9-0.5c-1.1-2.1-2.6-4-4.7-5.3C37.2,32.5,36.7,33.4,37.3,33.7
					L37.3,33.7z"/>
			</g>
			<g>
				<path d="M27.7,40.6c1.2,2.4,3.2,4.4,4.5,6.8c0.3,0.6,1.2,0.1,0.9-0.5c-1.3-2.4-3.2-4.3-4.5-6.8C28.3,39.5,27.4,40,27.7,40.6
					L27.7,40.6z"/>
			</g>
			<g>
				<path d="M19.5,47.3c0.3,2,1,4,0.9,6.1c0,0.6,1,0.6,1,0c0.1-2.1-0.6-4.2-0.9-6.3C20.4,46.4,19.4,46.6,19.5,47.3L19.5,47.3z"/>
			</g>
			<g>
				<path d="M13.9,44.1c-2.8,1.1-5.4,2.8-8,4.2c-0.6,0.3-0.1,1.2,0.5,0.9c2.5-1.4,5.1-3.1,7.8-4.1C14.8,44.8,14.5,43.9,13.9,44.1
					L13.9,44.1z"/>
			</g>
			<g>
				<path d="M15.3,36.7c-2.8-1.3-5.7-2.1-8.8-2.2c-0.6,0-0.6,1,0,1c2.9,0.1,5.7,0.8,8.3,2.1C15.3,37.8,15.9,37,15.3,36.7L15.3,36.7z
					"/>
			</g>
			<g>
				<path d="M21,29.6c-2.3-1.3-4.7-2.7-6.6-4.6c-0.4-0.5-1.2,0.2-0.7,0.7c1.9,2,4.4,3.5,6.8,4.8C21,30.7,21.5,29.9,21,29.6L21,29.6z
					"/>
			</g>
			<g>
				<path d="M27.2,24.1c-1.9-1.7-3.4-3.9-5.3-5.6c-0.5-0.4-1.2,0.3-0.7,0.7c1.9,1.7,3.4,3.8,5.3,5.6C27,25.3,27.7,24.6,27.2,24.1
					L27.2,24.1z"/>
			</g>
			<g>
				<path d="M32.2,16.9c-0.8-2.1-2.6-3.5-4.2-4.9c-0.5-0.4-1.2,0.3-0.7,0.7c1.5,1.3,3.2,2.6,3.9,4.5C31.5,17.8,32.4,17.5,32.2,16.9
					L32.2,16.9z"/>
			</g>
		</g>
	</g>
</g>
</svg>
