<?xml version="1.0" encoding="utf-8"?>
<!-- Generator: Adobe Illustrator 22.0.1, SVG Export Plug-In . SVG Version: 6.00 Build 0)  -->
<svg version="1.1" baseProfile="tiny" xmlns="http://www.w3.org/2000/svg" xmlns:xlink="http://www.w3.org/1999/xlink" x="0px"
	 y="0px" viewBox="0 0 60 60" xml:space="preserve">
<g id="Layer_1" display="none">
	<g display="inline">
		<path fill="none" stroke="#000000" stroke-width="0.5509" stroke-linecap="round" stroke-linejoin="round" d="M-50.5,35.5
			c0,0.1,2.4-1.5,2.5-1.4c0,0.1-1.8,1.3-1.8,1.3c0,0.1,2.4-1.5,2.5-1.4c0,0-1,1.1-1,1.2c0,0.1,2.4-1.5,2.5-1.4c0,0-1.5,1.2-1.4,1.3
			c0,0.1,2.5-1.5,2.5-1.5c0,0-2,1.3-2,1.4c0,0.1,2.5-1.5,2.5-1.5c0,0-0.8,1.1-0.8,1.2c0,0.1,2.5-1.6,2.6-1.5c0,0-2.1,1.3-2.1,1.4
			c0,0.1,2.5-1.5,2.6-1.5c0,0-1,1.2-1,1.2c0,0.1,2.5-1.6,2.6-1.5c0,0-1.2,1.2-1.2,1.3c0,0.1,2.6-1.6,2.6-1.5c0,0.1-1.8,1.3-1.8,1.4
			c0,0.1,2.6-1.6,2.6-1.5c0,0-1.4,1.7-1.4,1.7c0,0,1.2-0.7,1.2-0.7c0,0.1-1.4,1.8-1.4,1.8c0,0,1.2-0.7,1.2-0.7c0,0-1.3,1.1-1.3,1.2
			c0,0,1.2-0.7,1.2-0.7c0,0.1-1.3,1.6-1.3,1.6c0,0,1.2-0.7,1.2-0.7c0,0-1.2,0.8-1.2,0.9c0,0,1.1-0.7,1.2-0.7c0,0-1.4,1.8-1.4,1.9
			c0,0,1.1-0.7,1.2-0.7c0,0-1.3,1.2-1.2,1.2c0,0,1.1-0.7,1.2-0.7c0,0-1.2,1-1.2,1c0,0,1.1-0.7,1.2-0.7c0,0.1-1.3,1.5-1.3,1.5
			c0,0,1.1-0.7,1.1-0.7c0,0-1.2,1.1-1.2,1.1c0,0,1.1-0.7,1.1-0.7c0,0-1.2,0.8-1.2,0.8c0,0,1.1-0.7,1.1-0.7c0,0-1.3,1.3-1.2,1.4
			c0,0,1.1-0.7,1.1-0.7c0,0-1.3,1.6-1.3,1.7c0,0,1.1-0.7,1.1-0.7c0,0-1.2,1-1.2,1c0,0,1.1-0.7,1.1-0.6c0,0-1.3,1.7-1.3,1.7
			c0,0,1.1-0.7,1.1-0.6c0,0-1.1,0.7-1.1,0.8c0,0,1.1-0.7,1.1-0.6c0,0-1.2,1.2-1.2,1.2c0,0,1.1-0.7,1.1-0.6c0,0.1-1.3,1.4-1.2,1.5
			c0,0,1.1-0.7,1.1-0.6c0,0-1.1,0.6-1.1,0.7c0,0,1.1-0.7,1.1-0.6"/>
		<path fill="none" stroke="#000000" stroke-width="0.5509" stroke-linecap="round" stroke-linejoin="round" d="M-44.4,43.8
			c0,0,0.9-0.6,0.9-0.5c0,0-0.1,1.3-0.1,1.3c0,0,0.9-0.6,0.9-0.5c0,0-0.6,0.8-0.6,0.9c0,0,0.9-0.6,0.9-0.5c0,0-0.8,0.6-0.8,0.6
			c0,0,0.9-0.6,0.9-0.5c0,0-0.5,0.9-0.5,0.9c0,0,0.9-0.6,0.9-0.5c0,0-0.9,0.5-0.9,0.6c0,0,0.9-0.6,0.9-0.5c0,0-0.1,1.3-0.1,1.3
			c0,0,1.4-0.8,1.4-0.8c0,0-1.2,1-1.2,1c0,0,1.1-0.7,1.1-0.6c0,0-0.9,0.8-0.9,0.8c0,0,0.8-0.5,0.9-0.5c0,0-0.3,1-0.3,1
			c0,0,0.1-0.1,0.1-0.1"/>
		<path fill="none" stroke="#000000" stroke-width="0.5509" stroke-linecap="round" stroke-linejoin="round" d="M-44.8,42.6
			c0,0,0.5-0.3,0.5-0.3c0.1,0.1-2.9,2.5-2.8,2.6c0.1,0.1,3.4-2.1,3.5-2c0.1,0.1-4.5,2.9-4.4,3c0.1,0.1,3.4-2.1,3.4-2
			c0.1,0.2-6.4,4.6-6.2,4.8c0.1,0.1,3.4-2.1,3.4-2c0.1,0.2-5.9,4.1-5.7,4.3c0.1,0.1,3.4-2.1,3.4-2c0.1,0.1-5.1,3.4-5,3.5
			c0,0.1,3.4-2.1,3.4-2c0.1,0.2-6,4.2-5.9,4.4c0.1,0.1,3.4-2.1,3.4-2"/>
		<path fill="none" stroke="#000000" stroke-width="0.5509" stroke-linecap="round" stroke-linejoin="round" d="M-53.1,35
			c0,0,0.3-0.2,0.3-0.2c0,0,0,0.4,0,0.5c0,0,1.1-0.7,1.1-0.7c0,0-1,0.8-1,0.8c0,0,1.5-1,1.6-0.9c0,0-1.2,1.3-1.1,1.4
			c0.1,0.1,2.8-1.8,2.8-1.6c0.1,0.1-2.6,1.9-2.5,2c0,0,0.9-0.5,0.9-0.5c0,0-0.5,0.9-0.5,0.9c0,0,0.9-0.5,0.9-0.5
			c0,0-0.5,0.9-0.5,0.9c0,0,0.9-0.6,0.9-0.5c0,0-0.4,1-0.4,1c0,0,0.9-0.5,0.9-0.5c0,0-0.4,1-0.4,1c0,0,0.9-0.5,0.9-0.5
			c0,0-0.7,0.8-0.7,0.8c0,0,0.9-0.6,0.9-0.5c0.1,0.1-2.4,2.5-2.4,2.5c0.1,0.1,3.1-1.9,3.1-1.8c0.1,0.2-6.1,4.5-6,4.7
			c0.1,0.1,3.4-2.1,3.5-2c0.1,0.1-5.8,4-5.7,4.3c0,0.1,3.4-2.1,3.5-2c0.1,0.2-6.3,4.7-6.2,4.8c0.1,0.1,3.4-2.1,3.5-2
			c0.1,0.2-4.1,2.5-4,2.6c0,0.1,3.4-2.1,3.5-2c0.1,0.1-3.5,2-3.5,2c0.1,0.1,3.4-2.1,3.5-2c0.1,0.1-5.6,3.8-5.4,4
			c0.1,0.1,3.4-2.1,3.5-2c0.1,0.2-4,3.3-4,3.4c0,0,1.3-0.8,1.3-0.8c0,0-0.9,1.2-0.9,1.2c0,0,0.9-0.6,0.9-0.5c0,0-0.7,0.8-0.7,0.8
			c0,0,0.9-0.6,0.9-0.5c0,0-0.9,0.6-0.8,0.6c0,0,0.9-0.6,0.9-0.5c0,0-0.2,1.2-0.2,1.3c0,0,0.9-0.6,0.9-0.5c0,0-0.9,0.6-0.8,0.6
			c0,0,0.9-0.6,0.9-0.5c0,0-0.6,0.8-0.6,0.8c0,0,0.9-0.6,0.9-0.5c0,0-0.4,1.1-0.4,1.1c0,0,0.9-0.6,0.9-0.5c0,0-0.7,0.7-0.7,0.8
			c0,0,0.9-0.6,0.9-0.5c0,0-0.6,0.8-0.6,0.9c0,0,0.9-0.5,0.9-0.5c0,0-0.9,0.6-0.9,0.6c0,0,0.9-0.6,0.9-0.5c0,0-0.6,0.8-0.6,0.8
			c0,0,0.9-0.6,0.9-0.5c0,0-0.7,0.7-0.7,0.7c0,0,0.9-0.6,0.9-0.5c0,0-0.7,0.7-0.7,0.7c0.1,0.1,4-2.5,4.1-2.4c0.1,0.1-4,2.5-3.9,2.6
			c0,0.1,3-1.8,3-1.8c0,0.1-2.8,2-2.7,2.1c0,0.1,1.5-0.9,1.5-0.9c0,0.1-1.5,0.9-1.5,0.9c0,0,1.2-0.8,1.3-0.7c0,0-1.1,0.9-1.1,0.9
			c0,0,0.5-0.3,0.5-0.3"/>
	</g>
	<path display="inline" d="M-37.9,4.7c0-0.2-0.2-0.3-0.3-0.3c-3.8,1.4-7.4,3.1-11.2,4.5c-0.1,0-0.1,0.1-0.1,0.1
		c-0.1,0.1-0.1,0.1-0.1,0.2c0,0,0,0,0,0c0,0,0,0.1,0.1,0.1c0.6,0.6,1.3,1.3,2,1.9c0.3,0.3,0.8,0.6,0.7,1.1c0,0,0,0.1-0.1,0.1
		c-0.5,0.6-1.4,1.2-1.9,1.7c-2.9,2.6-5.8,5.1-8.8,7.5c-0.1,0.1-0.1,0.2-0.1,0.3c0,0.1,0,0.1,0,0.2c0,0.1,0.1,0.2,0.1,0.3
		c0,0.1,0.1,0.1,0.1,0.1c0,0,0,0,0,0c1.4,1.1,3,1.9,4.4,3c0.1,0.1,0.2,0.1,0.2,0.1c0.1,0,0.1-0.1,0.2-0.1c1.2-1.6,2.6-3.1,4-4.6
		c0.8-0.8,1.6-1.7,2.4-2.5c0.9-1,1.8-2.4,2.9-3.2c0.7-0.5,1.1,0,1.8,0.4c0.8,0.5,1.5,1,2.2,1.6c0.1,0.1,0.4,0.1,0.5-0.1
		c0.4-1.5,0.6-3,0.7-4.6C-38.1,10.1-38,7.4-37.9,4.7z M-39.5,16.2c-1.1-0.9-2.4-1.4-3.7-2.2c-0.1-0.1-0.3,0-0.3,0
		c-1.7,1.9-3.1,3.9-4.8,5.8c-0.1,0.1-0.2,0.2-0.3,0.3c-1.5,1.6-3,3.2-4.3,4.9c-1.3-1.1-2.6-2.1-3.9-3.2c0.6-0.6,2-1.6,2.4-1.9
		c0.9-0.8,1.9-1.6,2.8-2.4c1.9-1.7,3.8-3.5,5.7-5.3c0,0,0,0,0,0c0.1-0.1,0.2-0.2,0.3-0.3c0.1-0.1,0.1-0.3,0-0.4
		c-0.8-0.9-1.9-1.5-2.8-2.3c1.2-0.1,2.4-0.7,3.4-1.1c2.2-0.9,4.4-1.8,6.6-2.7c-0.1,1.7-0.3,3.4-0.3,5.1c0,1.1-0.1,2.1-0.2,3.2
		C-39.2,14.7-39.4,15.4-39.5,16.2z"/>
	<g display="inline">
		<g>
			<path d="M-40.3,15.7c0.2-3.3,0.5-6.5,0.9-9.8c0-0.4-0.5-0.3-0.6,0c-0.4,3.2-0.7,6.5-0.9,9.8C-40.8,16.1-40.3,16.1-40.3,15.7
				L-40.3,15.7z"/>
		</g>
		<g>
			<path d="M-41.9,14.9C-41.4,12-41.1,9-41,6.1c0-0.4-0.5-0.4-0.6,0c-0.1,2.9-0.4,5.8-0.9,8.7C-42.5,15.1-42,15.2-41.9,14.9
				L-41.9,14.9z"/>
		</g>
		<g>
			<path d="M-43.2,14.5c0.2-2.4,0.4-4.9,0.7-7.3c0-0.4-0.5-0.3-0.6,0c-0.3,2.4-0.5,4.9-0.7,7.3C-43.8,14.9-43.2,14.9-43.2,14.5
				L-43.2,14.5z"/>
		</g>
		<g>
			<path d="M-44.9,7.8c-0.3,3-0.5,6-0.8,9c0,0.4,0.5,0.4,0.6,0c0.3-3,0.5-6,0.8-9C-44.4,7.4-44.9,7.4-44.9,7.8L-44.9,7.8z"/>
		</g>
		<g>
			<path d="M-47.2,9c0,0.6-0.1,1.1-0.2,1.7c-0.1,0.3,0.4,0.5,0.5,0.1c0.2-0.6,0.2-1.2,0.2-1.9C-46.7,8.6-47.2,8.6-47.2,9L-47.2,9z"
				/>
		</g>
		<g>
			<path d="M-47.6,13.3c-0.2,2.1-0.4,4.3-0.6,6.4c0,0.4,0.5,0.4,0.6,0c0.2-2.1,0.4-4.3,0.6-6.4C-47.1,13-47.6,13-47.6,13.3
				L-47.6,13.3z"/>
		</g>
		<g>
			<path d="M-49.9,15.4c-0.2,2.3-0.5,4.7-0.8,7c-0.1,0.3,0.5,0.5,0.5,0.1c0.4-2.4,0.6-4.8,0.8-7.2C-49.4,15.1-49.9,15.1-49.9,15.4
				L-49.9,15.4z"/>
		</g>
		<g>
			<path d="M-52.5,17.6c-0.3,2.6-0.6,5.1-0.8,7.7c0,0.4,0.5,0.3,0.6,0c0.3-2.6,0.6-5.1,0.8-7.7C-51.9,17.2-52.4,17.2-52.5,17.6
				L-52.5,17.6z"/>
		</g>
		<g>
			<path d="M-55,19.7c-0.3,1.3-0.5,2.6-0.6,4c0,0.4,0.5,0.4,0.6,0c0.1-1.3,0.2-2.5,0.6-3.8C-54.4,19.5-54.9,19.4-55,19.7L-55,19.7z"
				/>
		</g>
	</g>
	<g display="inline">
		<path d="M-57.6,22.3c0,1-0.5,2.5,0.3,3.2c0.6,0.6,1.5,1,2.2,1.4c0.8,0.5,1.5,1,2.3,1.5c0.3,0.2,0.6-0.3,0.3-0.5
			c-1.1-0.7-2.2-1.4-3.3-2.1c-0.7-0.4-1.2-0.7-1.4-1.6c-0.1-0.6,0.1-1.3,0.1-1.9C-57.1,21.9-57.6,21.9-57.6,22.3L-57.6,22.3z"/>
	</g>
	<g display="inline">
		<path d="M-53,25.5c0.1,0.8,0.2,1.7,0.3,2.5c0,0.3,0.6,0.4,0.6,0c-0.1-0.9-0.2-1.8-0.3-2.6C-52.6,25-53.1,25.2-53,25.5L-53,25.5z"
			/>
	</g>
	<g display="inline">
		<path d="M-52.1,28.2c0.7-1.1,1.9-1.9,2.8-2.9c1.2-1.4,2.2-2.9,3.4-4.2c0.7-0.8,2.3-1.9,2.7-2.9c0.4-0.9,0.1-2.2,0-3.1
			c0-0.4-0.6-0.4-0.6,0c0.1,2.2-0.1,3.1-1.7,4.6c-1,1.1-2,2.2-3,3.4c-0.7,0.9-1.4,1.9-2.2,2.7c-0.7,0.7-1.5,1.3-2.1,2.2
			C-52.8,28.2-52.3,28.5-52.1,28.2L-52.1,28.2z"/>
	</g>
	<g display="inline">
		<path d="M-43.3,18.2c1.4,0.6,2.9,1.1,4.1,2.2c0.2,0.1,0.5,0.1,0.5-0.2c0-1.1,0-2.3-0.1-3.4c0-0.4-0.6-0.4-0.6,0
			c0.1,1.1,0.1,2.3,0.1,3.4c0.2-0.1,0.3-0.1,0.5-0.2c-1.2-1.1-2.7-1.6-4.2-2.2C-43.4,17.6-43.7,18.1-43.3,18.2L-43.3,18.2z"/>
	</g>
	<g display="inline">
		<path d="M-38.2,4.8c0.2,0.8,0.4,1.5,0.5,2.3c0.2,0.7,0.6,1.8,0.5,2.6c-0.1,0.3,0.5,0.5,0.5,0.1c0.1-0.7-0.1-1.4-0.3-2.1
			c-0.2-1-0.5-2-0.7-3C-37.7,4.3-38.2,4.5-38.2,4.8L-38.2,4.8z"/>
	</g>
	<g display="inline">
		<path d="M-37.2,9.9c-0.2,3.5-0.9,7-2,10.3c-0.1,0.3,0.4,0.5,0.5,0.1c1.2-3.4,1.8-6.9,2.1-10.5C-36.6,9.6-37.2,9.6-37.2,9.9
			L-37.2,9.9z"/>
	</g>
	<g display="inline">
		<path d="M-49.6,9.4c-0.1,0.9-0.1,1.9,0.1,2.8c0.2,0.8,0.9,1,1.6,1.3c0.3,0.2,0.6-0.3,0.3-0.5c-0.3-0.2-0.7-0.3-1-0.5
			c-0.4-0.2-0.3-0.3-0.4-0.7c-0.1-0.8-0.1-1.6-0.1-2.4C-49.1,9.1-49.6,9.1-49.6,9.4L-49.6,9.4z"/>
	</g>
	<g display="inline">
		<path d="M-57.1,23.2c0,0.6,0.1,1.3,0.1,1.9c0,0.4,0.6,0.4,0.6,0c0-0.6-0.1-1.3-0.1-1.9C-56.5,22.9-57.1,22.9-57.1,23.2L-57.1,23.2
			z"/>
	</g>
	<g display="inline">
		<path d="M-56,23.7c0,0.7,0.1,1.4,0.1,2.2c0,0.4,0.6,0.4,0.6,0c0-0.7-0.1-1.4-0.1-2.2C-55.5,23.3-56,23.3-56,23.7L-56,23.7z"/>
	</g>
	<g display="inline">
		<path d="M-55.3,24.4c0.1,0.6,0.2,1.3,0.3,1.9c0,0.3,0.6,0.4,0.6,0c-0.1-0.7-0.2-1.4-0.3-2C-54.8,23.9-55.4,24.1-55.3,24.4
			L-55.3,24.4z"/>
	</g>
	<g display="inline">
		<path d="M-54.4,24.9c0.1,0.7,0.2,1.3,0.4,2c0.1,0.3,0.6,0.2,0.5-0.1c-0.2-0.6-0.3-1.3-0.4-2C-54,24.5-54.5,24.6-54.4,24.9
			L-54.4,24.9z"/>
	</g>
	<g display="inline">
		<path d="M-53.4,25.6c0.1,0.6,0.1,1.1,0.2,1.7c0,0.3,0.6,0.4,0.6,0c-0.1-0.6-0.1-1.1-0.2-1.7C-52.9,25.3-53.5,25.3-53.4,25.6
			L-53.4,25.6z"/>
	</g>
	<g display="inline">
		<path d="M-52.3,24.8c0.1,0.8,0.3,1.6,0.3,2.4c0.2,0,0.4,0,0.6,0c0-0.3-0.2-0.6-0.2-0.8c0-0.4-0.6-0.4-0.6,0c0,0.3,0.2,0.6,0.2,0.8
			c0,0.4,0.6,0.4,0.6,0c0-0.8-0.2-1.6-0.3-2.4C-51.8,24.4-52.3,24.4-52.3,24.8L-52.3,24.8z"/>
	</g>
	<g display="inline">
		<path d="M-51.5,23.6c0,0.9,0.3,1.8,0.3,2.7c0,0.4,0.6,0.4,0.6,0c-0.1-0.9-0.3-1.8-0.3-2.7C-50.9,23.3-51.5,23.3-51.5,23.6
			L-51.5,23.6z"/>
	</g>
	<g display="inline">
		<path d="M-50.6,22.9c0.1,0.9,0.2,1.8,0.3,2.7c0.1,0.3,0.6,0.2,0.5-0.1c-0.1-0.9-0.2-1.8-0.3-2.7C-50.1,22.4-50.7,22.5-50.6,22.9
			L-50.6,22.9z"/>
	</g>
	<g display="inline">
		<path d="M-49.1,22.3c0-0.1,0-0.3,0-0.4c-0.2,0-0.4,0-0.5,0.1c0.1,0.6,0.2,1.3,0.3,1.9c0.1,0.3,0.6,0.2,0.5-0.1
			c-0.1-0.6-0.2-1.3-0.3-1.9c-0.1-0.3-0.5-0.2-0.5,0.1c0,0.1,0,0.3,0,0.4C-49.6,22.6-49,22.7-49.1,22.3L-49.1,22.3z"/>
	</g>
	<g display="inline">
		<path d="M-48.9,21.4c0.1,0.6,0.1,1.1,0.2,1.7c0,0.2,0.4,0.4,0.5,0.1c0.1-0.1,0.1-0.3,0.1-0.4c0.1-0.3-0.5-0.5-0.5-0.1
			c0,0.1,0,0.2-0.1,0.3c0.2,0,0.3,0.1,0.5,0.1c-0.1-0.6-0.1-1.1-0.2-1.7C-48.4,21-48.9,21-48.9,21.4L-48.9,21.4z"/>
	</g>
	<g display="inline">
		<path d="M-48.1,20.3c0.1,0.6,0.2,1.2,0.3,1.7c0,0.2,0.3,0.3,0.5,0.1c0,0,0,0,0.1-0.1c0.2-0.3-0.2-0.7-0.4-0.4c0,0,0,0-0.1,0.1
			c0.2,0,0.3,0.1,0.5,0.1c-0.1-0.6-0.2-1.2-0.3-1.7C-47.6,19.8-48.1,19.9-48.1,20.3L-48.1,20.3z"/>
	</g>
	<g display="inline">
		<path d="M-47.2,19.1c0,0.5,0.1,1.1,0.2,1.6c0.1,0.3,0.6,0.2,0.5-0.1c-0.1-0.5-0.2-1-0.2-1.5C-46.6,18.7-47.2,18.7-47.2,19.1
			L-47.2,19.1z"/>
	</g>
	<g display="inline">
		<path d="M-46.2,18.5c0,0.6,0.1,1.1,0.2,1.6c0.1,0.3,0.6,0.2,0.5-0.1c-0.1-0.5-0.2-1-0.2-1.5C-45.6,18.2-46.2,18.2-46.2,18.5
			L-46.2,18.5z"/>
	</g>
	<g display="inline">
		<path d="M-45.3,17.8c0,0.5,0.1,1,0.1,1.5c0.1,0.3,0.6,0.2,0.5-0.1c-0.1-0.4-0.1-0.9-0.1-1.3C-44.8,17.4-45.3,17.4-45.3,17.8
			L-45.3,17.8z"/>
	</g>
	<g display="inline">
		<path d="M-44.4,16.7c0,0.5,0.1,1,0.2,1.6c0.1,0.3,0.6,0.2,0.5-0.1c-0.1-0.5-0.1-0.9-0.2-1.4C-43.9,16.3-44.4,16.3-44.4,16.7
			L-44.4,16.7z"/>
	</g>
	<g display="inline">
		<path d="M-43.8,15.7c0,0.5,0.1,1,0.2,1.4c0.1,0.3,0.6,0.2,0.5-0.1c-0.1-0.4-0.1-0.9-0.2-1.3C-43.2,15.3-43.8,15.3-43.8,15.7
			L-43.8,15.7z"/>
	</g>
	<g display="inline">
		<path d="M-42.9,16c0,0.8,0.1,1.6,0.1,2.4c0,0.3,0.5,0.4,0.5,0.1c0-0.2,0-0.3,0.1-0.5c0.1-0.3-0.5-0.5-0.5-0.1c0,0.2,0,0.3-0.1,0.5
			c0.2,0,0.4,0,0.5,0.1c0-0.8-0.1-1.6-0.1-2.4C-42.3,15.6-42.9,15.6-42.9,16L-42.9,16z"/>
	</g>
	<g display="inline">
		<path d="M-42.4,15.6c0,0.5,0.1,1,0.1,1.5c0.1,0.4,0,1,0.3,1.3c0.1,0.1,0.3,0.2,0.4,0.1c0,0,0,0,0,0c0.1-0.1,0.1-0.3,0-0.4
			c0,0,0,0,0,0c-0.2-0.3-0.6,0.1-0.4,0.4c0,0,0,0,0,0c0-0.1,0-0.3,0-0.4c0,0,0,0,0,0c0.1,0,0.3,0,0.4,0.1c-0.2-0.3-0.2-1-0.2-1.3
			c0-0.4-0.1-0.8-0.1-1.2C-41.9,15.3-42.4,15.3-42.4,15.6L-42.4,15.6z"/>
	</g>
	<g display="inline">
		<path d="M-41.5,16.9c0.1,0.6,0.2,1.1,0.3,1.7c0.1,0.2,0.4,0.3,0.5,0.1c0.1-0.1,0.1-0.3,0.1-0.4c0.1-0.3-0.5-0.5-0.5-0.1
			c0,0.1,0,0.2-0.1,0.3c0.2,0,0.3,0,0.5,0.1c-0.1-0.6-0.2-1.1-0.3-1.7C-41,16.4-41.6,16.6-41.5,16.9L-41.5,16.9z"/>
	</g>
	<g display="inline">
		<path d="M-40.7,17c0.1,0.4,0.2,0.9,0.3,1.3c0.1,0.3,0.6,0.2,0.5-0.1c-0.1-0.4-0.2-0.9-0.3-1.3C-40.3,16.5-40.8,16.7-40.7,17
			L-40.7,17z"/>
	</g>
	<g display="inline">
		<path d="M-39.8,17.3c0,0.6,0.2,1.2,0.3,1.8c0.1,0.3,0.6,0.2,0.5-0.1c-0.2-0.5-0.3-1.1-0.3-1.7C-39.3,16.9-39.8,16.9-39.8,17.3
			L-39.8,17.3z"/>
	</g>
	<g display="inline">
		<path d="M-38.9,16.4c0.1,0.6,0.1,1.2,0.2,1.8c0,0.2,0.4,0.4,0.5,0.1c0,0,0-0.1,0.1-0.1c0.1-0.3-0.3-0.6-0.5-0.3c0,0,0,0.1-0.1,0.1
			c0.2,0,0.3,0.1,0.5,0.1c-0.1-0.6-0.1-1.2-0.2-1.8C-38.4,16-38.9,16-38.9,16.4L-38.9,16.4z"/>
	</g>
	<g display="inline">
		<path d="M-38.4,14.2c0,0.9,0,1.7,0.1,2.6c0,0.4,0.5,0.4,0.6,0c0-0.2,0-0.4,0-0.6c0-0.4-0.5-0.4-0.6,0c0,0.2,0,0.4,0,0.6
			c0.2,0,0.4,0,0.6,0c-0.1-0.9-0.1-1.7-0.1-2.6C-37.8,13.8-38.4,13.8-38.4,14.2L-38.4,14.2z"/>
	</g>
	<g display="inline">
		<path d="M-38.4,12.3c0,0.6,0.1,1.3,0.3,1.9c0.1,0.3,0.5,0.3,0.5,0c0.1-0.4,0.1-0.7,0-1c-0.1-0.3-0.6-0.2-0.5,0.1
			c0.1,0.3,0.1,0.5,0,0.7c0.2,0,0.4,0,0.5,0c-0.1-0.6-0.2-1.2-0.3-1.8C-37.9,12-38.4,12-38.4,12.3L-38.4,12.3z"/>
	</g>
	<g display="inline">
		<path d="M-38.2,10.5c0.1,0.8,0.3,1.6,0.4,2.4c0.1,0.3,0.5,0.2,0.5-0.1c0-0.3,0-0.6,0-0.9c-0.1-0.3-0.6-0.2-0.5,0.1
			c0,0.2,0,0.5,0,0.7c0.2,0,0.4,0,0.5-0.1c-0.1-0.8-0.3-1.6-0.4-2.4C-37.8,10-38.3,10.2-38.2,10.5L-38.2,10.5z"/>
	</g>
	<g display="inline">
		<path d="M-38,9.5c0.1,0.6,0.2,1.2,0.3,1.7c0.1,0.3,0.5,0.3,0.5,0c0,0,0-0.1,0-0.1c0.1-0.3-0.4-0.5-0.5-0.1c0,0,0,0.1,0,0.1
			c0.2,0,0.4,0,0.5,0c-0.1-0.5-0.2-1-0.3-1.6C-37.5,9.1-38.1,9.1-38,9.5L-38,9.5z"/>
	</g>
	<g display="inline">
		<path d="M-38.1,7.4c0,0.3,0.1,0.6,0.3,0.9c0.2,0.3,0.7,0,0.5-0.3c-0.1-0.2-0.2-0.4-0.2-0.7C-37.6,7.1-38.2,7-38.1,7.4L-38.1,7.4z"
			/>
	</g>
	<g display="inline">
		<path d="M-37.4,6.8c0,0.2,0.1,0.4,0.2,0.6c0.1,0.3,0.6,0,0.5-0.3c-0.1-0.1-0.1-0.3-0.1-0.4C-37,6.3-37.5,6.5-37.4,6.8L-37.4,6.8z"
			/>
	</g>
	<g display="inline">
		<path d="M-48.8,10.2c0,0.7,0.1,1.4,0.1,2.2c0,0.4,0.6,0.4,0.6,0c0-0.7-0.1-1.4-0.1-2.2C-48.3,9.9-48.8,9.9-48.8,10.2L-48.8,10.2z"
			/>
	</g>
	<g display="inline">
		<path d="M-47.7,10.9c0,0.7,0,1.3,0,2c0,0.4,0.6,0.4,0.6,0c0-0.7-0.1-1.3,0-2C-47.1,10.6-47.7,10.6-47.7,10.9L-47.7,10.9z"/>
	</g>
</g>
<g id="Layer_2">
	<g id="Arrow">
		<g id="Select">
			<path d="M44.7,10.8c0-0.3-0.3-0.6-0.6-0.5c-6.4,2.4-12.6,5.2-19,7.6c-0.1,0-0.2,0.1-0.2,0.2c-0.1,0.1-0.1,0.2-0.1,0.4
				c0,0,0,0,0,0c0,0.1,0.1,0.1,0.1,0.2c1.1,1.1,2.2,2.2,3.4,3.3c0.6,0.6,1.3,1.1,1.2,1.8c0,0.1-0.1,0.2-0.1,0.2
				c-0.9,1-2.4,2.1-3.3,2.9c-4.9,4.4-9.9,8.7-15.1,12.7c-0.2,0.1-0.2,0.3-0.1,0.5c0,0.1,0,0.2,0,0.3c0.1,0.2,0.1,0.4,0.2,0.5
				c0,0.1,0.1,0.2,0.2,0.2c0,0,0,0,0,0c2.5,1.8,5.2,3.2,7.5,5.2c0.1,0.1,0.3,0.1,0.4,0.1c0.1,0,0.2-0.1,0.3-0.2
				c2-2.8,4.4-5.3,6.7-7.8c1.4-1.4,2.7-2.8,4.1-4.3c1.5-1.7,3-4.1,4.9-5.4c1.1-0.8,1.9,0.1,3,0.8c1.3,0.8,2.6,1.7,3.7,2.7
				c0.3,0.2,0.7,0.1,0.8-0.2c0.6-2.5,1-5.1,1.2-7.8C44.3,19.9,44.4,15.3,44.7,10.8z M41.8,30.3c-1.9-1.5-4.1-2.4-6.2-3.7
				c-0.2-0.1-0.4-0.1-0.6,0.1c-2.9,3.2-5.3,6.7-8.2,9.9c-0.2,0.2-0.3,0.3-0.5,0.5c-2.6,2.7-5.2,5.4-7.4,8.4
				c-2.2-1.9-4.4-3.7-6.7-5.4c1-1.1,3.5-2.7,4-3.2c1.6-1.3,3.1-2.7,4.7-4c3.3-2.9,6.5-5.9,9.6-8.9c0,0,0,0,0,0
				c0.1-0.1,0.3-0.3,0.5-0.4c0.2-0.2,0.2-0.5,0-0.7c-1.4-1.5-3.2-2.6-4.7-3.9c2-0.2,4.1-1.2,5.8-1.8c3.8-1.5,7.5-3.1,11.3-4.6
				c-0.2,2.9-0.4,5.7-0.5,8.6c-0.1,1.8-0.1,3.6-0.3,5.4C42.4,27.7,42.1,29,41.8,30.3z"/>
			<g>
				<path d="M43.9,11.1c0.6,4.3,1.4,9.1,0.7,13.4C44,28.3,43.5,32.1,43,36c0.2-0.1,0.5-0.2,0.7-0.3c-2.2-1.7-4.7-2.9-7.2-4.2
					c-0.2-0.1-0.4-0.1-0.6,0.1c-2.5,2.7-4.9,5.4-7.3,8.2c-2,2.3-4.4,4.3-6.3,6.8c-0.6,0.7-1.1,1.4-1.7,2.1c-0.8,0.8-0.8,1-1.8,0.6
					c-1.3-0.6-2.7-1.9-3.8-2.8c-0.8-0.6-1.9-1.3-2.6-2c-0.9-1.1-0.6-2.8-0.7-4.3c-0.1-0.6-1-0.6-0.9,0c0.1,1.2-0.2,3.3,0.3,4.4
					c0.2,0.5,1.2,1,1.6,1.3c2.2,1.7,4.4,3.5,6.7,4.9c0.2,0.1,0.4,0.1,0.6-0.1c1.7-1.8,3.2-3.8,4.9-5.6c1.9-2,3.9-3.9,5.6-6
					c1.5-2,3.3-4.3,5.3-5.9c1.2-0.9,2.4,0.1,3.6,0.8c1.3,0.7,2.6,1.5,3.8,2.5c0.2,0.2,0.6,0,0.7-0.3c0.6-4.2,1.4-8.4,1.8-12.6
					c0.4-4.2-0.3-8.7-0.9-12.8C44.7,10.3,43.8,10.5,43.9,11.1L43.9,11.1z"/>
			</g>
			<g>
				<g>
					<path d="M18.6,46c0.1,1.3,0.3,2.6,0.4,3.9c0.1,0.6,1,0.6,0.9,0c-0.1-1.3-0.3-2.6-0.4-3.9C19.5,45.4,18.5,45.4,18.6,46L18.6,46z
						"/>
				</g>
				<g>
					<path d="M15.7,44c0.1,1.4,0.2,2.7,0.4,4.1c0.1,0.6,1,0.6,0.9,0c-0.2-1.4-0.3-2.7-0.4-4.1C16.6,43.4,15.6,43.4,15.7,44L15.7,44z
						"/>
				</g>
				<g>
					<path d="M13.3,42.2c-0.1,1.2,0,2.5,0.1,3.7c0.1,0.6,1,0.6,0.9,0c-0.1-1.2-0.2-2.5-0.1-3.7C14.2,41.6,13.3,41.6,13.3,42.2
						L13.3,42.2z"/>
				</g>
				<g>
					<path d="M20.8,43.5c0.1,1.4,0.2,2.9,0.4,4.3c0.1,0.6,1,0.6,0.9,0c-0.2-1.4-0.3-2.9-0.4-4.3C21.7,42.9,20.7,42.9,20.8,43.5
						L20.8,43.5z"/>
				</g>
				<g>
					<path d="M22.9,41.2c0.2,1.3,0.4,2.5,0.5,3.8c0.1,0.6,1,0.6,0.9,0c-0.1-1.4-0.3-2.7-0.6-4C23.7,40.4,22.8,40.6,22.9,41.2
						L22.9,41.2z"/>
				</g>
				<g>
					<path d="M25.2,38.7c0.3,1.3,0.5,2.7,0.5,4c0,0.6,1,0.6,0.9,0c-0.1-1.4-0.3-2.9-0.6-4.3C26,37.8,25.1,38.1,25.2,38.7L25.2,38.7z
						"/>
				</g>
				<g>
					<path d="M27.4,36.4c0.3,1.3,0.5,2.6,0.7,3.9c0.1,0.6,1,0.3,0.9-0.2c-0.2-1.3-0.4-2.6-0.7-3.9C28.2,35.5,27.2,35.8,27.4,36.4
						L27.4,36.4z"/>
				</g>
				<g>
					<path d="M29.5,33.8c0,0.6,0.3,1.1,0.4,1.7c0.2,0.7,0.3,1.5,0.3,2.3c0,0.6,0.9,0.6,0.9,0c0-0.7,0-1.3-0.2-2
						c-0.1-0.7-0.5-1.3-0.5-2C30.4,33.2,29.4,33.2,29.5,33.8L29.5,33.8z"/>
				</g>
				<g>
					<path d="M31.8,31.1c-0.1,1.3,0.5,2.5,0.5,3.8c0,0.6,0.9,0.6,0.9,0c0-1.3-0.6-2.5-0.5-3.8C32.8,30.5,31.9,30.5,31.8,31.1
						L31.8,31.1z"/>
				</g>
				<g>
					<path d="M34.9,27.8c-0.2,1.4,0.3,3,0.5,4.4c0.1,0.6,1,0.3,0.9-0.2c-0.2-1.2-0.7-2.6-0.5-3.9C35.9,27.5,35,27.2,34.9,27.8
						L34.9,27.8z"/>
				</g>
				<g>
					<path d="M38,29.3c0.2,1.3,0.3,2.6,0.6,3.8c0.1,0.6,1,0.3,0.9-0.2c-0.2-1.2-0.4-2.4-0.5-3.6C38.8,28.7,37.9,28.7,38,29.3
						L38,29.3z"/>
				</g>
				<g>
					<path d="M41.6,31.6c0.2,1.3,0.5,2.6,0.8,3.9c0.2,0.6,1.1,0.3,0.9-0.2c-0.4-1.3-0.7-2.6-0.8-3.9C42.4,30.7,41.5,31,41.6,31.6
						L41.6,31.6z"/>
				</g>
				<g>
					<path d="M42.6,28.3c0.1,1.2,0.7,2.2,0.8,3.4c0.1,0.6,1,0.6,0.9,0c-0.1-1.2-0.8-2.2-0.8-3.4C43.5,27.7,42.6,27.7,42.6,28.3
						L42.6,28.3z"/>
				</g>
				<g>
					<path d="M43,23c0.3,1.2,0.7,2.3,1,3.5c0.2,0.6,1.1,0.3,0.9-0.2c-0.3-1.2-0.7-2.3-1-3.5C43.7,22.1,42.8,22.4,43,23L43,23z"/>
				</g>
				<g>
					<path d="M43.3,17.9c0.2,0.8,0.6,1.5,0.9,2.2c0.4,0.9,0.5,1.8,0.7,2.7c0.1,0.6,1,0.3,0.9-0.2c-0.1-0.9-0.3-1.8-0.6-2.6
						c-0.3-0.8-0.7-1.5-0.9-2.3C44,17,43.1,17.3,43.3,17.9L43.3,17.9z"/>
				</g>
				<g>
					<path d="M27.1,20.5c0.1,1.5,0.2,3,0.3,4.5c0,0.6,1,0.6,0.9,0c-0.1-1.5-0.2-3-0.3-4.5C28,19.9,27,19.9,27.1,20.5L27.1,20.5z"/>
				</g>
				<g>
					<path d="M24.7,18.4c0,1,0.1,1.9,0.1,2.8c0,0.7-0.1,1.7,0.1,2.3c0.4,1.1,2,1.9,2.9,2.6c0.5,0.3,1-0.5,0.5-0.8
						c-1.1-0.8-2.4-1.4-2.5-2.9c0-1.3-0.2-2.7-0.2-4C25.7,17.8,24.7,17.8,24.7,18.4L24.7,18.4z"/>
				</g>
			</g>
		</g>
		<g display="none">
			<g display="inline">
				<path d="M49.8,5.2c0.7-1.3,1.6-2.5,2.8-3.5c0.6-0.5-0.3-1.4-0.9-0.9c-1.2,1.1-2.2,2.3-3,3.7C48.4,5.2,49.4,5.8,49.8,5.2
					L49.8,5.2z"/>
			</g>
			<g display="inline">
				<path d="M52.3,12.9c1.2-0.5,2.4-0.7,3.7-0.6c0.8,0,0.8-1.2,0-1.2c-1.4-0.1-2.7,0.1-4,0.6C51.3,12.1,51.6,13.2,52.3,12.9
					L52.3,12.9z"/>
			</g>
			<g display="inline">
				<path d="M52.4,22.6c1.8-0.2,3.4,0.1,5.1,0.8c0.7,0.3,1-0.9,0.3-1.2c-1.7-0.7-3.5-1-5.4-0.8C51.6,21.4,51.6,22.6,52.4,22.6
					L52.4,22.6z"/>
			</g>
			<g display="inline">
				<path d="M51.7,29.3c1.1-0.3,1.9,0.5,2.8,1c0.7,0.4,1.3,0.6,2.1,0.6c0.8,0,0.8-1.2,0-1.2c-1.1,0-2-0.8-3-1.3
					c-0.7-0.3-1.5-0.5-2.3-0.3C50.7,28.3,51,29.5,51.7,29.3L51.7,29.3z"/>
			</g>
			<g display="inline">
				<path d="M48.8,36c0.8,1.3,1.8,2.4,3,3.3c0.6,0.5,1.2-0.6,0.6-1c-1-0.8-1.9-1.7-2.6-2.8C49.4,34.7,48.4,35.3,48.8,36L48.8,36z"/>
			</g>
			<g display="inline">
				<path d="M39.9,5.4c-0.1-1.6-0.3-3.2-0.6-4.7c-0.2-0.8-1.3-0.4-1.2,0.3c0.3,1.5,0.5,2.9,0.6,4.4C38.7,6.2,40,6.2,39.9,5.4
					L39.9,5.4z"/>
			</g>
			<g display="inline">
				<path d="M31.3,8.4c-1.1-1.4-2.1-2.9-2.8-4.5c-0.3-0.7-1.4-0.1-1,0.6c0.8,1.7,1.8,3.3,3,4.8C30.9,9.9,31.8,9,31.3,8.4L31.3,8.4z"
					/>
			</g>
			<g display="inline">
				<path d="M22.8,12.7c-1.3-0.9-2.7-1.8-4-2.7c-0.6-0.4-1.3,0.6-0.6,1c1.3,0.9,2.7,1.8,4,2.7C22.8,14.2,23.5,13.1,22.8,12.7
					L22.8,12.7z"/>
			</g>
		</g>
	</g>
	<g id="Rectangle" display="none">
		<g display="inline">
			<g>
				<path d="M18.8,16.8c4.5-0.1,8.9-0.1,13.4-0.1c2,0,4,0,6,0c1.5,0,5.6-0.7,6.4,0.7c0.4,0.7,0,2.6,0,3.4c0,1.1,0,2.2-0.1,3.4
					c-0.1,2.2-0.1,4.5-0.1,6.7c0,2.2,0.1,4.4,0.3,6.6c0.1,1.1,0.5,2.5,0.4,3.6c-0.2,1.6-0.7,1.8-2.3,1.8c-4.3,0-8.6,0.1-12.8,0.1
					c-2,0-4,0-6.1,0c-2,0-4.4,0.4-6.4,0c-1.6-0.3-1.8-0.5-1.8-2.2c0-1.2,0-2.3,0-3.5c0.1-2.3,0.3-4.6,0.5-6.9
					c0.3-4.8-0.3-9.6,0.1-14.4c-0.2,0.2-0.4,0.4-0.6,0.6C16.6,16.8,17.7,16.8,18.8,16.8c0.8,0,0.8-1.2,0-1.3c-1.1-0.1-2.1,0-3.2,0
					c-0.4,0-0.6,0.3-0.6,0.6c-0.4,4.5,0.1,9,0,13.4c-0.2,4.3-1.1,8.9-0.4,13.3c0.1,0.7,0.1,1.1,0.8,1.4c0.5,0.2,1.2,0,1.7,0
					c1.2,0,2.5,0,3.7,0c4.1,0,8.1,0,12.2-0.1c1.9,0,3.8,0,5.7,0c2,0,4.5,0.4,6.5,0c2.4-0.5,1-5,0.8-6.7c-0.4-4.4-0.3-8.9-0.2-13.3
					c0.1-2.1,0.1-4.2,0.1-6.2c0-0.7,0.2-1.9-0.5-2.4c-1.1-0.8-4.5-0.1-5.8-0.1c-2.2,0-4.3,0-6.5,0c-4.7,0-9.5,0-14.2,0.1
					C18,15.6,17.9,16.8,18.8,16.8z"/>
			</g>
			<g>
				<path d="M14.5,41.4c1,1.7,3,2.7,4.9,2.9c0.8,0.1,0.8-1.2,0-1.3c-1.4-0.2-3.1-1-3.9-2.3C15.1,40.1,14.1,40.7,14.5,41.4L14.5,41.4
					z"/>
			</g>
			<g>
				<path d="M19.2,42.2c1.1,0.8,2.3,1.4,3.6,2c0.7,0.3,1.4-0.8,0.6-1.1c-1.2-0.5-2.4-1.2-3.6-2C19.1,40.7,18.5,41.8,19.2,42.2
					L19.2,42.2z"/>
			</g>
			<g>
				<path d="M22.9,42.1c0.9,0.7,1.9,1.4,3,2c0.7,0.4,1.3-0.7,0.6-1.1c-1-0.6-2-1.2-3-2C22.9,40.5,22.3,41.6,22.9,42.1L22.9,42.1z"/>
			</g>
			<g>
				<path d="M27.5,42.1c1.1,0.8,2.2,1.5,3.5,2c0.8,0.3,1.1-0.9,0.3-1.2c-1.1-0.4-2-1-2.9-1.7C27.7,40.7,26.8,41.6,27.5,42.1
					L27.5,42.1z"/>
			</g>
			<g>
				<path d="M31.9,41.8c1.2,0.7,2.4,1.4,3.6,2.1c0.7,0.4,1.3-0.7,0.6-1.1c-1.2-0.7-2.4-1.4-3.6-2.1C31.8,40.3,31.2,41.4,31.9,41.8
					L31.9,41.8z"/>
			</g>
			<g>
				<path d="M36.3,41.4c1.2,1,2.6,1.9,4,2.6c0.7,0.4,1.4-0.7,0.6-1.1c-1.3-0.7-2.6-1.5-3.7-2.4C36.6,40,35.7,40.9,36.3,41.4
					L36.3,41.4z"/>
			</g>
			<g>
				<path d="M41.2,41.5c1,0.9,2.1,1.7,3.1,2.4c0.7,0.5,1.3-0.6,0.6-1.1c-1-0.7-2-1.4-2.9-2.2C41.5,40.1,40.6,41,41.2,41.5L41.2,41.5
					z"/>
			</g>
			<g>
				<path d="M42.9,40.1c0.8,0.5,1.6,1,2.4,1.5c0.7,0.4,1.3-0.7,0.6-1.1c-0.8-0.5-1.6-1-2.4-1.5C42.9,38.6,42.2,39.7,42.9,40.1
					L42.9,40.1z"/>
			</g>
			<g>
				<path d="M43.2,37.1c0.5,0.5,1.3,0.8,1.7,1.4c0.4,0.7,1.5,0.1,1.1-0.6c-0.5-0.8-1.3-1.1-1.9-1.7C43.5,35.7,42.6,36.6,43.2,37.1
					L43.2,37.1z"/>
			</g>
			<g>
				<path d="M43.4,33.8c0.5,0.2,0.8,0.7,1.2,1.1c0.6,0.6,1.5-0.3,0.9-0.9c-0.5-0.5-0.8-1-1.4-1.3C43.3,32.4,42.7,33.5,43.4,33.8
					L43.4,33.8z"/>
			</g>
			<g>
				<path d="M43.3,29.9c0.4,0.4,0.8,0.8,1.2,1.2c0.6,0.6,1.5-0.3,0.9-0.9c-0.4-0.4-0.8-0.8-1.2-1.2C43.7,28.5,42.8,29.4,43.3,29.9
					L43.3,29.9z"/>
			</g>
			<g>
				<path d="M43.4,26.3c0.3,0.4,0.7,0.8,1.1,1.1c0.6,0.5,1.5-0.4,0.9-0.9c-0.4-0.3-0.8-0.7-1.1-1.1C43.8,24.8,42.9,25.7,43.4,26.3
					L43.4,26.3z"/>
			</g>
			<g>
				<path d="M43.7,24c0.3,0.3,0.6,0.6,1,0.9c0.7,0.5,1.3-0.6,0.6-1.1c-0.3-0.2-0.5-0.4-0.7-0.7C44,22.5,43.1,23.4,43.7,24L43.7,24z"
					/>
			</g>
			<g>
				<path d="M43.9,21c0.3,0.1,0.5,0.3,0.7,0.4c0.6,0.5,1.5-0.4,0.9-0.9c-0.4-0.3-0.8-0.6-1.3-0.7c-0.3-0.1-0.7,0.1-0.8,0.4
					C43.3,20.6,43.6,20.9,43.9,21L43.9,21z"/>
			</g>
			<g>
				<path d="M42.2,16.7c1.1,0.4,1.9,1.5,2.7,2.2c0.6,0.5,1.5-0.4,0.9-0.9c-1-0.9-2-2.1-3.3-2.6C41.8,15.2,41.5,16.4,42.2,16.7
					L42.2,16.7z"/>
			</g>
		</g>
		<g display="inline">
			<g>
				<path d="M13.6,11.3C12,9.9,10.5,8.5,9.1,6.9C8.6,6.3,7.7,7.2,8.2,7.8c1.4,1.6,2.9,3,4.4,4.4C13.3,12.7,14.2,11.8,13.6,11.3
					L13.6,11.3z"/>
			</g>
			<g>
				<path d="M24.4,9.3c-0.3-1.7-0.7-3.3-1-5c-0.2-0.8-1.4-0.5-1.2,0.3c0.3,1.7,0.7,3.3,1,5C23.3,10.4,24.5,10.1,24.4,9.3L24.4,9.3z"
					/>
			</g>
			<g>
				<path d="M36.3,9.5c0-1.6,0.1-3.1,0.1-4.7c0-0.8-1.2-0.8-1.3,0c0,1.6-0.1,3.1-0.1,4.7C35,10.3,36.3,10.3,36.3,9.5L36.3,9.5z"/>
			</g>
			<g>
				<path d="M49.3,13.9c1.7-1.3,3.4-2.7,5-4C55,9.4,54.1,8.5,53.5,9c-1.7,1.3-3.4,2.7-5,4C47.8,13.5,48.7,14.4,49.3,13.9L49.3,13.9z
					"/>
			</g>
			<g>
				<path d="M51.6,24.1c2.5-0.7,5.1-1.1,7.7-1.2c0.8,0,0.8-1.3,0-1.3c-2.7,0.1-5.4,0.5-8,1.3C50.4,23.1,50.8,24.4,51.6,24.1
					L51.6,24.1z"/>
			</g>
			<g>
				<path d="M50.9,36.3c2.3,0.5,4.6,1,6.9,1.5c0.8,0.2,1.1-1,0.3-1.2c-2.3-0.5-4.6-1-6.9-1.5C50.5,34.9,50.1,36.2,50.9,36.3
					L50.9,36.3z"/>
			</g>
			<g>
				<path d="M49.9,46.5c1.5,1.5,3,3.1,4,4.9c0.4,0.7,1.5,0.1,1.1-0.6c-1.1-2-2.7-3.6-4.2-5.2C50.2,45,49.3,45.9,49.9,46.5L49.9,46.5
					z"/>
			</g>
			<g>
				<path d="M35.9,49.2c0.1,1.8,0,3.6-0.4,5.4c-0.2,0.8,1.1,1.1,1.2,0.3c0.4-1.9,0.5-3.8,0.4-5.7C37.1,48.4,35.8,48.4,35.9,49.2
					L35.9,49.2z"/>
			</g>
			<g>
				<path d="M20.9,48.4c0,2.4-0.1,4.8-0.5,7.1c-0.1,0.8,1.2,0.8,1.3,0c0.3-2.4,0.5-4.7,0.5-7.1C22.1,47.6,20.9,47.6,20.9,48.4
					L20.9,48.4z"/>
			</g>
			<g>
				<path d="M10.6,47c-2.4,1.2-4.9,2.4-7.4,3.5c-0.7,0.3-0.1,1.4,0.6,1.1c2.5-1.1,4.9-2.3,7.4-3.5C11.9,47.8,11.3,46.7,10.6,47
					L10.6,47z"/>
			</g>
			<g>
				<path d="M9.7,35c-3.1,0-6.1,0.3-9.1,0.9C-0.2,36,0.1,37.2,0.9,37c2.9-0.5,5.8-0.8,8.7-0.8C10.5,36.2,10.5,35,9.7,35L9.7,35z"/>
			</g>
			<g>
				<path d="M10.1,24c-2.4-1.3-5-2-7.8-1.8c-0.8,0-0.8,1.3,0,1.3c2.5-0.1,4.9,0.4,7.1,1.7C10.2,25.5,10.8,24.4,10.1,24L10.1,24z"/>
			</g>
		</g>
	</g>
</g>
</svg>
